<?xml version="1.0" encoding="utf-8"?>
<!-- Generator: Adobe Illustrator 22.0.1, SVG Export Plug-In . SVG Version: 6.00 Build 0)  -->
<svg version="1.1" id="레이어_1" xmlns="http://www.w3.org/2000/svg" xmlns:xlink="http://www.w3.org/1999/xlink" x="0px"
	 y="0px" viewBox="0 0 50 50" style="enable-background:new 0 0 50 50;" xml:space="preserve">
<style type="text/css">
	.st0{fill:#FFFFFF;}
	.st1{fill:#003399;}
	.st2{fill:url(#SVGID_1_);}
</style>
<g>
	<path class="st0" d="M45.5,1.7H9.7c-1.3,0-2.3,1-2.3,2.3v24.9c0,1.3,1,2.3,2.3,2.3h15.6v2L9.9,48.6c-0.2,0.2-0.3,0.6-0.2,0.8
		c0.1,0.3,0.4,0.5,0.7,0.5h5.5c0.2,0,0.4-0.1,0.6-0.2l8.8-8.8v8.2c0,0.4,0.3,0.8,0.8,0.8h3.1c0.4,0,0.8-0.3,0.8-0.8v-8.2l6,6
		l0.3,3.1l1.6-0.1l-1.2-14H42l-1.2,14l1.6,0.1l1.6-17.9c0-0.1,0-0.3-0.1-0.4l-0.2-0.4h1.9c1.3,0,2.3-1,2.3-2.3V4
		C47.8,2.7,46.8,1.7,45.5,1.7z M15.6,48.4h-3.2l12.9-12.9v3.2L15.6,48.4z M26.8,48.4V31.2h1.6v17.1H26.8z M35.4,23.3v-0.6
		c0-1.3,0.5-2.6,1.3-3.6l2.5-2.9V18c0,1.2,0.5,2.4,1.3,3.2l1.7,1.7c0.6,0.6,0.9,1.3,0.9,2.1c0,0.8-0.3,1.5-0.9,2.1l-1,1H40V25h-1.6
		v3.1h-1.2C36.1,26.8,35.4,25.1,35.4,23.3z M37.4,29.7h3.7l0.8,1.6h-5.3L37.4,29.7z M35.2,38.5l-5.2-5.2v-2h5l-0.2,0.4
		c-0.1,0.1-0.1,0.3-0.1,0.4L35.2,38.5z M29.9,38.7v-3.2l5.4,5.4l0.3,3.6L29.9,38.7z M36.4,34.4l-0.1-1.6h6.1l-0.1,1.6H36.4z
		 M46.3,28.9c0,0.4-0.3,0.8-0.8,0.8h-2.6l-0.3-0.6l0.8-0.8c0.9-0.9,1.3-2,1.3-3.2c0-1.2-0.5-2.4-1.3-3.2l-1.7-1.7
		c-0.6-0.6-0.9-1.3-0.9-2.1v-3.9c0-0.3-0.2-0.6-0.5-0.7c-0.3-0.1-0.6,0-0.9,0.2l-3.9,4.5c-1.1,1.3-1.7,2.9-1.7,4.6v0.6
		c0,1.1,0.2,2.2,0.6,3.3H12V6.3h1.6v9.3c0,1.3,1,2.3,2.3,2.3s2.3-1,2.3-2.3v-1.6c0-0.4,0.3-0.8,0.8-0.8c0.4,0,0.8,0.3,0.8,0.8v4.7
		c0,1.3,1,2.3,2.3,2.3c1.3,0,2.3-1,2.3-2.3v-3.1c0-0.4,0.3-0.8,0.8-0.8c0.4,0,0.8,0.3,0.8,0.8v1.6c0,1.3,1,2.3,2.3,2.3
		c1.3,0,2.3-1,2.3-2.3V6.3h12.5v13.2h1.6v-14c0-0.4-0.3-0.8-0.8-0.8H11.2c-0.4,0-0.8,0.3-0.8,0.8v21.8c0,0.4,0.3,0.8,0.8,0.8h24.1
		c0.2,0.3,0.4,0.6,0.7,0.9l-0.3,0.6h-26c-0.4,0-0.8-0.3-0.8-0.8V4c0-0.4,0.3-0.8,0.8-0.8h35.8c0.4,0,0.8,0.3,0.8,0.8V28.9z
		 M25.2,13.3c-1.3,0-2.3,1-2.3,2.3v3.1c0,0.4-0.3,0.8-0.8,0.8c-0.4,0-0.8-0.3-0.8-0.8v-4.7c0-1.3-1-2.3-2.3-2.3
		c-1.3,0-2.3,1-2.3,2.3v1.6c0,0.4-0.3,0.8-0.8,0.8c-0.4,0-0.8-0.3-0.8-0.8V6.3h14v10.9c0,0.4-0.3,0.8-0.8,0.8
		c-0.4,0-0.8-0.3-0.8-0.8v-1.6C27.6,14.4,26.5,13.3,25.2,13.3z"/>
</g>
</svg>
