<?xml version="1.0" encoding="utf-8"?>
<!-- Generator: Adobe Illustrator 22.0.1, SVG Export Plug-In . SVG Version: 6.00 Build 0)  -->
<svg version="1.1" id="레이어_1" xmlns="http://www.w3.org/2000/svg" xmlns:xlink="http://www.w3.org/1999/xlink" x="0px"
	 y="0px" viewBox="0 0 50 50" style="enable-background:new 0 0 50 50;" xml:space="preserve">
<style type="text/css">
	.st0{fill:#FFFFFF;}
	.st1{fill:#003399;}
	.st2{fill:url(#SVGID_1_);}
</style>
<g>
	<g>
		<g>
			<circle class="st0" cx="32" cy="23.3" r="0.9"/>
		</g>
	</g>
	<g>
		<g>
			<path class="st0" d="M32.1,26.9c-0.5-0.1-0.9,0.3-1,0.7c-0.2,1.6-1.6,2.9-3.6,3.5c-2.1,0.7-5.1,0.4-6.9-1.5
				c-0.3-0.3-0.9-0.4-1.2-0.1c-0.3,0.3-0.4,0.9-0.1,1.2c1,1.1,2.5,1.9,4.1,2.2c0.6,0.1,1.2,0.2,1.8,0.2c0.9,0,1.9-0.1,2.8-0.4
				c2.6-0.8,4.4-2.6,4.7-4.9C32.9,27.5,32.6,27,32.1,26.9z"/>
		</g>
	</g>
	<g>
		<g>
			<path class="st0" d="M44,19.4c-1.6-1.8-3.7-3-6.3-3.4c2.5-1.7,4.6-3.3,6.1-4.8c2.3-2.2,3.1-3.8,2.4-4.9c-0.7-1.2-2.8-1.2-6.5,0
				c-3.2,1.1-7.1,2.9-11.1,5.2c-0.7,0.4-1.4,0.8-2,1.2c-0.5-1.4-0.2-3,0.9-4.4c0.8-1,1-2.4,0.5-3.4c-0.6-1.1-1.8-1.8-3.2-1.8h0
				c-5.2,0-10.3,2.1-14.3,5.8c-4,3.7-6.5,8.7-7,13.9c-0.5,6.3,1.5,12.3,5.7,16.9c4.1,4.5,10,7.1,16.1,7.1c3.3,0,6.3-0.6,9.1-1.8
				c2.5-1.1,4.8-2.6,6.7-4.6c1.8-1.8,3.2-3.9,4.2-6.2c0.9-2.2,1.4-4.5,1.5-6.7C46.7,24.3,45.8,21.5,44,19.4z M26.7,14.8
				c0.9-0.6,1.8-1.1,2.8-1.7c3.7-2.1,7.4-3.9,10.4-4.9C43.1,7,44.5,7,44.8,7.2c0,0.2-0.3,1.1-2.4,3.1c-1.8,1.7-4.4,3.6-7.4,5.5
				C34,16.3,33,16.9,32,17.5c-1.4,0.8-2.7,1.5-4.1,2.2c-0.3-0.8-0.6-1.5-1-2.3c-0.4-0.7-0.9-1.4-1.4-2C25.9,15.2,26.3,15,26.7,14.8z
				 M26.4,20.5c-2.4,1.1-4.6,2-6.4,2.5c-0.1-0.4-0.3-0.9-0.5-1.3c-0.2-0.4-0.5-0.7-0.8-1c1.3-1.3,3.2-2.8,5.4-4.3
				c0.5,0.6,1,1.2,1.3,1.9C25.9,19,26.2,19.7,26.4,20.5z M45,27.5c-0.1,8.5-7.7,17.6-19.8,17.6c-5.6,0-11-2.4-14.8-6.5
				C6.5,34.4,4.6,28.8,5.1,23C6,13,14.8,4.9,24.7,4.9h0c0.8,0,1.4,0.3,1.7,0.9c0.2,0.5,0.1,1.1-0.3,1.6c-1.5,1.9-1.9,4.3-1.1,6.4
				c-0.5,0.3-0.9,0.6-1.3,0.9c0,0,0,0,0,0c-2.7,1.8-5,3.7-6.5,5.2c-1.2-0.4-2.4-0.3-3.5,0.3c-1.8,1-4.1,5.8-4.5,6.7
				c-0.1,0.3-0.1,0.5,0,0.8c0.1,0.2,0.4,0.4,0.7,0.4c0.5,0,1.8,0.1,3.3,0.1c1.8,0,3.8-0.1,4.8-0.7c1.1-0.6,1.8-1.6,2-2.8
				c2.1-0.5,4.8-1.6,7.8-3.1c1.7-0.8,3.4-1.7,5.1-2.7c0.9-0.5,1.7-1,2.6-1.5c0,0,0,0,0,0C42.6,17.7,45,22.8,45,27.5z M18.4,24
				c-0.1,0.9-0.5,1.6-1.3,2.1c-0.8,0.5-3.6,0.5-5.9,0.4c1-2,2.5-4.4,3.3-4.9c0.8-0.4,1.7-0.5,2.5-0.1c0.4,0.2,0.8,0.6,1,1
				C18.3,23,18.5,23.5,18.4,24z"/>
		</g>
	</g>
	<g>
		<g>
			<path class="st0" d="M18.3,8.4c-1.9,0-3.4,1.5-3.4,3.4s1.5,3.4,3.4,3.4s3.4-1.5,3.4-3.4S20.2,8.4,18.3,8.4z M18.3,13.6
				c-0.9,0-1.7-0.8-1.7-1.7c0-0.9,0.8-1.7,1.7-1.7s1.7,0.8,1.7,1.7C20,12.8,19.3,13.6,18.3,13.6z"/>
		</g>
	</g>
	<g>
		<g>
			<path class="st0" d="M14.1,31.4c-1.9,0-3.4,1.5-3.4,3.4c0,1.9,1.5,3.4,3.4,3.4s3.4-1.5,3.4-3.4C17.5,32.9,16,31.4,14.1,31.4z
				 M14.1,36.5c-0.9,0-1.7-0.8-1.7-1.7c0-0.9,0.8-1.7,1.7-1.7c0.9,0,1.7,0.8,1.7,1.7C15.8,35.7,15,36.5,14.1,36.5z"/>
		</g>
	</g>
	<g>
		<g>
			<path class="st0" d="M22.6,36.5c-1.9,0-3.4,1.5-3.4,3.4s1.5,3.4,3.4,3.4c1.9,0,3.4-1.5,3.4-3.4S24.5,36.5,22.6,36.5z M22.6,41.6
				c-0.9,0-1.7-0.8-1.7-1.7c0-0.9,0.8-1.7,1.7-1.7c0.9,0,1.7,0.8,1.7,1.7C24.3,40.8,23.5,41.6,22.6,41.6z"/>
		</g>
	</g>
	<g>
		<g>
			<path class="st0" d="M32.8,34.8c-1.9,0-3.4,1.5-3.4,3.4s1.5,3.4,3.4,3.4c1.9,0,3.4-1.5,3.4-3.4S34.7,34.8,32.8,34.8z M32.8,39.9
				c-0.9,0-1.7-0.8-1.7-1.7c0-0.9,0.8-1.7,1.7-1.7c0.9,0,1.7,0.8,1.7,1.7C34.5,39.1,33.8,39.9,32.8,39.9z"/>
		</g>
	</g>
	<g>
		<g>
			<path class="st0" d="M39.7,26.2c-1.9,0-3.4,1.5-3.4,3.4c0,1.9,1.5,3.4,3.4,3.4s3.4-1.5,3.4-3.4C43.1,27.8,41.5,26.2,39.7,26.2z
				 M39.7,31.4c-0.9,0-1.7-0.8-1.7-1.7s0.8-1.7,1.7-1.7c0.9,0,1.7,0.8,1.7,1.7S40.6,31.4,39.7,31.4z"/>
		</g>
	</g>
</g>
</svg>
