<?xml version="1.0" encoding="utf-8"?>
<!-- Generator: Adobe Illustrator 22.0.1, SVG Export Plug-In . SVG Version: 6.00 Build 0)  -->
<svg version="1.1" id="레이어_1" xmlns="http://www.w3.org/2000/svg" xmlns:xlink="http://www.w3.org/1999/xlink" x="0px"
	 y="0px" viewBox="0 0 50 50" style="enable-background:new 0 0 50 50;" xml:space="preserve">
<style type="text/css">
	.st0{fill:#FFFFFF;}
	.st1{fill:#003399;}
	.st2{fill:url(#SVGID_1_);}
</style>
<g>
	<path class="st0" d="M45.2,3.7H6.8c-2.3,0-4.1,1.8-4.1,4.1v27.3c0,2.3,1.8,4.1,4.1,4.1h11.8l-1.8,5.5h-4.5c-0.8,0-1.4,0.6-1.4,1.4
		c0,0.8,0.6,1.4,1.4,1.4h27.3c0.8,0,1.4-0.6,1.4-1.4c0-0.8-0.6-1.4-1.4-1.4h-4.5l-1.8-5.5h11.8c2.3,0,4.1-1.8,4.1-4.1V7.8
		C49.3,5.5,47.5,3.7,45.2,3.7z M19.7,44.6l1.8-5.5h8.9l1.8,5.5H19.7z M46.6,35.1c0,0.8-0.6,1.4-1.4,1.4c-2.1,0-36.3,0-38.4,0
		c-0.8,0-1.4-0.6-1.4-1.4v-1.4h41.1V35.1z M46.6,31H5.5V7.8c0-0.8,0.6-1.4,1.4-1.4h38.4c0.8,0,1.4,0.6,1.4,1.4V31z"/>
	<path class="st0" d="M30.1,10.5c0,0.8-0.6,1.4-1.4,1.4s-1.4-0.6-1.4-1.4s0.6-1.4,1.4-1.4S30.1,9.8,30.1,10.5z"/>
	<path class="st0" d="M24.7,10.5c0,0.8-0.6,1.4-1.4,1.4s-1.4-0.6-1.4-1.4s0.6-1.4,1.4-1.4S24.7,9.8,24.7,10.5z"/>
	<path class="st0" d="M35.6,10.5c0,0.8-0.6,1.4-1.4,1.4c-0.8,0-1.4-0.6-1.4-1.4s0.6-1.4,1.4-1.4C35,9.2,35.6,9.8,35.6,10.5z"/>
	<path class="st0" d="M17.8,9.2H9.7c-0.8,0-1.4,0.6-1.4,1.4v16.4c0,0.8,0.6,1.4,1.4,1.4h8.2c0.8,0,1.4-0.6,1.4-1.4V10.5
		C19.2,9.8,18.6,9.2,17.8,9.2z M16.5,25.5H11v-2.7h5.5V25.5z M16.5,20.1H11v-2.7h5.5V20.1z M16.5,14.6H11v-2.7h5.5V14.6z"/>
	<path class="st0" d="M37.9,23.2c-0.5-0.5-1.4-0.5-1.9,0l-1.6,1.6l-4.5-6.8c-0.3-0.4-0.7-0.6-1.1-0.6s-0.9,0.2-1.1,0.6l-5.5,8.2
		c-0.4,0.6-0.2,1.5,0.4,1.9c0.6,0.4,1.5,0.3,1.9-0.4l4.3-6.5l4.3,6.5c0.2,0.3,0.6,0.6,1,0.6c0.4,0,0.8-0.1,1.1-0.4l1.8-1.8l1.8,1.8
		c0.5,0.5,1.4,0.5,1.9,0c0.5-0.5,0.5-1.4,0-1.9L37.9,23.2z"/>
	<path class="st0" d="M39.7,11.9c-2.3,0-4.1,1.8-4.1,4.1s1.8,4.1,4.1,4.1s4.1-1.8,4.1-4.1S41.9,11.9,39.7,11.9z M39.7,17.3
		c-0.8,0-1.4-0.6-1.4-1.4s0.6-1.4,1.4-1.4S41,15.2,41,16S40.4,17.3,39.7,17.3z"/>
</g>
</svg>
