<?xml version="1.0" encoding="utf-8"?>
<!-- Generator: Adobe Illustrator 22.0.1, SVG Export Plug-In . SVG Version: 6.00 Build 0)  -->
<svg version="1.1" id="레이어_1" xmlns="http://www.w3.org/2000/svg" xmlns:xlink="http://www.w3.org/1999/xlink" x="0px"
	 y="0px" viewBox="0 0 30 30" style="enable-background:new 0 0 30 30;" xml:space="preserve">
<style type="text/css">
	.st0{fill:#FFFFFF;}
	.st1{fill:#003399;}
	.st2{fill:url(#SVGID_1_);}
</style>
<path class="st1" d="M24.8,5c-2.5-2.5-6-4-9.8-4C7.2,1,1,7.3,1,15c0,7.7,6.3,14,14,14c3.8,0,7.3-1.5,9.8-4c2.6-2.5,4.2-6.1,4.2-10
	S27.4,7.5,24.8,5z M20.6,8h-2.8c-0.8,0-1.4,0.6-1.4,1.4v2.8h4.2v4.2h-4.2v9.8h-4.2v-9.8H9.4v-4.2h2.8V8.7c0-2.7,2.2-4.9,4.9-4.9h3.5
	V8z"/>
</svg>
