<?xml version="1.0" encoding="utf-8"?>
<!-- Generator: Adobe Illustrator 22.0.1, SVG Export Plug-In . SVG Version: 6.00 Build 0)  -->
<svg version="1.1" id="레이어_1" xmlns="http://www.w3.org/2000/svg" xmlns:xlink="http://www.w3.org/1999/xlink" x="0px"
	 y="0px" viewBox="0 0 30 30" style="enable-background:new 0 0 30 30;" xml:space="preserve">
<style type="text/css">
	.st0{fill:#FFFFFF;}
	.st1{fill:#003399;}
	.st2{fill:url(#SVGID_1_);}
</style>
<linearGradient id="SVGID_1_" gradientUnits="userSpaceOnUse" x1="25.3322" y1="4.4318" x2="4.5822" y2="26.1818">
	<stop  offset="0" style="stop-color:#7F3BB2"/>
	<stop  offset="0.1071" style="stop-color:#8937A6"/>
	<stop  offset="0.3019" style="stop-color:#A32D85"/>
	<stop  offset="0.5607" style="stop-color:#CE1D51"/>
	<stop  offset="0.6561" style="stop-color:#DF173C"/>
	<stop  offset="1" style="stop-color:#F9D801"/>
</linearGradient>
<path class="st2" d="M15.2,0.9C7.5,0.9,1.2,7.2,1.2,15c0,7.8,6.3,14.1,14.1,14.1S29.3,22.8,29.3,15C29.3,7.2,23,0.9,15.2,0.9z
	 M19.4,8.8V6.6c0-0.5,0.4-1,1-1h1h1.9c0.5,0,1,0.4,1,1v1.7v1.1c0,0.5-0.4,1-1,1h-2h-0.8c-0.5,0-1-0.4-1-1V8.8z M10.9,13.5
	c0.5-1.4,1.6-2.5,3-2.9c0.4-0.1,0.9-0.2,1.4-0.2s0.9,0.1,1.4,0.2c1.4,0.4,2.5,1.5,3,2.9c0.2,0.5,0.3,0.9,0.3,1.5
	c0,2.5-2.1,4.6-4.6,4.6s-4.6-2.1-4.6-4.6C10.7,14.5,10.8,14,10.9,13.5z M15.2,26.2c-6.2,0-11.2-5-11.2-11.2c0-0.5,0-1,0.1-1.5h3.7
	c-0.1,0.5-0.1,1-0.1,1.5c0,4.1,3.4,7.5,7.5,7.5s7.5-3.4,7.5-7.5c0-0.5-0.1-1-0.1-1.5h3.7c0.1,0.5,0.1,1,0.1,1.5
	C26.4,21.2,21.4,26.2,15.2,26.2z"/>
</svg>
