<?xml version="1.0" encoding="utf-8"?>
<!-- Generator: Adobe Illustrator 22.0.1, SVG Export Plug-In . SVG Version: 6.00 Build 0)  -->
<svg version="1.1" id="레이어_1" xmlns="http://www.w3.org/2000/svg" xmlns:xlink="http://www.w3.org/1999/xlink" x="0px"
	 y="0px" viewBox="0 0 50 50" style="enable-background:new 0 0 50 50;" xml:space="preserve">
<style type="text/css">
	.st0{fill:#FFFFFF;}
	.st1{fill:#003399;}
	.st2{fill:url(#SVGID_1_);}
</style>
<g>
	<path class="st0" d="M5.2,42.7h1.3V46H5.2V42.7z"/>
	<path class="st0" d="M11.4,36.4c0.3-0.5,0.5-1.1,0.5-1.8v-1.3c0-1.8-1.5-3.3-3.3-3.3s-3.3,1.5-3.3,3.3v1.3c0,0.6,0.2,1.2,0.5,1.8
		c-1.9,1-3.1,3-3.1,5.2V46h1.3v-4.4c0-1.9,1.1-3.5,2.8-4.2c0.5,0.3,1.1,0.5,1.8,0.5c0.6,0,1.3-0.2,1.8-0.5c1.7,0.7,2.8,2.4,2.8,4.2
		V46h1.3v-4.4C14.5,39.4,13.3,37.4,11.4,36.4z M10.6,34.6c0,1.1-0.9,2-2,2c-1.1,0-2-0.9-2-2v-1.3c0-1.1,0.9-2,2-2c1.1,0,2,0.9,2,2
		V34.6z"/>
	<path class="st0" d="M10.8,42.7h1.3V46h-1.3V42.7z"/>
	<path class="st0" d="M37.9,42.7h1.3V46h-1.3V42.7z"/>
	<path class="st0" d="M44.1,36.4c0.3-0.5,0.5-1.1,0.5-1.8v-1.3c0-1.8-1.5-3.3-3.3-3.3S38,31.5,38,33.3v1.3c0,0.6,0.2,1.2,0.5,1.8
		c-1.9,1-3.1,3-3.1,5.2V46h1.3v-4.4c0-1.9,1.1-3.5,2.8-4.2c0.5,0.3,1.1,0.5,1.8,0.5c0.6,0,1.3-0.2,1.8-0.5c1.7,0.7,2.8,2.4,2.8,4.2
		V46h1.3v-4.4C47.2,39.4,46,37.4,44.1,36.4z M43.3,34.6c0,1.1-0.9,2-2,2c-1.1,0-2-0.9-2-2v-1.3c0-1.1,0.9-2,2-2c1.1,0,2,0.9,2,2
		V34.6z"/>
	<path class="st0" d="M43.5,42.7h1.3V46h-1.3V42.7z"/>
	<path class="st0" d="M21.4,14h1.3v3.3h-1.3V14z"/>
	<path class="st0" d="M20.3,12.9c0-1.9,1.1-3.5,2.8-4.2c0.5,0.3,1.1,0.5,1.8,0.5c0.6,0,1.3-0.2,1.8-0.5c1.7,0.7,2.8,2.4,2.8,4.2v4.4
		h1.3v-4.4c0-2.2-1.2-4.2-3.1-5.2C28,7.2,28.2,6.6,28.2,6V4.7c0-1.8-1.5-3.3-3.3-3.3s-3.3,1.5-3.3,3.3V6c0,0.6,0.2,1.2,0.5,1.8
		c-1.9,1-3.1,3-3.1,5.2v4.4h1.3V12.9z M22.9,4.7c0-1.1,0.9-2,2-2c1.1,0,2,0.9,2,2V6c0,1.1-0.9,2-2,2c-1.1,0-2-0.9-2-2V4.7z"/>
	<path class="st0" d="M27,14h1.3v3.3H27V14z"/>
	<path class="st0" d="M29.2,41.8l0.3,1.3c0.4-0.1,0.9-0.2,1.3-0.4l-0.4-1.2C30.1,41.6,29.7,41.7,29.2,41.8z"/>
	<path class="st0" d="M24.8,42.4c-1.4,0-2.8-0.2-4.1-0.5l2.4-1l-0.5-1.2l-4.8,2.1l3.4,4l1-0.8l-1.4-1.7c1.4,0.3,2.7,0.4,4.1,0.4
		c1.1,0,2.3-0.1,3.4-0.3L28,42.1C27,42.3,25.9,42.4,24.8,42.4z"/>
	<path class="st0" d="M41.1,14.4l1.1-0.6c-0.2-0.4-0.5-0.8-0.7-1.2l-1.1,0.7C40.7,13.6,40.9,14,41.1,14.4z"/>
	<path class="st0" d="M39.7,12.3l1-0.8c-0.5-0.7-1.1-1.4-1.7-2c-1.7-1.7-3.7-3.1-6-4.1l-0.5,1.2c2.1,0.9,3.9,2.2,5.6,3.8
		C38.6,11,39.2,11.6,39.7,12.3z"/>
	<path class="st0" d="M43.5,23.6c0,0.3,0,0.5,0,0.8L42,22.3L41,23.1l3,4.3l3.2-4.1l-1-0.8l-1.4,1.7c0-0.2,0-0.4,0-0.5
		c0-2.1-0.3-4.2-1-6.2l-1.2,0.4C43.2,19.7,43.5,21.7,43.5,23.6z"/>
	<path class="st0" d="M42.2,16.6l1.2-0.5c-0.2-0.4-0.4-0.8-0.5-1.2l-1.2,0.6C41.9,15.9,42,16.3,42.2,16.6z"/>
	<path class="st0" d="M9.3,13.1l-1.1-0.7c-0.3,0.4-0.5,0.8-0.7,1.1l1.1,0.7C8.8,13.8,9.1,13.5,9.3,13.1z"/>
	<path class="st0" d="M6.2,26c-0.1-0.8-0.2-1.6-0.2-2.4c0-2,0.3-4.1,1-6l-1.2-0.4c-0.7,2.1-1,4.2-1,6.4c0,0.8,0.1,1.7,0.2,2.5
		L6.2,26z"/>
	<path class="st0" d="M8,15.3l-1.2-0.6c-0.2,0.4-0.4,0.8-0.6,1.2l1.2,0.5C7.7,16.1,7.8,15.7,8,15.3z"/>
	<path class="st0" d="M13.6,4.2l-0.3,1.3l2.1,0.4c-1.8,0.9-3.4,2.1-4.8,3.5c-0.6,0.6-1.1,1.2-1.6,1.8l1,0.8c0.5-0.6,1-1.2,1.5-1.7
		C13,9,14.6,7.8,16.4,6.9l-1.3,2.4l1.2,0.6l2.4-4.6L13.6,4.2z"/>
	<path class="st0" d="M32.2,27.6h1.3v1.3h-1.3V27.6z"/>
	<path class="st0" d="M16.5,27.6h1.3v1.3h-1.3V27.6z"/>
	<path class="st0" d="M29.6,25.2h1.3v6.1h-1.3V25.2z"/>
	<path class="st0" d="M19.1,25.2h1.3v6.1h-1.3V25.2z"/>
	<path class="st0" d="M26.9,23.9h1.3v8.7h-1.3V23.9z"/>
	<path class="st0" d="M21.7,23.9H23v8.7h-1.3V23.9z"/>
	<path class="st0" d="M24.3,22.2h1.3v12.2h-1.3V22.2z"/>
	<path class="st0" d="M24.2,11.5h1.3v1.3h-1.3V11.5z"/>
	<path class="st0" d="M40.7,40.3H42v1.3h-1.3V40.3z"/>
	<path class="st0" d="M8,40.3h1.3v1.3H8V40.3z"/>
</g>
</svg>
