<svg viewBox="0 0 512 512" xmlns="http://www.w3.org/2000/svg"><path d="m442 176h60v226h-60zm0 0" fill="#a8ebfa"/><path d="m502 166v10h-60v-10c0-16.785156 13.6875-30 30-30 16.558594 0 30 13.4375 30 30zm0 0" fill="#fff"/><path d="m442 402h60c0 25.960938-8.421875 51.230469-24 72l-6 8-6-8c-15.578125-20.769531-24-46.039062-24-72zm0 0" fill="#fff"/><path d="m472 96c-11.050781 0-20 8.949219-20 20v27.640625l.011719.007813h39.976562l.011719-.007813v-27.640625c0-11.050781-8.949219-20-20-20zm0 0" fill="#a8ebfa"/><path d="m362 10h-312l7.851562 79.230469v.769531h304.148438c22.136719 0 40-17.960938 40-40 0-22.089844-17.910156-40-40-40zm0 0" fill="#ffe470"/><path d="m372 88.738281v393.261719c0 11.050781-8.949219 20-20 20h-274c-11.050781 0-20-8.949219-20-20v-392h304c3.449219 0 6.808594-.441406 10-1.261719zm0 0" fill="#fff"/><g fill="#a8ebfa"><path d="m110 376h40v40h-40zm0 0"/><path d="m110 276h40v40h-40zm0 0"/><path d="m110 176h40v40h-40zm0 0"/></g><path d="m88.828125 40.179688c5.601563 23.550781-9.628906 44.800781-30.976563 49.050781v.769531h.148438v372h-28c-11.050781 0-20-8.949219-20-20v-392c0-22.089844 17.910156-40.011719 40-40 19.402344 0 34.882812 13.566406 38.828125 30.179688zm0 0" fill="#6accbe"/><path d="m210 186c5.519531 0 10-4.480469 10-10s-4.480469-10-10-10-10 4.480469-10 10 4.480469 10 10 10zm0 0"/><path d="m30 472h18v10c0 16.542969 13.457031 30 30 30h274c16.542969 0 30-13.457031 30-30v-386.164062c17.992188-7.832032 30-25.695313 30-45.835938 0-27.570312-22.429688-50-50-50h-311.996094c-.007812 0-.015625 0-.023437 0-27.613281 0-49.980469 22.363281-49.980469 50v392c0 16.542969 13.457031 30 30 30zm332 10c0 5.515625-4.484375 10-10 10h-274c-5.515625 0-10-4.484375-10-10v-382h294zm-263.441406-444.132812c-1.546875-6.507813-4.492188-12.578126-8.484375-17.867188h271.925781c16.542969 0 30 13.457031 30 30 0 16.5-13.316406 30-30 30h-272.003906c8.699218-11.554688 12.238281-26.683594 8.5625-42.132812zm-78.558594 12.132812c0-16.566406 13.402344-30 29.984375-30h.015625c14.675781 0 26.171875 10.167969 29.101562 22.492188 4.214844 17.734374-7.101562 33.726562-23.203124 36.929687-5.117188 1.019531-8.96875 5.886719-7.898438 12.242187v360.335938h-18c-5.515625 0-10-4.484375-10-10zm0 0"/><path d="m110 226h40c5.523438 0 10-4.476562 10-10v-40c0-5.523438-4.476562-10-10-10h-40c-5.523438 0-10 4.476562-10 10v40c0 5.523438 4.476562 10 10 10zm10-40h20v20h-20zm0 0"/><path d="m110 326h40c5.523438 0 10-4.476562 10-10v-40c0-5.523438-4.476562-10-10-10h-40c-5.523438 0-10 4.476562-10 10v40c0 5.523438 4.476562 10 10 10zm10-40h20v20h-20zm0 0"/><path d="m110 426h40c5.523438 0 10-4.476562 10-10v-40c0-5.523438-4.476562-10-10-10h-40c-5.523438 0-10 4.476562-10 10v40c0 5.523438 4.476562 10 10 10zm10-40h20v20h-20zm0 0"/><path d="m250 186h72c5.523438 0 10-4.476562 10-10s-4.476562-10-10-10h-72c-5.523438 0-10 4.476562-10 10s4.476562 10 10 10zm0 0"/><path d="m210 286h112c5.523438 0 10-4.476562 10-10s-4.476562-10-10-10h-112c-5.523438 0-10 4.476562-10 10s4.476562 10 10 10zm0 0"/><path d="m210 326h112c5.523438 0 10-4.476562 10-10s-4.476562-10-10-10h-112c-5.523438 0-10 4.476562-10 10s4.476562 10 10 10zm0 0"/><path d="m210 386h112c5.523438 0 10-4.476562 10-10s-4.476562-10-10-10h-112c-5.523438 0-10 4.476562-10 10s4.476562 10 10 10zm0 0"/><path d="m210 426h112c5.523438 0 10-4.476562 10-10s-4.476562-10-10-10h-112c-5.523438 0-10 4.476562-10 10s4.476562 10 10 10zm0 0"/><path d="m210 226h112c5.523438 0 10-4.476562 10-10s-4.476562-10-10-10h-112c-5.523438 0-10 4.476562-10 10s4.476562 10 10 10zm0 0"/><path d="m502 116c0-16.542969-13.457031-30-30-30s-30 13.457031-30 30v23.574219c-6.398438 7.25-10 16.644531-10 26.425781v236c0 27.949219 9.234375 55.648438 26 78l4 5.332031v16.667969c0 5.523438 4.476562 10 10 10s10-4.476562 10-10v-16.667969l4-5.332031c16.765625-22.351562 26-50.050781 26-78v-236c0-9.835938-3.539062-19.128906-10-26.441406zm-50 70h40v206h-40zm20-40c10.769531 0 20 8.710938 20 20h-40c0-10.984375 8.945312-20 20-20zm0-40c5.515625 0 10 4.484375 10 10v11.28125c-3.238281-.839844-6.597656-1.28125-10-1.28125-3.40625 0-6.761719.441406-10 1.277344v-11.277344c0-5.515625 4.484375-10 10-10zm0 359.242188c-11.003906-15.675782-17.769531-34.199219-19.535156-53.253907h39.070312c-1.765625 19.054688-8.53125 37.578125-19.535156 53.253907zm0 0"/></svg>