<?xml version="1.0" encoding="utf-8"?>
<!-- Generator: Adobe Illustrator 16.0.0, SVG Export Plug-In . SVG Version: 6.00 Build 0)  -->
<!DOCTYPE svg PUBLIC "-//W3C//DTD SVG 1.1//EN" "http://www.w3.org/Graphics/SVG/1.1/DTD/svg11.dtd">
<svg version="1.1" id="Layer_1" xmlns="http://www.w3.org/2000/svg" xmlns:xlink="http://www.w3.org/1999/xlink" x="0px" y="0px"
	 width="40px" height="40px" viewBox="0 0 40 40" enable-background="new 0 0 40 40" xml:space="preserve">
<g>
	<path d="M31.765,18.626H8.928c-0.238,0-0.444,0.105-0.618,0.313c-0.173,0.207-0.26,0.453-0.26,0.736v2.096
		c0,0.283,0.087,0.529,0.26,0.736c0.174,0.209,0.38,0.313,0.618,0.313h22.836c0.238,0,0.443-0.104,0.617-0.313
		c0.174-0.207,0.262-0.453,0.262-0.736v-2.096c0-0.283-0.088-0.529-0.262-0.736S32.003,18.626,31.765,18.626z"/>
	<path d="M31.765,27.937H8.928c-0.238,0-0.444,0.104-0.618,0.313c-0.173,0.207-0.26,0.453-0.26,0.736v2.096
		c0,0.283,0.087,0.529,0.26,0.738c0.174,0.205,0.38,0.311,0.618,0.311h22.836c0.238,0,0.443-0.105,0.617-0.311
		c0.174-0.209,0.262-0.455,0.262-0.738v-2.096c0-0.283-0.088-0.529-0.262-0.736C32.208,28.04,32.003,27.937,31.765,27.937z"/>
	<path d="M32.382,9.627c-0.174-0.208-0.379-0.311-0.617-0.311H8.928c-0.238,0-0.444,0.104-0.618,0.311
		c-0.173,0.208-0.26,0.453-0.26,0.737v2.096c0,0.284,0.087,0.529,0.26,0.737c0.174,0.207,0.38,0.311,0.618,0.311h22.836
		c0.238,0,0.443-0.104,0.617-0.311c0.174-0.208,0.262-0.453,0.262-0.737v-2.096C32.644,10.081,32.556,9.835,32.382,9.627z"/>
</g>
</svg>
