<?xml version="1.0" encoding="iso-8859-1"?>
<!-- Generator: Adobe Illustrator 19.0.0, SVG Export Plug-In . SVG Version: 6.00 Build 0)  -->
<svg version="1.1" id="Capa_1" xmlns="http://www.w3.org/2000/svg" xmlns:xlink="http://www.w3.org/1999/xlink" x="0px" y="0px"
	 viewBox="0 0 480 480" style="enable-background:new 0 0 480 480;" xml:space="preserve">
<g>
	<g>
		<path d="M281.469,19.832l-2.937,15.727c44.997,8.557,85.934,31.668,116.508,65.773l11.922-10.672
			C374.028,53.93,329.934,29.043,281.469,19.832z"/>
	</g>
</g>
<g>
	<g>
		<path d="M198.531,19.832c-47.944,9.117-91.624,33.576-124.453,69.688l11.844,10.75c30.481-33.527,71.034-56.239,115.547-64.711
			L198.531,19.832z"/>
	</g>
</g>
<g>
	<g>
		<path d="M43.828,170.668l-15.078-5.336c-17,48.327-17,101.009,0,149.336l15.078-5.336
			C28.057,264.456,28.057,215.544,43.828,170.668z"/>
	</g>
</g>
<g>
	<g>
		<path d="M93.633,387.781l-11.266,11.367c31.719,31.538,72.196,52.8,116.164,61.02l2.937-15.727
			C160.651,436.808,123.075,417.065,93.633,387.781z"/>
	</g>
</g>
<g>
	<g>
		<path d="M387.789,386.371c-27.782,28.118-63.019,47.712-101.563,56.477l3.547,15.602c41.51-9.436,79.458-30.538,109.375-60.82
			L387.789,386.371z"/>
	</g>
</g>
<g>
	<g>
		<path d="M456.398,181.93l-15.453,4.141c4.694,17.592,7.066,35.722,7.055,53.93c0.029,23.615-3.971,47.062-11.828,69.332
			l15.078,5.336C466.269,271.945,468.063,225.687,456.398,181.93z"/>
	</g>
</g>
<g>
	<g>
		<path d="M448.004,112c-0.001,0-0.003,0-0.004,0h-32c-4.417-0.001-7.999,3.579-8,7.996c0,0.001,0,0.003,0,0.004v32
			c-0.001,4.417,3.579,7.999,7.996,8c0.001,0,0.003,0,0.004,0h32c4.417,0.001,7.999-3.579,8-7.996c0-0.001,0-0.003,0-0.004v-32
			C456.001,115.583,452.421,112.001,448.004,112z M440,144h-16v-16h16V144z"/>
	</g>
</g>
<g>
	<g>
		<path d="M256.004,0c-0.001,0-0.003,0-0.004,0h-32c-4.417-0.001-7.999,3.579-8,7.996c0,0.001,0,0.003,0,0.004v32
			c-0.001,4.417,3.579,7.999,7.996,8c0.001,0,0.003,0,0.004,0h32c4.417,0.001,7.999-3.579,8-7.996c0-0.001,0-0.003,0-0.004V8
			C264.001,3.583,260.421,0.001,256.004,0z M248,32h-16V16h16V32z"/>
	</g>
</g>
<g>
	<g>
		<path d="M72.004,104c-0.001,0-0.003,0-0.004,0H40c-4.417-0.001-7.999,3.579-8,7.996c0,0.001,0,0.003,0,0.004v32
			c-0.001,4.417,3.579,7.999,7.996,8c0.001,0,0.003,0,0.004,0h32c4.417,0.001,7.999-3.579,8-7.996c0-0.001,0-0.003,0-0.004v-32
			C80.001,107.583,76.421,104.001,72.004,104z M64,136H48v-16h16V136z"/>
	</g>
</g>
<g>
	<g>
		<path d="M72.004,328c-0.001,0-0.003,0-0.004,0H40c-4.417-0.001-7.999,3.579-8,7.996c0,0.001,0,0.003,0,0.004v32
			c-0.001,4.417,3.579,7.999,7.996,8c0.001,0,0.003,0,0.004,0h32c4.417,0.001,7.999-3.579,8-7.996c0-0.001,0-0.003,0-0.004v-32
			C80.001,331.583,76.421,328.001,72.004,328z M64,360H48v-16h16V360z"/>
	</g>
</g>
<g>
	<g>
		<path d="M256.004,432c-0.001,0-0.003,0-0.004,0h-32c-4.417-0.001-7.999,3.579-8,7.996c0,0.001,0,0.003,0,0.004v32
			c-0.001,4.417,3.579,7.999,7.996,8c0.001,0,0.003,0,0.004,0h32c4.417,0.001,7.999-3.579,8-7.996c0-0.001,0-0.003,0-0.004v-32
			C264.001,435.583,260.421,432.001,256.004,432z M248,464h-16v-16h16V464z"/>
	</g>
</g>
<g>
	<g>
		<path d="M440.004,328c-0.001,0-0.003,0-0.004,0h-32c-4.417-0.001-7.999,3.579-8,7.996c0,0.001,0,0.003,0,0.004v32
			c-0.001,4.417,3.579,7.999,7.996,8c0.001,0,0.003,0,0.004,0h32c4.417,0.001,7.999-3.579,8-7.996c0-0.001,0-0.003,0-0.004v-32
			C448.001,331.583,444.421,328.001,440.004,328z M432,360h-16v-16h16V360z"/>
	</g>
</g>
<g>
	<g>
		<path d="M240,80c-88.366,0-160,71.634-160,160s71.634,160,160,160c88.324-0.1,159.9-71.676,160-160C400,151.634,328.366,80,240,80
			z M193.234,103.949c-9.344,10.829-16.912,23.07-22.423,36.269c-10.367-1.167-20.433-2.582-30.076-4.274
			C155.728,121.625,173.636,110.712,193.234,103.949z M127.923,149.794c11.756,2.346,24.115,4.33,37.017,5.879
			c-7.979,24.677-12.266,50.397-12.724,76.327h-55.81C98.017,201.968,109.044,173.206,127.923,149.794z M96.405,248h55.81
			c0.458,25.93,4.746,51.651,12.724,76.327c-12.902,1.549-25.261,3.533-37.017,5.879C109.044,306.794,98.017,278.032,96.405,248z
			 M140.735,344.057c9.643-1.692,19.709-3.107,30.076-4.274c5.511,13.198,13.079,25.44,22.423,36.269
			C173.636,369.288,155.728,358.375,140.735,344.057z M232,383.001c-17.124-3.991-32.603-20.6-44.069-44.874
			c14.286-1.171,29.035-1.855,44.069-2.035V383.001z M232,320.092c-17.254,0.202-34.18,1.037-50.478,2.512
			c-8.279-24.027-12.77-49.196-13.312-74.604H232V320.092z M232,232h-63.79c0.542-25.408,5.033-50.577,13.312-74.604
			c16.298,1.476,33.224,2.31,50.478,2.512V232z M232,143.909c-15.034-0.18-29.783-0.864-44.069-2.035
			c11.466-24.274,26.945-40.883,44.069-44.875V143.909z M383.595,232h-55.81c-0.458-25.93-4.746-51.651-12.724-76.327
			c12.902-1.549,25.261-3.533,37.017-5.879C370.956,173.206,381.983,201.968,383.595,232z M339.265,135.943
			c-9.643,1.692-19.709,3.107-30.076,4.274c-5.511-13.198-13.079-25.44-22.423-36.269
			C306.364,110.712,324.272,121.625,339.265,135.943z M248,96.999c17.124,3.991,32.603,20.6,44.069,44.875
			c-14.286,1.171-29.035,1.855-44.069,2.035V96.999z M248,159.908c17.254-0.202,34.18-1.037,50.478-2.512
			c8.279,24.027,12.77,49.196,13.312,74.604H248V159.908z M248,248h63.79c-0.542,25.408-5.033,50.577-13.312,74.604
			c-16.298-1.476-33.224-2.31-50.478-2.512V248z M248,383.001v-46.91c15.034,0.18,29.783,0.864,44.069,2.035
			C280.603,362.401,265.124,379.01,248,383.001z M286.766,376.051c9.344-10.829,16.912-23.07,22.423-36.269
			c10.367,1.167,20.433,2.582,30.076,4.274C324.272,358.375,306.364,369.288,286.766,376.051z M352.077,330.206
			c-11.756-2.346-24.115-4.33-37.017-5.879c7.979-24.677,12.266-50.397,12.724-76.327h55.81
			C381.983,278.032,370.956,306.794,352.077,330.206z"/>
	</g>
</g>
<g>
</g>
<g>
</g>
<g>
</g>
<g>
</g>
<g>
</g>
<g>
</g>
<g>
</g>
<g>
</g>
<g>
</g>
<g>
</g>
<g>
</g>
<g>
</g>
<g>
</g>
<g>
</g>
<g>
</g>
</svg>
