<?xml version="1.0" encoding="utf-8"?>
<!-- Generator: Adobe Illustrator 16.0.0, SVG Export Plug-In . SVG Version: 6.00 Build 0)  -->
<!DOCTYPE svg PUBLIC "-//W3C//DTD SVG 1.1//EN" "http://www.w3.org/Graphics/SVG/1.1/DTD/svg11.dtd">
<svg version="1.1" id="Layer_1" xmlns="http://www.w3.org/2000/svg" xmlns:xlink="http://www.w3.org/1999/xlink" x="0px" y="0px"
	 width="200px" height="200px" viewBox="0 0 200 200" enable-background="new 0 0 200 200" xml:space="preserve">
<path fill="#3F77BC" d="M129.765,140.514c-1.116,0-2.042,0.926-2.042,2.042v3.758c0,0.954-0.6,1.825-1.498,2.179
	c-1.063,0.409-1.58,1.58-1.172,2.642c0.301,0.816,1.09,1.307,1.907,1.307c0.245,0,0.489-0.055,0.735-0.136
	c2.478-0.953,4.139-3.35,4.139-5.992v-3.758C131.807,141.44,130.881,140.514,129.765,140.514z"/>
<path fill="#C8C6C6" d="M91.721,148.656h-29.52c-1.28,0-2.314-1.035-2.314-2.314V71.588c0-1.117-0.927-2.042-2.043-2.042
	c-1.117,0-2.042,0.925-2.042,2.042v74.753c0,3.54,2.886,6.399,6.399,6.399h29.52c1.117,0,2.043-0.926,2.043-2.043
	C93.764,149.582,92.838,148.656,91.721,148.656z"/>
<path fill="#3F77BC" d="M57.844,64.998c1.116,0,2.043-0.926,2.043-2.042v-5.638c0-1.279,1.034-2.314,2.314-2.314h14.678v2.859
	c0,2.233,1.798,4.031,4.031,4.031h25.762c2.232,0,4.029-1.797,4.029-4.031v-2.859h14.68c1.279,0,2.314,1.035,2.314,2.314v11.22
	c0,1.116,0.926,2.042,2.043,2.042c1.116,0,2.041-0.926,2.041-2.042v-11.22c0-3.54-2.887-6.399-6.398-6.399h-14.733
	c-0.272-1.96-1.96-3.459-3.976-3.459h-2.859c-0.953-4.656-5.093-8.196-10.021-8.196c-4.93,0-9.068,3.513-10.022,8.196H80.91
	c-2.016,0-3.704,1.499-3.977,3.459H62.201c-3.54,0-6.399,2.887-6.399,6.399v5.638C55.802,64.072,56.7,64.998,57.844,64.998z
	 M93.791,43.349c2.668,0,4.955,1.715,5.801,4.111H87.99C88.834,45.064,91.121,43.349,93.791,43.349z M80.965,51.545h4.629h16.394
	h4.63v1.39v0.027v0.027v4.82H80.965V51.545z"/>
<path fill="#C8C6C6" d="M131.807,92.476v-6.7c0-1.117-0.926-2.042-2.042-2.042s-2.042,0.925-2.042,2.042v6.7
	c0,1.117,0.926,2.042,2.042,2.042S131.807,93.619,131.807,92.476z"/>
<path fill="#C8C6C6" d="M129.765,132.017c-8.17,0-14.787,6.645-14.787,14.787c0,8.143,6.646,14.788,14.787,14.788
	c8.143,0,14.787-6.645,14.787-14.788C144.552,138.662,137.907,132.017,129.765,132.017z M129.765,157.534
	c-5.909,0-10.702-4.792-10.702-10.702c0-5.91,4.793-10.703,10.702-10.703s10.702,4.793,10.702,10.703
	C140.467,152.714,135.674,157.534,129.765,157.534z"/>
<path fill="#3F77BC" d="M159.911,139.315l-5.692-0.871c-0.354-1.035-0.762-2.043-1.252-2.996l3.404-4.63
	c0.599-0.817,0.518-1.933-0.191-2.642l-0.734-0.735c-0.79-0.79-2.098-0.79-2.887,0c-0.6,0.599-0.763,1.525-0.436,2.26l-3.214,4.357
	c-0.464,0.653-0.518,1.498-0.136,2.206c0.789,1.444,1.443,2.996,1.906,4.575c0.217,0.763,0.871,1.334,1.66,1.471l5.229,0.79v7.435
	l-5.229,0.79c-0.789,0.109-1.443,0.681-1.66,1.471c-0.463,1.607-1.09,3.132-1.906,4.575c-0.382,0.708-0.328,1.552,0.136,2.206
	l3.132,4.249l-5.256,5.255l-4.248-3.132c-0.654-0.462-1.498-0.518-2.206-0.136c-1.444,0.79-2.995,1.443-4.575,1.906
	c-0.763,0.218-1.334,0.872-1.471,1.661l-0.79,5.229h-7.435l-0.789-5.229c-0.109-0.79-0.681-1.443-1.471-1.661
	c-1.607-0.463-3.131-1.089-4.575-1.906c-0.708-0.381-1.552-0.326-2.206,0.136l-4.248,3.132l-5.256-5.255l3.131-4.249
	c0.465-0.654,0.519-1.499,0.137-2.206c-0.789-1.443-1.443-2.996-1.906-4.575c-0.217-0.763-0.871-1.334-1.66-1.471l-5.229-0.79
	v-7.435l5.229-0.79c0.789-0.109,1.443-0.681,1.66-1.471c0.463-1.607,1.09-3.131,1.906-4.575c0.382-0.708,0.328-1.552-0.137-2.206
	l-3.131-4.248l5.256-5.256l4.248,3.132c0.654,0.463,1.498,0.518,2.206,0.136c1.444-0.79,2.995-1.443,4.575-1.906
	c0.762-0.218,1.334-0.872,1.471-1.661l0.789-5.229h7.435l0.79,5.229c0.109,0.789,0.681,1.443,1.471,1.661
	c1.607,0.463,3.131,1.089,4.575,1.906c0.708,0.382,1.552,0.327,2.206-0.136l4.248-3.132c0.789,0.763,2.069,0.763,2.859-0.027
	c0.789-0.79,0.789-2.097,0-2.887l-1.226-1.225c-0.708-0.708-1.852-0.79-2.642-0.19l-4.629,3.404c-0.98-0.49-1.988-0.899-2.996-1.253
	l-0.871-5.691c-0.164-1.007-1.008-1.743-2.016-1.743h-3.432v-5.202c0-1.116-0.926-2.042-2.042-2.042s-2.042,0.926-2.042,2.042v5.202
	h-3.432c-1.008,0-1.879,0.736-2.016,1.743l-0.871,5.691c-1.035,0.354-2.043,0.763-3.023,1.253l-4.629-3.404
	c-0.816-0.599-1.934-0.518-2.642,0.19l-7.733,7.734c-0.709,0.708-0.791,1.852-0.191,2.641l3.404,4.63
	c-0.49,0.98-0.898,1.988-1.252,2.995l-5.691,0.872c-1.009,0.163-1.744,1.007-1.744,2.015v10.947c0,1.008,0.735,1.879,1.744,2.015
	l5.691,0.872c0.354,1.035,0.762,2.042,1.252,2.996l-3.404,4.629c-0.6,0.817-0.518,1.934,0.191,2.642l7.733,7.734
	c0.708,0.708,1.852,0.79,2.642,0.191l4.629-3.405c0.98,0.491,1.988,0.899,3.023,1.253l0.871,5.691
	c0.164,1.008,1.008,1.743,2.016,1.743h10.947c1.008,0,1.879-0.735,2.016-1.743l0.871-5.691c1.035-0.354,2.043-0.762,2.996-1.253
	l4.629,3.405c0.816,0.599,1.934,0.517,2.642-0.191l7.733-7.734c0.709-0.708,0.79-1.852,0.191-2.642l-3.404-4.629
	c0.49-0.98,0.898-1.988,1.253-2.996l5.691-0.872c1.008-0.163,1.743-1.007,1.743-2.015v-10.947
	C161.627,140.323,160.892,139.479,159.911,139.315z"/>
<path fill="#C8C6C6" d="M105.691,79.894c0-0.054,0-0.108-0.027-0.163c-0.027-0.164-0.027-0.328-0.055-0.464
	c0-0.054-0.027-0.108-0.027-0.163c-0.027-0.163-0.055-0.299-0.081-0.463c0-0.054-0.027-0.108-0.027-0.163
	c-0.028-0.164-0.082-0.3-0.108-0.436c-0.028-0.054-0.028-0.109-0.055-0.164c-0.027-0.136-0.082-0.272-0.137-0.408
	c-0.027-0.055-0.055-0.136-0.055-0.191c-0.055-0.136-0.082-0.244-0.137-0.381c-0.027-0.081-0.054-0.136-0.081-0.217
	c-0.054-0.109-0.081-0.218-0.136-0.327c-0.027-0.081-0.082-0.163-0.109-0.245c-0.054-0.109-0.082-0.191-0.137-0.3
	c-0.055-0.082-0.081-0.191-0.135-0.272c-0.055-0.082-0.082-0.163-0.137-0.218c-0.055-0.109-0.109-0.218-0.191-0.299
	c-0.026-0.055-0.055-0.109-0.082-0.136c-0.38-0.599-0.789-1.171-1.279-1.688l-0.027-0.028c-0.108-0.108-0.217-0.218-0.326-0.326
	c-0.027-0.027-0.055-0.082-0.109-0.109c-0.109-0.109-0.19-0.191-0.299-0.3c-0.055-0.054-0.109-0.082-0.137-0.136
	c-0.055-0.027-0.082-0.082-0.136-0.136c-0.028-0.027-0.028-0.027-0.055-0.054c-0.027-0.028-0.054-0.055-0.054-0.055
	c-0.082-0.082-0.191-0.164-0.273-0.218c-0.055-0.027-0.082-0.082-0.135-0.109c-0.056-0.027-0.109-0.082-0.164-0.109l0,0
	c-0.027-0.027-0.055-0.054-0.109-0.082c-0.055-0.028-0.109-0.082-0.163-0.109c-0.082-0.054-0.164-0.108-0.245-0.163l-0.191-0.109
	c-0.082-0.054-0.135-0.081-0.217-0.136c0,0-0.027,0-0.027-0.026c0,0-0.027,0-0.027-0.028l0,0c-0.055-0.027-0.109-0.054-0.164-0.108
	c-0.055-0.028-0.136-0.082-0.19-0.109c-0.026-0.027-0.081-0.027-0.108-0.054c-0.027,0-0.055-0.027-0.082-0.027
	c-0.027-0.028-0.055-0.028-0.082-0.055l-0.136-0.054c-0.027-0.027-0.055-0.027-0.082-0.027c-0.163-0.082-0.326-0.164-0.49-0.218
	c-0.026-0.028-0.081-0.028-0.108-0.055c-0.845-0.354-1.716-0.626-2.642-0.816c-0.027,0-0.055,0-0.082,0
	c-0.19-0.027-0.382-0.055-0.599-0.082c-0.027,0-0.082,0-0.109-0.027c-0.191-0.028-0.381-0.028-0.545-0.055c-0.055,0-0.082,0-0.136,0
	c-0.218,0-0.463-0.027-0.681-0.027c-6.59,0-11.955,5.364-11.955,11.955v0.926v3.867c0,6.59,5.365,11.955,11.955,11.955
	s11.955-5.365,11.955-11.955v-2.914v-1.879c0-0.218,0-0.436-0.027-0.626c0-0.055,0-0.081,0-0.136
	C105.719,80.221,105.719,80.058,105.691,79.894z M94.227,73.304c0.054,0,0.109,0,0.163,0c0.082,0,0.164,0,0.245,0.028
	c0.082,0,0.137,0.027,0.218,0.027s0.136,0.027,0.218,0.027s0.164,0.027,0.219,0.027s0.136,0.027,0.189,0.027
	c0.082,0.027,0.137,0.027,0.219,0.054c0.082,0.027,0.136,0.027,0.218,0.055c0.054,0.027,0.136,0.027,0.19,0.054
	c0.137,0.054,0.271,0.082,0.408,0.136c0.027,0,0.027,0.027,0.055,0.027c0.109,0.054,0.245,0.082,0.354,0.136
	c0.027,0,0.055,0.027,0.082,0.027c0.109,0.055,0.246,0.109,0.354,0.164c0.054,0.027,0.109,0.054,0.163,0.082
	c0.027,0,0.055,0.027,0.081,0.055c0.083,0.054,0.164,0.082,0.245,0.136l0.082,0.055h0.027c0.082,0.054,0.164,0.109,0.246,0.164l0,0
	c0.027,0.027,0.054,0.027,0.081,0.054c0.082,0.055,0.136,0.109,0.218,0.164c0.027,0.026,0.055,0.054,0.082,0.054
	c0.081,0.054,0.136,0.108,0.218,0.163c0.027,0.027,0.054,0.055,0.081,0.082c0.055,0.055,0.109,0.082,0.164,0.136
	s0.109,0.082,0.137,0.137c0.054,0.054,0.107,0.082,0.135,0.135c0.027,0.028,0.082,0.082,0.109,0.109
	c0.055,0.055,0.109,0.109,0.164,0.164c0.027,0.027,0.082,0.082,0.108,0.109c0.054,0.054,0.109,0.109,0.163,0.164
	c0.027,0.027,0.055,0.081,0.082,0.108c0.055,0.055,0.109,0.109,0.137,0.19c0.026,0.028,0.055,0.082,0.082,0.109
	c0.054,0.055,0.08,0.136,0.136,0.191c0.026,0.054,0.054,0.082,0.081,0.136c0.027,0.054,0.082,0.108,0.109,0.19
	c0.027,0.054,0.054,0.082,0.082,0.136c0.027,0.054,0.055,0.109,0.08,0.164c0.028,0.055,0.056,0.109,0.082,0.164
	c0.027,0.054,0.055,0.108,0.082,0.136c0.027,0.054,0.055,0.136,0.109,0.19c0.027,0.027,0.027,0.082,0.055,0.109
	c0.027,0.082,0.082,0.164,0.108,0.218c0,0.028,0.027,0.055,0.027,0.082c0.028,0.083,0.082,0.164,0.108,0.272
	c0,0.027,0,0.027,0.027,0.054c0.191,0.518,0.301,1.063,0.382,1.607c0,0.054,0,0.108,0.027,0.136c-0.98-0.518-1.852-1.28-2.478-2.26
	c-0.354-0.544-0.926-0.872-1.553-0.926s-1.253,0.19-1.688,0.681c-1.853,2.069-4.521,3.241-7.271,3.241
	c-0.926,0-1.825-0.136-2.725-0.381c0-0.054,0-0.109,0-0.163c0-0.055,0-0.136,0.027-0.19c0-0.082,0.027-0.136,0.027-0.218
	c0-0.055,0.027-0.109,0.027-0.191c0-0.082,0.027-0.136,0.027-0.218c0-0.054,0.027-0.109,0.027-0.163
	c0.027-0.082,0.027-0.137,0.055-0.218c0-0.055,0.027-0.109,0.027-0.164c0.027-0.082,0.055-0.136,0.055-0.218
	c0.027-0.054,0.027-0.109,0.054-0.136c0.028-0.082,0.055-0.19,0.082-0.272c0-0.027,0.027-0.054,0.027-0.082
	c0.055-0.108,0.081-0.245,0.136-0.354c0.027-0.027,0.027-0.082,0.055-0.109c0.027-0.082,0.055-0.164,0.108-0.218
	c0.028-0.054,0.055-0.082,0.083-0.136c0.026-0.055,0.054-0.136,0.107-0.191c0.027-0.054,0.055-0.082,0.082-0.136
	c0.027-0.055,0.082-0.109,0.109-0.191c0.027-0.054,0.055-0.081,0.082-0.136s0.081-0.109,0.108-0.163
	c0.028-0.054,0.055-0.082,0.108-0.136c0.027-0.054,0.082-0.109,0.109-0.164c0.027-0.055,0.082-0.082,0.109-0.136
	c0.055-0.054,0.082-0.108,0.136-0.164c0.028-0.054,0.082-0.081,0.109-0.136c0.055-0.055,0.082-0.109,0.136-0.164
	c0.027-0.054,0.082-0.082,0.109-0.136c0.055-0.054,0.082-0.109,0.136-0.136c0.027-0.055,0.082-0.082,0.136-0.136
	c0.055-0.055,0.082-0.082,0.137-0.136c0.055-0.027,0.082-0.082,0.137-0.109c0.055-0.054,0.109-0.082,0.136-0.136
	c0.055-0.027,0.081-0.082,0.136-0.108c0.055-0.055,0.109-0.082,0.164-0.109c0.055-0.027,0.082-0.081,0.136-0.109
	c0.055-0.027,0.109-0.082,0.163-0.109c0.055-0.027,0.109-0.054,0.137-0.109c0.055-0.027,0.109-0.082,0.163-0.108
	c0.055-0.028,0.109-0.055,0.163-0.082c0.055-0.027,0.109-0.054,0.164-0.109c0.055-0.027,0.109-0.054,0.162-0.082
	c0.055-0.026,0.109-0.054,0.191-0.081c0.055-0.027,0.109-0.054,0.164-0.082c0.055-0.027,0.109-0.055,0.189-0.082
	c0.055-0.028,0.109-0.055,0.164-0.082c0.055-0.027,0.137-0.054,0.191-0.082c0.055-0.027,0.108-0.054,0.163-0.054
	c0.054-0.027,0.136-0.054,0.19-0.054c0.055-0.028,0.109-0.028,0.164-0.055c0.053-0.027,0.135-0.027,0.189-0.054
	c0.055-0.028,0.109-0.028,0.164-0.055c0.082-0.027,0.136-0.027,0.218-0.054c0.054,0,0.108-0.027,0.163-0.027
	c0.082-0.027,0.137-0.027,0.218-0.027c0.055,0,0.109-0.027,0.164-0.027c0.081,0,0.163-0.027,0.244-0.027
	c0.055,0,0.109-0.027,0.164-0.027c0.081,0,0.163-0.027,0.272-0.027c0.055,0,0.082,0,0.136,0c0.136,0,0.272,0,0.409,0
	C93.953,73.277,94.09,73.277,94.227,73.304z M93.791,93.81c-4.33,0-7.871-3.541-7.871-7.87v-1.089
	c0.898,0.19,1.798,0.272,2.724,0.272c3.132,0,6.155-1.062,8.606-2.996c1.252,1.198,2.75,2.097,4.41,2.56v1.226
	C101.66,90.27,98.148,93.81,93.791,93.81z"/>
<path fill="#C8C6C6" d="M110.512,111.484c-0.545-4.738-3.813-8.796-8.307-10.375c-0.054-0.027-0.108-0.054-0.163-0.054
	c-0.136-0.055-0.3-0.082-0.436-0.136c-0.027,0-0.027,0-0.054-0.027c-0.028,0-0.056-0.028-0.082-0.028l-0.382-0.109
	c-0.136-0.026-0.3-0.082-0.437-0.108c-0.026,0-0.054,0-0.08-0.027c-0.164-0.027-0.328-0.054-0.464-0.082
	c-0.136-0.026-0.299-0.054-0.463-0.082h-0.081c-0.164-0.027-0.327-0.027-0.491-0.054c-0.136,0-0.244-0.027-0.38-0.027
	c-0.055,0-0.137,0-0.191,0c-0.137,0-0.3,0-0.436,0h-8.47c-0.136,0-0.299,0-0.436,0c-0.055,0-0.136,0-0.218,0
	c-0.137,0-0.245,0.027-0.381,0.027c-0.164,0-0.327,0.027-0.49,0.054H87.99c-0.164,0.028-0.3,0.055-0.463,0.082
	c-0.164,0.028-0.327,0.055-0.463,0.082c-0.027,0-0.055,0-0.082,0.027c-0.136,0.027-0.3,0.055-0.463,0.108l-0.354,0.083
	c-0.027,0-0.055,0.026-0.082,0.026s-0.027,0-0.055,0.028c-0.137,0.054-0.299,0.082-0.436,0.136
	c-0.055,0.027-0.109,0.054-0.164,0.054c-4.52,1.579-7.761,5.637-8.332,10.376c-0.082,0.763,0.244,1.498,0.871,1.933
	c4.684,3.187,10.157,4.848,15.822,4.848c5.664,0,11.138-1.688,15.822-4.848C110.266,112.982,110.593,112.247,110.512,111.484z
	 M93.791,114.18c-4.412,0-8.688-1.17-12.418-3.431c0.734-2.696,2.777-4.929,5.5-5.828c0.055-0.027,0.082-0.027,0.137-0.054
	c0.055-0.027,0.109-0.027,0.164-0.055c0.026,0,0.026,0,0.053-0.027c0,0,0,0,0.028,0l0.272-0.082
	c0.108-0.028,0.218-0.054,0.299-0.082c0.027,0,0.055,0,0.055-0.027c0.082-0.027,0.191-0.027,0.272-0.055h0.028
	c0.08-0.027,0.189-0.027,0.299-0.054h0.027c0.108,0,0.218-0.027,0.326-0.027c0.082,0,0.19-0.027,0.272-0.027h0.054
	c0.028,0,0.056,0,0.082,0c0.082,0,0.191,0,0.301,0h8.469c0.108,0,0.19,0,0.299,0c0.027,0,0.055,0,0.082,0h0.055
	c0.082,0,0.191,0,0.272,0.027c0.108,0,0.218,0.027,0.354,0.027h0.028c0.081,0,0.189,0.027,0.271,0.054H99.4
	c0.082,0.027,0.191,0.027,0.272,0.055c0.026,0,0.054,0,0.054,0.027c0.109,0.027,0.219,0.054,0.301,0.054l0.299,0.083l0,0
	c0.027,0,0.027,0,0.055,0.027c0.055,0.027,0.109,0.027,0.163,0.054c0.054,0.028,0.082,0.028,0.136,0.055
	c2.697,0.898,4.766,3.132,5.502,5.828C102.478,113.009,98.202,114.18,93.791,114.18z"/>
<path fill="#C8C6C6" d="M117.348,75.128c-1.117,0-2.043,0.926-2.043,2.042c0,1.117,0.926,2.043,2.043,2.043h21.539
	c0.898,3.022,3.677,5.256,7,5.256c4.029,0,7.298-3.268,7.298-7.299c0-4.03-3.269-7.297-7.298-7.297c-3.323,0-6.102,2.206-7,5.255
	H117.348z M145.859,73.958c1.77,0,3.213,1.443,3.213,3.214c0,1.77-1.443,3.213-3.213,3.213c-1.771,0-3.214-1.443-3.214-3.213
	C142.646,75.401,144.088,73.958,145.859,73.958z"/>
<path fill="#3F77BC" d="M115.305,101.108c0,1.117,0.926,2.043,2.043,2.043h21.539c0.898,3.022,3.677,5.255,7,5.255
	c4.029,0,7.298-3.268,7.298-7.298c0-4.031-3.269-7.298-7.298-7.298c-3.323,0-6.102,2.206-7,5.255h-21.539
	C116.203,99.065,115.305,99.964,115.305,101.108z M145.859,97.895c1.77,0,3.213,1.443,3.213,3.213c0,1.77-1.443,3.213-3.213,3.213
	c-1.771,0-3.214-1.443-3.214-3.213C142.646,99.338,144.088,97.895,145.859,97.895z"/>
</svg>
