<?xml version="1.0" encoding="utf-8"?>
<!-- Generator: Adobe Illustrator 16.0.0, SVG Export Plug-In . SVG Version: 6.00 Build 0)  -->
<!DOCTYPE svg PUBLIC "-//W3C//DTD SVG 1.1//EN" "http://www.w3.org/Graphics/SVG/1.1/DTD/svg11.dtd">
<svg version="1.1" id="Layer_1" xmlns="http://www.w3.org/2000/svg" xmlns:xlink="http://www.w3.org/1999/xlink" x="0px" y="0px"
	 width="200px" height="200px" viewBox="0 0 200 200" enable-background="new 0 0 200 200" xml:space="preserve">
<path fill="#C8C6C6" d="M154.456,55.856l-24.781-24.781c-0.518-0.518-1.197-0.79-1.933-0.79H46.86c-4.493,0-8.169,3.676-8.169,8.17
	v5.201c-13.372,5.256-22.876,18.3-22.876,33.496c0,1.498,1.226,2.724,2.724,2.724H51.79c1.497,0,2.724-1.226,2.724-2.724V43.9
	c0-1.498-1.227-2.723-2.724-2.723c-2.614,0-5.174,0.272-7.652,0.817v-3.54c0-1.498,1.226-2.724,2.723-2.724h78.158v16.612
	c0,4.493,3.676,8.169,8.169,8.169H149.8v101.032c0,1.498-1.226,2.724-2.723,2.724H46.86c-1.497,0-2.723-1.226-2.723-2.724v-23.338
	c0-1.498-1.227-2.723-2.723-2.723c-1.498,0-2.724,1.226-2.724,2.723v23.338c0,4.493,3.676,8.17,8.169,8.17h100.217
	c4.492,0,8.169-3.677,8.169-8.17V57.79C155.246,57.055,154.946,56.373,154.456,55.856z M49.067,46.733v27.667H21.399
	C22.679,59.75,34.388,48.04,49.067,46.733z M133.188,55.066c-1.497,0-2.723-1.225-2.723-2.723V39.571l15.494,15.495H133.188z"/>
<path fill="#C8C6C6" d="M43.348,126.388c-0.518-0.518-1.197-0.79-1.933-0.79c-0.736,0-1.417,0.299-1.934,0.79
	c-0.518,0.517-0.79,1.198-0.79,1.934c0,0.735,0.3,1.416,0.79,1.933c0.517,0.518,1.197,0.79,1.934,0.79
	c0.735,0,1.415-0.299,1.933-0.79c0.518-0.518,0.79-1.198,0.79-1.933C44.138,127.586,43.839,126.905,43.348,126.388z"/>
<path fill="#C8C6C6" d="M61.539,50.927c-1.498,0-2.723,1.226-2.723,2.724v30.527H28.288c-1.497,0-2.724,1.225-2.724,2.723
	c0,19.825,16.149,35.974,35.975,35.974s35.974-16.148,35.974-35.974S81.364,50.927,61.539,50.927z M64.263,56.509
	c6.371,0.572,12.199,3.105,16.83,6.999l-16.83,16.83V56.509z M61.539,117.428c-15.903,0-29.03-12.228-30.392-27.804h30.392
	c0.762,0,1.443-0.299,1.935-0.79l0,0l21.485-21.486c4.438,5.31,7.107,12.118,7.107,19.553
	C92.066,103.73,78.37,117.428,61.539,117.428z"/>
<path fill="#3F77BC" d="M135.122,116.23c-4.493,0-8.17,3.677-8.17,8.17c0,1.117,0.218,2.206,0.652,3.186l-15.686,15.686
	c-1.09-0.518-2.287-0.817-3.568-0.817c-1.252,0-2.422,0.272-3.484,0.79l-10.431-10.43c0.354-0.926,0.572-1.934,0.572-2.968
	c0-4.494-3.677-8.17-8.17-8.17c-4.492,0-8.169,3.676-8.169,8.17c0,1.225,0.272,2.369,0.762,3.431l-9.994,9.994
	c-1.063-0.518-2.261-0.79-3.513-0.79c-4.493,0-8.17,3.676-8.17,8.169s3.677,8.17,8.17,8.17s8.169-3.677,8.169-8.17
	c0-1.252-0.3-2.451-0.79-3.541l9.941-9.939c1.089,0.544,2.313,0.845,3.621,0.845c1.472,0,2.832-0.382,4.031-1.063l10.13,10.131
	c-0.519,1.062-0.816,2.287-0.816,3.54c0,4.493,3.676,8.17,8.169,8.17c4.494,0,8.17-3.677,8.17-8.17c0-1.253-0.272-2.424-0.79-3.486
	l15.55-15.55c1.145,0.626,2.452,0.954,3.84,0.954c4.493,0,8.169-3.676,8.169-8.169C143.317,119.879,139.614,116.23,135.122,116.23z
	 M65.897,153.348c-1.499,0-2.724-1.226-2.724-2.723c0-1.498,1.225-2.724,2.724-2.724c0.734,0,1.388,0.3,1.878,0.763l0.027,0.027
	l0.027,0.027c0.463,0.49,0.763,1.144,0.763,1.879C68.62,152.15,67.394,153.348,65.897,153.348z M86.812,132.57
	c-1.498,0-2.724-1.226-2.724-2.723c0-1.498,1.226-2.724,2.724-2.724c1.497,0,2.724,1.226,2.724,2.724
	C89.535,131.344,88.309,132.57,86.812,132.57z M108.324,153.348c-1.497,0-2.723-1.226-2.723-2.723c0-1.498,1.226-2.724,2.723-2.724
	c1.498,0,2.724,1.226,2.724,2.724C111.048,152.123,109.85,153.348,108.324,153.348z M135.122,127.123
	c-1.499,0-2.725-1.226-2.725-2.723s1.226-2.723,2.725-2.723c1.496,0,2.723,1.226,2.723,2.723S136.618,127.123,135.122,127.123z"/>
<path fill="#C8C6C6" d="M121.505,94.281h-14.378c-1.499,0-2.725,1.225-2.725,2.724c0,1.498,1.226,2.723,2.725,2.723h14.378
	c1.498,0,2.724-1.225,2.724-2.723C124.229,95.506,123.003,94.281,121.505,94.281z"/>
<path fill="#3F77BC" d="M135.829,95.071c-0.518-0.518-1.198-0.79-1.934-0.79s-1.416,0.3-1.933,0.79
	c-0.518,0.517-0.79,1.198-0.79,1.934c0,0.735,0.299,1.416,0.79,1.933c0.517,0.518,1.197,0.79,1.933,0.79
	c0.709,0,1.416-0.299,1.934-0.79c0.517-0.518,0.789-1.198,0.789-1.933C136.618,96.269,136.346,95.588,135.829,95.071z"/>
<path fill="#3F77BC" d="M140.404,68.138h-33.277c-1.498,0-2.725,1.226-2.725,2.723c0,1.498,1.227,2.723,2.725,2.723h33.277
	c1.497,0,2.724-1.225,2.724-2.723C143.128,69.363,141.901,68.138,140.404,68.138z"/>
<path fill="#C8C6C6" d="M140.404,81.209h-33.277c-1.498,0-2.725,1.225-2.725,2.724c0,1.498,1.227,2.723,2.725,2.723h33.277
	c1.497,0,2.724-1.225,2.724-2.723C143.128,82.435,141.901,81.209,140.404,81.209z"/>
</svg>
