<?xml version="1.0" encoding="utf-8"?>
<!-- Generator: Adobe Illustrator 16.0.0, SVG Export Plug-In . SVG Version: 6.00 Build 0)  -->
<!DOCTYPE svg PUBLIC "-//W3C//DTD SVG 1.1//EN" "http://www.w3.org/Graphics/SVG/1.1/DTD/svg11.dtd">
<svg version="1.1" id="Layer_1" xmlns="http://www.w3.org/2000/svg" xmlns:xlink="http://www.w3.org/1999/xlink" x="0px" y="0px"
	 width="200px" height="200px" viewBox="0 0 200 200" enable-background="new 0 0 200 200" xml:space="preserve">
<path fill="#3F77BC" d="M134.31,137.471l-71.23-71.23c-4.255-4.256-11.148-4.254-15.404,0.001
	c-4.256,4.256-4.256,11.149-0.001,15.403l71.23,71.23l23.106,7.701L134.31,137.471z M56.918,84.727l-6.163-6.162
	c-2.541-2.541-2.54-6.7,0.001-9.242c2.542-2.542,6.701-2.542,9.242-0.001l6.162,6.162L56.918,84.727z M126.239,141.725
	L72.323,87.808l-3.081,3.081l53.916,53.916l-3.081,3.082L59.999,87.808l3.08-3.081l3.081,3.08l3.081-3.08l-3.08-3.081l3.08-3.081
	l60.079,60.078L126.239,141.725z M131.459,142.668l3.658,11.016l-11.015-3.659L131.459,142.668z"/>
<path fill="#C8C6C6" d="M157.487,58.297l-24.781-24.781c-0.518-0.518-1.197-0.789-1.933-0.789H49.892
	c-4.455,0-8.102,3.614-8.163,8.057h-0.006v0.113v1.479v12.468c0,1.498,1.227,2.724,2.723,2.724c1.498,0,2.724-1.226,2.724-2.724
	V42.375v-1.479c0-1.498,1.226-2.725,2.723-2.725h78.158v16.613c0,4.492,3.676,8.169,8.169,8.169h16.612v101.032
	c0,1.498-1.226,2.724-2.723,2.724H49.892c-1.497,0-2.723-1.226-2.723-2.724v-9.278v-14.06c0-1.498-1.227-2.724-2.723-2.724
	c-1.498,0-2.724,1.226-2.724,2.724v14.06v9.278c0,4.493,3.676,8.17,8.169,8.17h100.217c4.492,0,8.169-3.677,8.169-8.17V60.23
	C158.277,59.496,157.978,58.814,157.487,58.297z M136.219,57.508c-1.497,0-2.723-1.226-2.723-2.723V42.012l15.494,15.496H136.219z"
	/>
<g>
	<line fill="#C8C6C6" x1="75.667" y1="70.984" x2="128.667" y2="70.984"/>
</g>
<g>
	<line fill="#C8C6C6" x1="88" y1="82.484" x2="128.667" y2="82.484"/>
</g>
<g>
	<line fill="#C8C6C6" x1="97.833" y1="94.984" x2="128.667" y2="94.984"/>
</g>
</svg>
