<?xml version="1.0" encoding="utf-8"?>
<!-- Generator: Adobe Illustrator 16.0.0, SVG Export Plug-In . SVG Version: 6.00 Build 0)  -->
<!DOCTYPE svg PUBLIC "-//W3C//DTD SVG 1.1//EN" "http://www.w3.org/Graphics/SVG/1.1/DTD/svg11.dtd">
<svg version="1.1" id="Layer_1" xmlns="http://www.w3.org/2000/svg" xmlns:xlink="http://www.w3.org/1999/xlink" x="0px" y="0px"
	 width="200px" height="200px" viewBox="0 0 200 200" enable-background="new 0 0 200 200" xml:space="preserve">
<path fill="#3F77BC" d="M118.355,113.208c11.438-4.656,18.845-15.848,18.681-28.185c0-16.966-14.65-30.773-32.678-30.773
	c-18.028,0-32.679,13.807-32.679,30.773c-0.192,12.337,7.243,23.529,18.681,28.185l0.246,0.137l1.742,2.832
	c-3.077,1.797-4.14,5.746-2.342,8.823c0.245,0.409,0.518,0.79,0.844,1.145c-2.424,2.668-2.232,6.78,0.409,9.205
	c1.197,1.089,2.777,1.715,4.411,1.688h17.428c3.596,0.028,6.51-2.886,6.537-6.481c0-1.634-0.599-3.213-1.688-4.411
	c2.423-2.642,2.232-6.727-0.382-9.124c-0.354-0.326-0.734-0.599-1.144-0.844l1.744-2.832L118.355,113.208z M113.045,132.68H95.617
	c-1.198,0-2.18-0.981-2.18-2.179c0-1.199,0.981-2.179,2.18-2.179h17.428c1.198,0,2.18,0.98,2.18,2.179
	C115.225,131.699,114.243,132.68,113.045,132.68z M113.045,123.965H95.617c-1.198,0-2.18-0.98-2.18-2.179
	c0-1.198,0.981-2.179,2.18-2.179h17.428c1.198,0,2.18,0.981,2.18,2.179C115.225,122.985,114.243,123.965,113.045,123.965z
	 M116.368,109.341l-0.873,0.463c-0.326,0.192-0.625,0.464-0.816,0.79l-2.858,4.684h-0.954v-16.53l10.268-10.267l-3.077-3.077
	l-10.894,10.893c-0.408,0.408-0.627,0.953-0.627,1.551v17.429h-4.356V97.849c0-0.572-0.218-1.143-0.626-1.551L90.659,85.404
	l-3.076,3.077l10.266,10.267v16.53h-0.952l-2.859-4.684c-0.19-0.326-0.491-0.598-0.817-0.79l-0.871-0.463
	c-0.082-0.027-0.136-0.081-0.218-0.108c-9.858-3.976-16.23-13.589-16.068-24.21c0-14.569,12.717-26.416,28.323-26.416
	c15.604,0,28.321,11.847,28.321,26.416c0.164,10.621-6.236,20.234-16.066,24.21C116.503,109.26,116.449,109.287,116.368,109.341z"/>
<rect x="62.941" y="52.401" transform="matrix(-0.4476 0.8942 -0.8942 -0.4476 147.6631 28.2034)" fill="#C8C6C6" width="4.357" height="14.622"/>
<rect x="135.833" y="57.516" transform="matrix(-0.9486 0.3164 -0.3164 -0.9486 297.8233 71.0354)" fill="#C8C6C6" width="14.623" height="4.357"/>
<rect x="49.866" y="82.572" fill="#C8C6C6" width="13.071" height="4.357"/>
<rect x="145.725" y="82.572" fill="#C8C6C6" width="13.07" height="4.357"/>
<rect x="57.813" y="111.977" transform="matrix(-0.8944 0.4472 -0.4472 -0.8944 174.4278 187.1319)" fill="#C8C6C6" width="14.623" height="4.357"/>
<rect x="141.364" y="106.869" transform="matrix(-0.4473 0.8944 -0.8944 -0.4473 309.8741 36.8798)" fill="#C8C6C6" width="4.357" height="14.623"/>
<rect x="102.151" y="39" fill="#C8C6C6" width="4.358" height="10.893"/>
<path fill="#C8C6C6" d="M167.511,141.394v-4.357c-28.431,0-58.632,6.863-58.823,19.608h-8.714
	c-0.19-12.745-30.391-19.608-58.823-19.608v4.357c31.917,0,54.194,8.007,54.466,15.25H41.151V161h126.36v-4.356h-54.466
	C113.317,149.4,135.594,141.394,167.511,141.394z"/>
<rect x="59.663" y="130.495" transform="matrix(-0.0526 0.9986 -0.9986 -0.0526 216.1017 97.4112)" fill="#C8C6C6" width="4.357" height="41.448"/>
<rect x="126.089" y="149.018" transform="matrix(-0.9986 0.0527 -0.0527 -0.9986 301.3901 294.4448)" fill="#C8C6C6" width="41.447" height="4.357"/>
</svg>
