<?xml version="1.0" encoding="utf-8"?>
<!-- Generator: Adobe Illustrator 16.0.0, SVG Export Plug-In . SVG Version: 6.00 Build 0)  -->
<!DOCTYPE svg PUBLIC "-//W3C//DTD SVG 1.1//EN" "http://www.w3.org/Graphics/SVG/1.1/DTD/svg11.dtd">
<svg version="1.1" id="Layer_1" xmlns="http://www.w3.org/2000/svg" xmlns:xlink="http://www.w3.org/1999/xlink" x="0px" y="0px"
	 width="200px" height="200px" viewBox="0 0 200 200" enable-background="new 0 0 200 200" xml:space="preserve">
<path fill="#FFFFFF" d="M71.08,124.152c1.307-0.762,1.742-2.424,1.007-3.73c-0.763-1.308-2.424-1.742-3.731-1.007
	c-1.306,0.762-1.742,2.423-1.007,3.729C68.111,124.479,69.772,124.915,71.08,124.152z"/>
<path fill="#E8E8E8" d="M59.914,142.971l13.725,23.747c2.969,5.119,9.613,7.025,14.869,3.976c5.201-3.022,6.999-9.668,3.977-14.868
	l-8.171-14.16l7.081-4.086c1.307-0.763,1.742-2.425,1.008-3.731l-3.539-6.127c0.434-0.08,3.185-0.626,52.15-10.238
	c6.045-0.328,9.666-6.943,6.615-12.228l-9.04-15.687l5.772-8.769c0.572-0.871,0.6-1.961,0.082-2.859l-5.446-9.422
	c-0.517-0.898-1.497-1.416-2.533-1.361l-10.483,0.625l-10.049-17.4c-1.443-2.533-4.059-4.059-6.972-4.085c-0.026,0-0.081,0-0.11,0
	c-2.804,0-5.363,1.388-6.888,3.758L66.423,95.396L43.302,108.74c-9.095,5.256-12.255,16.91-6.972,26.033
	C41.15,143.134,51.281,146.402,59.914,142.971z M87.771,158.548c1.499,2.614,0.627,5.937-1.987,7.435
	c-2.614,1.525-5.964,0.572-7.435-1.988l-13.615-23.582l9.422-5.446C89.923,162.251,87.527,158.111,87.771,158.548z M81.592,136.952
	l-2.725-4.711l4.711-2.724l2.724,4.711L81.592,136.952z M135.13,72.711l3.759,6.509l-3.35,5.091l-6.482-11.246L135.13,72.711z
	 M106.563,53.076c0.735-1.197,1.879-1.308,2.369-1.308c0.463,0,1.633,0.164,2.314,1.361l31.671,54.874
	c1.035,1.797-0.219,4.031-2.287,4.085c-0.382,0-0.545,0.081-1.498,0.246l-33.495-58.032
	C106.318,53.376,106.428,53.294,106.563,53.076z M102.016,58.904l31.48,54.52l-47.52,9.313L71.542,97.71L102.016,58.904z
	 M41.042,132.078c-1.199-2.07-1.825-4.412-1.825-6.782c0-4.847,2.615-9.366,6.809-11.817l21.214-12.254l13.615,23.582
	l-21.213,12.254C53.133,140.792,44.8,138.559,41.042,132.078z"/>
<path fill="#FFFFFF" d="M62.637,125.896c-0.762-1.309-2.424-1.744-3.73-1.008l-4.712,2.723c-1.307,0.763-2.968,0.299-3.73-1.008
	c-0.763-1.309-2.423-1.744-3.73-1.008c-1.307,0.735-1.742,2.424-1.008,3.729c2.233,3.896,7.244,5.257,11.165,2.997l4.712-2.725
	C62.937,128.864,63.373,127.202,62.637,125.896z"/>
<path fill="#FFFFFF" d="M169.145,52.123l-15.17,8.442c-1.307,0.735-1.797,2.396-1.063,3.704c0.734,1.307,2.396,1.797,3.705,1.062
	l15.168-8.442c1.307-0.735,1.797-2.396,1.063-3.704C172.139,51.879,170.479,51.415,169.145,52.123z"/>
<path fill="#FFFFFF" d="M167.564,80.335l-10.514-2.831c-1.443-0.381-2.939,0.462-3.35,1.934c-0.409,1.469,0.463,2.94,1.934,3.322
	l10.512,2.832c1.472,0.381,2.942-0.49,3.324-1.934C169.879,82.214,169.006,80.717,167.564,80.335z"/>
<path fill="#FFFFFF" d="M141.121,42.237l-2.833,10.512c-0.38,1.443,0.463,2.94,1.935,3.351c1.443,0.381,2.941-0.464,3.351-1.934
	l2.833-10.512c0.38-1.443-0.465-2.941-1.936-3.35C143.001,39.922,141.502,40.795,141.121,42.237z"/>
<rect x="-113.75" y="62.25" fill="#191D63" width="25.25" height="11.75"/>
<rect x="-88.5" y="62.25" fill="#474A82" width="25.25" height="11.75"/>
<rect x="-63.25" y="62.25" fill="#7578A1" width="25.25" height="11.75"/>
<rect x="-38" y="62.25" fill="#A3A5C1" width="25.25" height="11.75"/>
<rect x="-113.75" y="79.807" fill="#243C96" width="25.25" height="11.75"/>
<rect x="-88.5" y="79.807" fill="#3A4FA1" width="25.25" height="11.75"/>
<rect x="-63.25" y="79.807" fill="#5063AB" width="25.25" height="11.75"/>
<rect x="-38" y="79.807" fill="#BDC4E0" width="25.25" height="11.75"/>
<rect x="-113.75" y="97.363" fill="#58B947" width="25.25" height="11.75"/>
<rect x="-88.5" y="97.363" fill="#68C05A" width="25.25" height="11.75"/>
<rect x="-63.25" y="97.363" fill="#79C76C" width="25.25" height="11.75"/>
<rect x="-38" y="97.363" fill="#8ACE7E" width="25.25" height="11.75"/>
<rect x="-113.75" y="114.92" fill="#15156D" width="25.25" height="11.75"/>
<rect x="-88.5" y="114.92" fill="#1F1F91" width="25.25" height="11.75"/>
<rect x="-63.25" y="114.92" fill="#1F1F91" width="25.25" height="11.75"/>
<rect x="-38" y="114.92" fill="#1F1F91" width="25.25" height="11.75"/>
</svg>
