<?xml version="1.0" encoding="utf-8"?>
<!-- Generator: Adobe Illustrator 16.0.0, SVG Export Plug-In . SVG Version: 6.00 Build 0)  -->
<!DOCTYPE svg PUBLIC "-//W3C//DTD SVG 1.1//EN" "http://www.w3.org/Graphics/SVG/1.1/DTD/svg11.dtd">
<svg version="1.1" id="Layer_1" xmlns="http://www.w3.org/2000/svg" xmlns:xlink="http://www.w3.org/1999/xlink" x="0px" y="0px"
	 width="200px" height="200px" viewBox="0 0 200 200" enable-background="new 0 0 200 200" xml:space="preserve">
<path fill="#C8C6C6" d="M104.52,54.523c-19.307,0-36,12.418-41.557,30.937l-1.579,5.228c-1.661,5.528-4.684,10.622-8.769,14.706
	l-2.097,2.098c-0.407,0.408-0.626,0.952-0.626,1.525c0,0.571,0.219,1.143,0.626,1.552c6.618,6.563,10.267,15.359,10.267,24.727
	c0,7.136,5.8,12.908,12.908,12.908c3.322,0,6.59-0.817,9.504-2.396l3.705-1.989v17.456c0,1.198,0.979,2.179,2.178,2.179h37.035
	c1.199,0,2.18-0.98,2.18-2.179v-16.013c0-7.352,2.859-14.27,8.061-19.472c7.461-7.434,11.574-17.347,11.574-27.858
	C147.93,73.995,128.459,54.523,104.52,54.523z M115.25,159.097H91.285V141.45l16.285-8.77l-2.07-3.841l-24.346,13.1
	c-2.287,1.226-4.846,1.879-7.461,1.879c-4.711,0-8.551-3.839-8.551-8.551c0-9.776-3.541-19.035-10.022-26.251l0.601-0.6
	c4.602-4.602,8.006-10.295,9.857-16.53l1.578-5.229c4.957-16.585,19.99-27.777,37.363-27.777c3.732,0,7.299,0.544,10.73,1.525
	v13.725h-2.588l-2.014,5.392l-5.23-2.37l-6.779,6.728l2.369,5.228l-5.393,2.016v9.558l5.393,2.015l-2.369,5.229l6.754,6.754
	l5.229-2.369l2.014,5.392h2.588v41.395H115.25z M115.658,113.346l-1.797-4.82l-0.926-0.354c-0.328-0.108-0.654-0.245-0.98-0.408
	l-0.898-0.408l-4.684,2.124l-2.479-2.478l2.123-4.685l-0.408-0.899c-0.137-0.326-0.271-0.652-0.408-0.979l-0.354-0.926l-4.82-1.797
	v-3.514l4.82-1.797l0.354-0.926c0.109-0.327,0.244-0.653,0.408-0.979l0.408-0.9l-2.123-4.684l2.479-2.478l4.684,2.124l0.898-0.408
	c0.326-0.136,0.652-0.272,0.98-0.409l0.926-0.354l1.797-4.82h3.514l1.797,4.82l0.926,0.354c0.326,0.11,0.654,0.245,0.98,0.409
	l0.898,0.408l4.686-2.124l2.477,2.478l-2.123,4.684l0.406,0.9c0.137,0.326,0.273,0.652,0.41,0.979l0.354,0.926l4.822,1.797v3.514
	l-4.822,1.797l-0.354,0.926c-0.109,0.327-0.246,0.653-0.41,0.979l-0.406,0.899l2.123,4.685l-2.477,2.478l-4.686-2.124l-0.898,0.408
	c-0.326,0.137-0.654,0.272-0.98,0.408l-0.926,0.354l-1.797,4.82H115.658z M133.305,122.713c-6.018,6.019-9.34,14.026-9.34,22.549
	v13.835h-4.357v-41.395h2.586l2.016-5.392l5.229,2.369l6.754-6.754l-2.369-5.229l5.393-2.015v-9.558l-5.393-2.016l2.369-5.228
	l-6.727-6.754l-5.229,2.37l-2.016-5.393h-2.613V61.876c14.053,5.909,23.963,19.826,23.963,36
	C143.57,107.3,139.924,116.096,133.305,122.713z"/>
<path fill="#3F77BC" d="M144.09,28.38H43.356c-6.019,0-10.893,4.875-10.893,10.893c0,6.019,4.874,10.893,10.893,10.893H144.09
	l21.785-10.893L144.09,28.38z M52.07,45.809h-8.714c-3.595,0-6.537-2.94-6.537-6.536c0-3.594,2.942-6.535,6.537-6.535h8.714V45.809z
	 M141.393,37.095h-76.25v4.357h76.25v4.357H56.428v-4.357h4.357v-4.357h-4.357v-4.357h84.965V37.095z M145.75,34.072l10.375,5.201
	l-10.375,5.202V34.072z"/>
<path fill="#3F77BC" d="M117.428,87.203c-4.793,0-8.713,3.922-8.713,8.714c0,4.793,3.92,8.715,8.713,8.715s8.715-3.922,8.715-8.715
	C126.143,91.125,122.221,87.203,117.428,87.203z M117.428,100.273c-2.396,0-4.357-1.96-4.357-4.356s1.961-4.357,4.357-4.357
	c2.398,0,4.357,1.961,4.357,4.357S119.826,100.273,117.428,100.273z"/>
<path fill="#3F77BC" d="M161,150.381c-3.596,0-6.535,2.941-6.535,6.536s2.939,6.536,6.535,6.536c3.594,0,6.535-2.941,6.535-6.536
	S164.594,150.381,161,150.381z M161,159.097c-1.197,0-2.18-0.98-2.18-2.18c0-1.198,0.982-2.178,2.18-2.178
	c1.199,0,2.18,0.979,2.18,2.178C163.18,158.116,162.199,159.097,161,159.097z"/>
<path fill="#3F77BC" d="M39,111.168c-3.596,0-6.536,2.939-6.536,6.534s2.94,6.536,6.536,6.536c3.594,0,6.535-2.941,6.535-6.536
	S42.594,111.168,39,111.168z M39,119.882c-1.199,0-2.181-0.98-2.181-2.18c0-1.197,0.981-2.179,2.181-2.179
	c1.197,0,2.178,0.981,2.178,2.179C41.178,118.901,40.197,119.882,39,119.882z"/>
<rect x="36.819" y="132.952" fill="#3F77BC" width="4.358" height="4.358"/>
<rect x="36.819" y="146.024" fill="#C8C6C6" width="4.358" height="4.356"/>
<rect x="36.819" y="159.097" fill="#C8C6C6" width="4.358" height="4.356"/>
<rect x="158.82" y="111.168" fill="#C8C6C6" width="4.359" height="4.355"/>
<rect x="158.82" y="124.238" fill="#C8C6C6" width="4.359" height="4.358"/>
<rect x="158.82" y="137.311" fill="#3F77BC" width="4.359" height="4.356"/>
</svg>
