<?xml version="1.0" encoding="utf-8"?>
<!-- Generator: Adobe Illustrator 16.0.0, SVG Export Plug-In . SVG Version: 6.00 Build 0)  -->
<!DOCTYPE svg PUBLIC "-//W3C//DTD SVG 1.1//EN" "http://www.w3.org/Graphics/SVG/1.1/DTD/svg11.dtd">
<svg version="1.1" id="Layer_1" xmlns="http://www.w3.org/2000/svg" xmlns:xlink="http://www.w3.org/1999/xlink" x="0px" y="0px"
	 width="200px" height="200px" viewBox="0 0 200 200" enable-background="new 0 0 200 200" xml:space="preserve">
<path fill="#3F77BC" d="M124.064,73.53l11.219,12.881c0,0.027-0.027,0.055-0.081,0.109L121.83,98.529l-2.94,2.642l1.443,3.677
	c2.396,6.127,3.076,12.799,2.015,19.308c-1.061,6.536-3.867,12.636-8.115,17.674c0,0-0.026,0-0.055,0c-0.026,0-0.054,0-0.054,0
	l-11.247-12.963l-2.913-3.349l-3.978,1.987c-2.123,1.063-4.465,1.606-6.78,1.606c-4.274,0-8.17-1.797-10.975-5.093
	c-2.151-2.505-3.351-5.61-3.431-8.959c-0.082-3.214,0.87-6.427,2.723-9.014l2.614-3.677l-2.968-3.404L65.977,86.084
	c5.719-3.377,12.2-5.174,18.818-5.174c6.454,0,12.88,1.688,18.572,4.902l3.431,1.934l3.023-2.506L124.064,73.53 M124.281,67.702
	c-1.743,0-2.777,0.354-3.813,1.39l-14.241,11.791c-6.617-3.73-13.998-5.637-21.377-5.637c-7.707,0-15.44,2.069-22.359,6.345
	c-1.388,0.681-2.069,2.097-2.423,3.813c-0.353,1.389,0.354,3.132,1.389,4.167l11.466,13.207c-5.202,7.299-5.202,17.701,1.034,25
	c4.03,4.684,9.612,7.08,15.331,7.08c3.159,0,6.346-0.734,9.341-2.232l11.465,13.18c1.035,1.035,2.425,1.743,4.167,1.743
	c1.743,0,3.132-0.681,4.167-1.743c10.43-12.146,12.854-28.812,7.298-43.054l13.535-12.146c2.097-2.097,2.424-5.202,0.708-7.653
	l-11.819-13.534C127.06,68.411,126.023,67.702,124.281,67.702L124.281,67.702z"/>
<path fill="#C8C6C6" d="M91.711,27.317l22.631,26.551l-10.402,8.878L81.663,35.895L91.711,27.317 M92.338,21.189
	c-1.388,0-2.424,0.354-3.485,1.035L77.062,32.3c-2.098,1.743-2.098,4.521-0.354,6.59l23.61,28.485
	c0.898,1.089,2.097,1.607,3.321,1.607c1.116,0,2.288-0.436,3.269-1.253l11.792-10.076c1.034-0.708,1.389-2.097,1.742-3.132
	c0-1.389-0.354-2.423-1.033-3.486L95.443,22.905C94.762,21.87,93.373,21.543,92.338,21.189L92.338,21.189z"/>
<path fill="#C8C6C6" d="M152.985,98.693l22.439,26.361l-10.403,8.878l-22.44-26.361L152.985,98.693 M153.229,92.484
	c-1.116,0-2.287,0.435-3.268,1.252l-11.819,10.076c-1.034,0.709-1.388,2.069-1.743,3.132c0,1.39,0.355,2.424,1.035,3.486
	l23.964,28.131c0.898,1.089,2.098,1.606,3.324,1.606c1.115,0,2.286-0.436,3.267-1.253l11.819-10.075
	c1.034-0.709,1.39-2.098,1.743-3.133c0-1.389-0.354-2.423-1.036-3.458l-23.964-28.131C155.653,93.001,154.481,92.484,153.229,92.484
	L153.229,92.484z"/>
<path fill="#C8C6C6" d="M77.387,158.402c-9.987,0-19.293-4.294-25.532-11.78c-12.131-14.085-10.356-35.555,3.936-47.885
	c0.628-0.517,1.402-0.631,1.935-0.631c0.979,0,1.917,0.398,2.39,1.015c1.092,1.316,0.887,3.494-0.374,4.542
	c-11.457,9.601-12.814,26.905-3.032,38.58c5.114,6.097,12.641,9.593,20.65,9.593c6.522,0,12.897-2.332,17.951-6.566
	c0.649-0.536,1.423-0.65,1.956-0.65c0.998,0,1.966,0.414,2.525,1.081c1.013,1.22,0.8,3.444-0.435,4.484
	C93.429,155.498,85.643,158.402,77.387,158.402z"/>
<path fill="#3F77BC" d="M77.387,176.811c-15.423,0-29.928-6.575-39.795-18.039c-8.965-10.632-13.364-24.187-12.375-38.151
	c1.029-14.106,7.442-26.806,18.058-35.756c0.645-0.532,1.418-0.646,1.951-0.646c0.981,0,1.943,0.404,2.45,1.03
	c1.034,1.244,0.82,3.468-0.416,4.509c-19.043,16.507-21.167,45.644-4.756,64.969c8.623,10.157,21.238,15.982,34.611,15.982
	c10.994,0,21.633-3.971,29.968-11.183c0.684-0.477,1.458-0.718,2.302-0.718c0.931,0,1.887,0.331,2.652,0.913
	c0.896,1.248,0.655,3.351-0.536,4.354C102.354,172.303,90.256,176.811,77.387,176.811z"/>
</svg>
