<?xml version="1.0" encoding="utf-8"?>
<!-- Generator: Adobe Illustrator 16.0.0, SVG Export Plug-In . SVG Version: 6.00 Build 0)  -->
<!DOCTYPE svg PUBLIC "-//W3C//DTD SVG 1.1//EN" "http://www.w3.org/Graphics/SVG/1.1/DTD/svg11.dtd">
<svg version="1.1" id="Layer_1" xmlns="http://www.w3.org/2000/svg" xmlns:xlink="http://www.w3.org/1999/xlink" x="0px" y="0px"
	 width="200px" height="200px" viewBox="0 0 200 200" enable-background="new 0 0 200 200" xml:space="preserve">
<path fill="#C8C6C6" d="M110.489,145.428H99.924c-1.498,0-2.724,1.225-2.724,2.723s1.226,2.723,2.724,2.723h10.565
	c1.635,0,2.969,1.335,2.969,2.969c0,1.635-1.334,2.969-2.969,2.969H82.06c-4.275,0-8.307-1.88-11.029-5.175l-6.809-8.17
	c-3.648-4.384-8.959-6.944-14.65-7.106v-16.096h10.021c4.956,0,9.613,1.879,13.18,5.338l14.678,14.16
	c1.035,1.008,1.09,2.67,0.109,3.732c-1.008,1.088-2.695,1.143-3.785,0.162l-11.52-10.565c-1.116-1.008-2.832-0.954-3.84,0.163
	s-0.952,2.832,0.164,3.84l11.52,10.566c1.553,1.416,3.513,2.124,5.473,2.124c2.18,0,4.385-0.872,5.965-2.614
	c2.968-3.213,2.832-8.307-0.326-11.356l-14.679-14.161c-4.575-4.41-10.593-6.861-16.966-6.861H48.999
	c-1.035-2.424-3.432-4.14-6.209-4.14H29.991c-1.498,0-2.724,1.226-2.724,2.723v19.907c0,1.498,1.226,2.724,2.724,2.724
	c1.497,0,2.723-1.226,2.723-2.724v-17.184h10.104c0.708,0,1.307,0.572,1.307,1.307v21.813c0,0.708-0.572,1.308-1.307,1.308h-2.833
	c-1.497,0-2.722,1.225-2.722,2.723s1.225,2.724,2.722,2.724h2.833c2.832,0,5.256-1.743,6.264-4.222
	c4.248,0.027,8.224,1.906,10.947,5.175l6.809,8.169c3.785,4.549,9.313,7.135,15.223,7.135h28.43c4.631,0,8.416-3.758,8.416-8.414
	C118.877,149.212,115.12,145.428,110.489,145.428z"/>
<path fill="#C8C6C6" d="M163.974,69.503c-1.497,0-2.723,1.225-2.723,2.723v18.246h-10.104c-0.707,0-1.307-0.572-1.307-1.307V67.352
	c0-0.708,0.572-1.307,1.307-1.307h2.643c1.497,0,2.723-1.226,2.723-2.724c0-1.497-1.226-2.723-2.723-2.723h-2.643
	c-2.832,0-5.256,1.743-6.264,4.221c-4.248-0.027-8.223-1.906-10.947-5.174l-6.809-8.17c-3.785-4.547-9.313-7.134-15.223-7.134
	h-28.43c-4.63,0-8.416,3.758-8.416,8.415c0,4.63,3.759,8.415,8.416,8.415h11.628c1.498,0,2.724-1.226,2.724-2.724
	c0-1.498-1.226-2.723-2.724-2.723H83.476c-1.635,0-2.969-1.335-2.969-2.969s1.334-2.968,2.969-2.968h28.43
	c4.275,0,8.307,1.879,11.029,5.174l6.809,8.169c3.649,4.384,8.959,6.945,14.651,7.107v16.095h-10.022
	c-4.955,0-9.612-1.879-13.18-5.337l-14.678-14.161c-1.035-1.007-1.09-2.668-0.109-3.73c1.008-1.09,2.695-1.144,3.785-0.164
	l11.52,10.566c1.115,1.007,2.832,0.953,3.84-0.163c1.007-1.117,0.953-2.833-0.164-3.84l-11.52-10.566
	c-3.295-3.022-8.414-2.805-11.465,0.49c-2.969,3.213-2.832,8.306,0.327,11.356l14.678,14.161c4.576,4.412,10.595,6.862,16.966,6.862
	h10.566c1.035,2.424,3.432,4.139,6.209,4.139h12.826c1.498,0,2.724-1.225,2.724-2.723V72.253
	C166.697,70.728,165.472,69.503,163.974,69.503z"/>
<circle fill="#C8C6C6" cx="29.991" cy="143.275" r="2.723"/>
<circle fill="#C8C6C6" cx="163.974" cy="63.321" r="2.723"/>
<path fill="#3F77BC" d="M93.558,73.038c-7.003,1.33-13.392,4.912-18.202,10.189l1.727,1.579c4.458-4.897,10.379-8.216,16.883-9.458
	L93.558,73.038z"/>
<path fill="#3F77BC" d="M70.941,95.097l-2.207-0.774c-2.485,7.06-2.485,14.765,0,21.826l2.207-0.775
	C68.646,108.81,68.646,101.646,70.941,95.097z"/>
<path fill="#3F77BC" d="M123.229,126.63c-4.063,4.108-9.209,6.974-14.853,8.26l0.512,2.28c6.066-1.374,11.622-4.459,15.993-8.889
	L123.229,126.63z"/>
<path fill="#3F77BC" d="M133.258,96.735l-2.266,0.599c0.688,2.573,1.038,5.219,1.038,7.879c0,3.451-0.585,6.887-1.725,10.131
	l2.207,0.775C134.705,109.891,134.969,103.138,133.258,96.735z"/>
<path fill="#3F77BC" d="M101.962,70.143L101.962,70.143h-4.678c-0.644,0-1.169,0.526-1.169,1.169l0,0v4.678
	c0,0.643,0.525,1.169,1.169,1.169l0,0h4.678c0.644,0,1.17-0.526,1.17-1.169l0,0v-4.678
	C103.132,70.669,102.605,70.143,101.962,70.143z M100.793,74.821h-2.339v-2.339h2.339V74.821z"/>
<path fill="#3F77BC" d="M75.063,85.347L75.063,85.347h-4.678c-0.643,0-1.17,0.526-1.17,1.169l0,0v4.678
	c0,0.643,0.527,1.169,1.17,1.169l0,0h4.678c0.644,0,1.171-0.526,1.171-1.169l0,0v-4.678C76.234,85.873,75.707,85.347,75.063,85.347z
	 M73.895,90.024h-2.34v-2.339h2.34V90.024z"/>
<path fill="#3F77BC" d="M103.962,133.297L103.962,133.297h-4.678c-0.644,0-1.169,0.525-1.169,1.168l0,0v4.678
	c0,0.645,0.525,1.17,1.169,1.17l0,0h4.678c0.644,0,1.17-0.525,1.17-1.17l0,0v-4.678
	C105.132,133.822,104.605,133.297,103.962,133.297z M102.793,137.975h-2.339v-2.34h2.339V137.975z"/>
<path fill="#3F77BC" d="M130.86,118.092L130.86,118.092h-4.678c-0.644,0-1.169,0.527-1.169,1.17l0,0v4.678
	c0,0.644,0.525,1.17,1.169,1.17l0,0h4.678c0.644,0,1.17-0.526,1.17-1.17l0,0v-4.678C132.03,118.619,131.504,118.092,130.86,118.092z
	 M129.691,122.77h-2.339v-2.338h2.339V122.77z"/>
<path fill="#3F77BC" d="M99.623,81.838c-12.923,0-23.389,10.467-23.389,23.391c0,12.922,10.466,23.389,23.389,23.389
	c12.908-0.014,23.375-10.48,23.391-23.389C123.014,92.305,112.546,81.838,99.623,81.838z M92.782,85.332
	c-1.359,1.579-2.471,3.377-3.275,5.306c-1.521-0.175-2.981-0.38-4.399-0.628C87.3,87.919,89.916,86.326,92.782,85.332z
	 M83.236,92.042c1.725,0.336,3.522,0.628,5.409,0.863c-1.171,3.61-1.799,7.368-1.857,11.154h-8.157
	C78.865,99.673,80.473,95.462,83.236,92.042z M78.631,106.397h8.157c0.073,3.786,0.687,7.558,1.857,11.154
	c-1.887,0.22-3.699,0.512-5.409,0.862C80.473,114.994,78.865,110.783,78.631,106.397z M85.107,120.445
	c1.403-0.248,2.879-0.452,4.399-0.628c0.805,1.93,1.916,3.714,3.275,5.307C89.916,124.13,87.3,122.537,85.107,120.445z
	 M98.454,126.133c-2.5-0.585-4.767-3.012-6.447-6.563c2.091-0.177,4.239-0.278,6.447-0.292V126.133z M98.454,116.938
	c-2.529,0.029-5,0.146-7.383,0.365c-1.213-3.508-1.871-7.192-1.944-10.905h9.327V116.938z M98.454,104.059h-9.327
	c0.073-3.713,0.731-7.397,1.944-10.906c2.383,0.219,4.854,0.336,7.383,0.365V104.059L98.454,104.059z M98.454,91.179
	c-2.193-0.029-4.356-0.131-6.447-0.292c1.681-3.553,3.933-5.979,6.447-6.564V91.179z M120.616,104.059h-8.157
	c-0.073-3.787-0.688-7.558-1.857-11.154c1.886-0.219,3.699-0.511,5.409-0.862C118.773,95.462,120.382,99.673,120.616,104.059z
	 M114.139,90.01c-1.402,0.248-2.878,0.453-4.399,0.628c-0.805-1.929-1.915-3.713-3.274-5.306
	C109.33,86.326,111.946,87.919,114.139,90.01z M100.793,84.323c2.5,0.585,4.766,3.011,6.446,6.564
	c-2.09,0.175-4.238,0.277-6.446,0.292V84.323z M100.793,93.518c2.529-0.029,4.999-0.146,7.383-0.365
	c1.213,3.509,1.871,7.192,1.943,10.906h-9.326V93.518z M100.793,106.397h9.326c-0.072,3.713-0.73,7.397-1.943,10.905
	c-2.384-0.219-4.854-0.336-7.383-0.365V106.397z M100.793,126.133v-6.855c2.193,0.028,4.356,0.131,6.446,0.292
	C105.559,123.121,103.293,125.548,100.793,126.133z M106.465,125.124c1.359-1.579,2.47-3.377,3.274-5.307
	c1.521,0.176,2.982,0.38,4.399,0.628C111.946,122.537,109.33,124.13,106.465,125.124z M116.011,118.414
	c-1.725-0.336-3.523-0.629-5.409-0.863c1.17-3.609,1.798-7.367,1.857-11.153h8.157C120.382,110.783,118.773,114.994,116.011,118.414
	z"/>
</svg>
