<?xml version="1.0" encoding="utf-8"?>
<!-- Generator: Adobe Illustrator 16.0.0, SVG Export Plug-In . SVG Version: 6.00 Build 0)  -->
<!DOCTYPE svg PUBLIC "-//W3C//DTD SVG 1.1//EN" "http://www.w3.org/Graphics/SVG/1.1/DTD/svg11.dtd">
<svg version="1.1" id="Layer_1" xmlns="http://www.w3.org/2000/svg" xmlns:xlink="http://www.w3.org/1999/xlink" x="0px" y="0px"
	 width="200px" height="200px" viewBox="0 0 200 200" enable-background="new 0 0 200 200" xml:space="preserve">
<path fill="#C8C6C6" d="M130.186,82.576h-4.656c-1.281,0-2.315,1.035-2.315,2.314c0,1.28,1.035,2.315,2.315,2.315h4.656
	c1.281,0,2.315-1.035,2.315-2.315C132.528,83.638,131.467,82.576,130.186,82.576z"/>
<path fill="#C8C6C6" d="M130.186,91.889h-4.656c-1.281,0-2.315,1.035-2.315,2.315c0,1.28,1.035,2.315,2.315,2.315h4.656
	c1.281,0,2.315-1.035,2.315-2.315C132.528,92.924,131.467,91.889,130.186,91.889z"/>
<path fill="#C8C6C6" d="M130.186,73.29h-4.656c-1.281,0-2.315,1.035-2.315,2.315c0,1.28,1.035,2.314,2.315,2.314h4.656
	c1.281,0,2.315-1.035,2.315-2.314C132.528,74.324,131.467,73.29,130.186,73.29z"/>
<path fill="#C8C6C6" d="M130.186,147.661h-4.656c-1.281,0-2.315,1.035-2.315,2.315s1.035,2.314,2.315,2.314h4.656
	c1.281,0,2.315-1.035,2.315-2.314S131.467,147.661,130.186,147.661z"/>
<path fill="#C8C6C6" d="M79.071,73.29H65.128c-1.279,0-2.314,1.035-2.314,2.315v32.542c0,1.28,1.035,2.315,2.314,2.315h13.943
	c1.28,0,2.315-1.035,2.315-2.315V75.604C81.386,74.324,80.351,73.29,79.071,73.29z M76.756,105.832H67.47V77.946h9.286V105.832z"/>
<path fill="#C8C6C6" d="M79.071,147.661H65.128c-1.279,0-2.314,1.035-2.314,2.315s1.035,2.314,2.314,2.314h13.943
	c1.28,0,2.315-1.035,2.315-2.314S80.351,147.661,79.071,147.661z"/>
<path fill="#C8C6C6" d="M79.071,156.948H65.128c-1.279,0-2.314,1.034-2.314,2.315c0,1.279,1.035,2.314,2.314,2.314h13.943
	c1.28,0,2.315-1.035,2.315-2.314C81.386,157.982,80.351,156.948,79.071,156.948z"/>
<path fill="#C8C6C6" d="M130.186,156.948h-4.656c-1.281,0-2.315,1.034-2.315,2.315c0,1.279,1.035,2.314,2.315,2.314h4.656
	c1.281,0,2.315-1.035,2.315-2.314C132.528,157.982,131.467,156.948,130.186,156.948z"/>
<path fill="#C8C6C6" d="M158.073,156.948h-9.287c-1.28,0-2.314,1.034-2.314,2.315c0,1.279,1.035,2.314,2.314,2.314h9.287
	c1.279,0,2.314-1.035,2.314-2.314C160.415,157.982,159.352,156.948,158.073,156.948z"/>
<path fill="#3F77BC" d="M109.272,75.604c0-1.28-1.035-2.315-2.314-2.315h-9.286c-1.281,0-2.315,1.035-2.315,2.315v32.542
	c0,1.28,1.034,2.315,2.315,2.315h9.286c1.279,0,2.314-1.035,2.314-2.315V75.604z M104.642,105.832h-4.657V77.946h4.657V105.832z"/>
<path fill="#C8C6C6" d="M158.073,147.661h-9.287c-1.28,0-2.314,1.035-2.314,2.315s1.035,2.314,2.314,2.314h9.287
	c1.279,0,2.314-1.035,2.314-2.314S159.352,147.661,158.073,147.661z"/>
<path fill="#C8C6C6" d="M106.958,156.948h-9.286c-1.281,0-2.315,1.034-2.315,2.315c0,1.279,1.034,2.314,2.315,2.314h9.286
	c1.279,0,2.314-1.035,2.314-2.314C109.272,157.982,108.237,156.948,106.958,156.948z"/>
<path fill="#3F77BC" d="M148.786,119.775c1.28,0,2.315-1.034,2.315-2.315V94.231c0-1.28-1.035-2.315-2.315-2.315
	c-1.28,0-2.314,1.035-2.314,2.315v23.229C146.472,118.713,147.506,119.775,148.786,119.775z"/>
<path fill="#3F77BC" d="M160.415,94.204c0-1.28-1.035-2.315-2.315-2.315c-1.279,0-2.314,1.035-2.314,2.315v23.229
	c0,1.28,1.035,2.315,2.314,2.315c1.281,0,2.315-1.035,2.315-2.315V94.204z"/>
<path fill="#C8C6C6" d="M162.73,54.69h-13.944c-1.28,0-2.314,1.035-2.314,2.314c0,1.28,1.035,2.315,2.314,2.315h13.944
	c1.279,0,2.314,1.035,2.314,2.314v106.888c0,1.28-1.035,2.315-2.314,2.315h-20.915V73.29h13.942c1.281,0,2.315-1.035,2.315-2.315
	c0-1.28-1.035-2.314-2.315-2.314h-13.942V47.718c0-3.921-3.05-6.971-6.972-6.971H120.9c-3.839,0-6.971,3.132-6.971,6.971v123.172
	H90.699V50.06h16.258c1.279,0,2.314-1.035,2.314-2.314c0-1.28-1.035-2.315-2.314-2.315H90.699v-2.314
	c0-3.922-3.05-6.972-6.971-6.972H60.499c-3.84,0-6.972,3.132-6.972,6.972v20.915H41.899c-1.279,0-2.315,1.035-2.315,2.314
	c0,1.28,1.036,2.315,2.315,2.315h11.628v102.257H37.269c-1.28,0-2.314-1.034-2.314-2.314V57.032c0-1.28,1.035-2.315,2.314-2.315
	h9.287c1.28,0,2.315-1.035,2.315-2.315c0-1.28-1.035-2.314-2.315-2.314h-9.287c-3.839,0-6.971,3.132-6.971,6.972v111.543
	c0,3.84,3.131,6.972,6.971,6.972H162.73c3.839,0,6.971-3.132,6.971-6.972V61.661C169.701,57.821,166.569,54.69,162.73,54.69z
	 M86.043,170.891H58.157V54.69h20.914c1.28,0,2.315-1.035,2.315-2.315c0-1.28-1.035-2.315-2.315-2.315H58.157v-6.971
	c0-1.307,1.008-2.315,2.315-2.315h23.229c1.333,0,2.314,1.008,2.314,2.315L86.043,170.891L86.043,170.891z M137.158,170.891h-18.6
	V59.346h11.628c1.281,0,2.315-1.035,2.315-2.314c0-1.28-1.035-2.315-2.315-2.315h-11.628v-6.999c0-1.307,1.008-2.314,2.315-2.314
	h13.942c1.335,0,2.315,1.007,2.315,2.314v123.172H137.158z"/>
<path fill="#C8C6C6" d="M46.529,147.661h-4.657c-1.28,0-2.314,1.035-2.314,2.315s1.035,2.314,2.314,2.314h4.657
	c1.28,0,2.314-1.035,2.314-2.314S47.809,147.661,46.529,147.661z"/>
<path fill="#C8C6C6" d="M46.529,156.948h-4.657c-1.28,0-2.314,1.034-2.314,2.315c0,1.279,1.035,2.314,2.314,2.314h4.657
	c1.28,0,2.314-1.035,2.314-2.314C48.843,157.982,47.809,156.948,46.529,156.948z"/>
<path fill="#C8C6C6" d="M106.958,147.661h-9.286c-1.281,0-2.315,1.035-2.315,2.315s1.034,2.314,2.315,2.314h9.286
	c1.279,0,2.314-1.035,2.314-2.314S108.237,147.661,106.958,147.661z"/>
<path fill="#3F77BC" d="M46.529,91.889h-4.657c-1.28,0-2.314,1.035-2.314,2.315c0,1.28,1.035,2.315,2.314,2.315h4.657
	c1.28,0,2.314-1.035,2.314-2.315C48.871,92.924,47.809,91.889,46.529,91.889z"/>
<path fill="#3F77BC" d="M46.529,101.175h-4.657c-1.28,0-2.314,1.035-2.314,2.315c0,1.28,1.035,2.315,2.314,2.315h4.657
	c1.28,0,2.314-1.036,2.314-2.315C48.871,102.21,47.809,101.175,46.529,101.175z"/>
</svg>
