<?xml version="1.0" encoding="utf-8"?>
<!-- Generator: Adobe Illustrator 16.0.0, SVG Export Plug-In . SVG Version: 6.00 Build 0)  -->
<!DOCTYPE svg PUBLIC "-//W3C//DTD SVG 1.1//EN" "http://www.w3.org/Graphics/SVG/1.1/DTD/svg11.dtd">
<svg version="1.1" id="Layer_1" xmlns="http://www.w3.org/2000/svg" xmlns:xlink="http://www.w3.org/1999/xlink" x="0px" y="0px"
	 width="200px" height="200px" viewBox="0 0 200 200" enable-background="new 0 0 200 200" xml:space="preserve">
<path fill="#3F77BC" d="M49.938,92.131c-3.595,0-6.536,2.941-6.536,6.536s2.941,6.536,6.536,6.536s6.536-2.941,6.536-6.536
	S53.532,92.131,49.938,92.131z M49.938,100.846c-1.198,0-2.179-0.98-2.179-2.179s0.98-2.178,2.179-2.178s2.178,0.98,2.178,2.178
	S51.136,100.846,49.938,100.846z"/>
<path fill="#3F77BC" d="M49.938,109.561c-3.595,0-6.536,2.941-6.536,6.535c0,3.595,2.941,6.535,6.536,6.535s6.536-2.94,6.536-6.535
	C56.474,112.502,53.532,109.561,49.938,109.561z M49.938,118.274c-1.198,0-2.179-0.98-2.179-2.179s0.98-2.179,2.179-2.179
	s2.178,0.98,2.178,2.179S51.136,118.274,49.938,118.274z"/>
<path fill="#C8C6C6" d="M161.047,96.489l-2.181,0.599v-4.956c0-10.811-8.796-19.607-19.606-19.607h-26.307
	c-0.518-3.54-2.233-6.672-4.712-8.986l17.048-13.617c0.927,0.518,1.988,0.817,3.105,0.817c3.594,0,6.535-2.94,6.535-6.535
	s-2.941-6.536-6.535-6.536c-3.596,0-6.536,2.941-6.536,6.536c0,0.871,0.19,1.715,0.489,2.478l-17.864,14.296
	c-1.987-0.953-4.221-1.525-6.589-1.525c-2.369,0-4.603,0.545-6.59,1.525L73.439,46.681c0.326-0.763,0.489-1.607,0.489-2.478
	c0-3.595-2.941-6.536-6.535-6.536c-3.596,0-6.535,2.941-6.535,6.536s2.939,6.535,6.535,6.535c1.144,0,2.178-0.327,3.104-0.817
	l17.048,13.617c-2.506,2.314-4.221,5.446-4.712,8.986h-26.36c-10.813,0-19.608,8.796-19.608,19.607v52.287
	c0,9.313,6.536,17.102,15.25,19.09v9.231h15.251v-8.714h61v8.714h15.25v-9.231c8.716-1.988,15.25-9.804,15.25-19.09v-4.875
	l1.607,0.436l11.465,0.082V96.489H161.047z M128.366,42.024c1.198,0,2.18,0.98,2.18,2.179c0,1.198-0.981,2.178-2.18,2.178
	s-2.178-0.98-2.178-2.178C126.188,43.004,127.168,42.024,128.366,42.024z M67.366,46.38c-1.199,0-2.178-0.98-2.178-2.178
	c0-1.199,0.979-2.179,2.178-2.179c1.198,0,2.179,0.98,2.179,2.179C69.545,45.4,68.564,46.38,67.366,46.38z M97.866,63.81
	c5.256,0,9.668,3.758,10.676,8.714H87.191C88.199,67.568,92.61,63.81,97.866,63.81z M63.008,168.383h-6.534v-4.357h6.534V168.383z
	 M139.26,168.383h-6.536v-4.357h6.536V168.383z M154.51,144.418c0,8.414-6.835,15.25-15.25,15.25H56.474
	c-8.415,0-15.25-6.836-15.25-15.25V92.131c0-8.415,6.835-15.25,15.25-15.25h82.786c8.415,0,15.25,6.835,15.25,15.25v6.127
	l-4.357,1.171v-7.298c0-6.018-4.874-10.893-10.893-10.893H69.545c-6.019,0-10.893,4.875-10.893,10.893v52.287
	c0,6.018,4.874,10.893,10.893,10.893h69.715c6.019,0,10.893-4.875,10.893-10.893v-7.244l4.357,1.198V144.418z M117.637,93.629
	l-3.73,3.731c-1.634-0.926-3.35-1.634-5.147-2.124v-5.283H95.688v5.256c-1.798,0.518-3.513,1.226-5.146,2.125l-3.731-3.731
	l-9.231,9.232l3.73,3.73c-0.925,1.635-1.634,3.35-2.123,5.146h-5.283v13.072h5.255c0.518,1.797,1.227,3.512,2.125,5.146l-3.731,3.73
	l9.232,9.232l3.731-3.73c1.633,0.926,3.349,1.633,5.146,2.123v5.256h13.072v-5.256c1.797-0.518,3.513-1.225,5.146-2.123l3.732,3.73
	l9.229-9.232l-3.729-3.73c0.026-0.027,0.055-0.082,0.055-0.136l22.602,6.154v8.442c0,3.594-2.94,6.535-6.534,6.535H69.545
	c-3.596,0-6.537-2.941-6.537-6.535V92.104c0-3.595,2.941-6.536,6.537-6.536h69.715c3.595,0,6.536,2.941,6.536,6.536v8.496
	l-22.577,6.127c-0.026-0.054-0.053-0.108-0.081-0.136l3.731-3.73L117.637,93.629z M118.591,107.463c0.08,0.137,0.19,0.3,0.272,0.463
	l-5.502,1.498l-8.441-4.221h-4.875v2.396c-4.956,1.008-8.714,5.419-8.714,10.675s3.758,9.667,8.714,10.675v2.396h4.875l8.441-4.221
	l5.502,1.498c-0.082,0.136-0.164,0.3-0.272,0.436l-0.979,1.498l3.131,3.131l-3.078,3.078l-3.104-3.105l-1.499,0.98
	c-2.124,1.389-4.411,2.369-6.89,2.86l-1.742,0.354v4.41h-4.357v-4.41l-1.743-0.354c-2.45-0.491-4.766-1.472-6.89-2.86l-1.498-0.98
	l-3.104,3.105l-3.077-3.078l3.104-3.104l-0.98-1.498c-1.389-2.125-2.369-4.412-2.859-6.89l-0.354-1.743h-4.411v-4.357h4.411
	l0.354-1.742c0.49-2.451,1.471-4.766,2.859-6.891l0.98-1.498l-3.104-3.104l3.077-3.078l3.104,3.104l1.498-0.98
	c2.124-1.388,4.412-2.369,6.89-2.859l1.743-0.354V94.31h4.357v4.412l1.742,0.354c2.452,0.49,4.766,1.47,6.89,2.859l1.499,0.981
	l3.104-3.105l3.078,3.077l-3.131,3.132L118.591,107.463z M110.938,113.072v10.377l-6.536,3.268v-16.912L110.938,113.072z
	 M100.045,112.147v12.281c-2.532-0.898-4.357-3.295-4.357-6.127S97.513,113.046,100.045,112.147z M167.581,135.703h-4.356v-4.357
	h-4.358v3.676l-43.57-11.873V113.4l43.57-11.874v25.462h4.358v-26.143h4.356V135.703z"/>
</svg>
