<?xml version="1.0" encoding="utf-8"?>
<!-- Generator: Adobe Illustrator 22.0.1, SVG Export Plug-In . SVG Version: 6.00 Build 0)  -->
<svg version="1.1" id="Capa_1" xmlns="http://www.w3.org/2000/svg" xmlns:xlink="http://www.w3.org/1999/xlink" x="0px" y="0px"
	 viewBox="0 0 464.9 464.9" style="enable-background:new 0 0 464.9 464.9;" xml:space="preserve">
<g>
	<g>
		<path d="M283.9,280.9c42-17.1,69.2-58.2,68.6-103.5c0-62.3-53.8-113-120-113s-120,50.7-120,113c-0.7,45.3,26.6,86.4,68.6,103.5
			l0.9,0.5l6.4,10.4c-11.3,6.6-15.2,21.1-8.6,32.4c0.9,1.5,1.9,2.9,3.1,4.2c-8.9,9.8-8.2,24.9,1.5,33.8c4.4,4,10.2,6.3,16.2,6.2h64
			c13.2,0.1,23.9-10.6,24-23.8c0-6-2.2-11.8-6.2-16.2c8.9-9.7,8.2-24.7-1.4-33.5c-1.3-1.2-2.7-2.2-4.2-3.1l6.4-10.4L283.9,280.9z
			 M264.4,352.4h-64c-4.4,0-8-3.6-8-8s3.6-8,8-8h64c4.4,0,8,3.6,8,8S268.8,352.4,264.4,352.4z M264.4,320.4h-64c-4.4,0-8-3.6-8-8
			s3.6-8,8-8h64c4.4,0,8,3.6,8,8S268.8,320.4,264.4,320.4z M276.6,266.7l-3.2,1.7c-1.2,0.7-2.3,1.7-3,2.9l-10.5,17.2h-3.5v-60.7
			l37.7-37.7l-11.3-11.3l-40,40c-1.5,1.5-2.3,3.5-2.3,5.7v64h-16v-64c0-2.1-0.8-4.2-2.3-5.7l-40-40l-11.3,11.3l37.7,37.7v60.7h-3.5
			l-10.5-17.2c-0.7-1.2-1.8-2.2-3-2.9l-3.2-1.7c-0.3-0.1-0.5-0.3-0.8-0.4c-36.2-14.6-59.6-49.9-59-88.9c0-53.5,46.7-97,104-97
			s104,43.5,104,97c0.6,39-22.9,74.3-59,88.9C277.1,266.4,276.9,266.5,276.6,266.7z"/>
	</g>
</g>
<g>
	<g>
		<rect x="80.4" y="57.6" transform="matrix(0.4472 -0.8944 0.8944 0.4472 -26.6483 125.7548)" width="16" height="53.7"/>
	</g>
</g>
<g>
	<g>
		<rect x="348.1" y="76.4" transform="matrix(0.9486 -0.3164 0.3164 0.9486 -7.4535 122.9663)" width="53.7" height="16"/>
	</g>
</g>
<g>
	<g>
		<rect x="32.4" y="168.4" width="48" height="16"/>
	</g>
</g>
<g>
	<g>
		<rect x="384.4" y="168.4" width="48" height="16"/>
	</g>
</g>
<g>
	<g>
		<rect x="61.6" y="276.4" transform="matrix(0.8944 -0.4472 0.4472 0.8944 -117.8647 69.5678)" width="53.7" height="16"/>
	</g>
</g>
<g>
	<g>
		<rect x="368.4" y="257.6" transform="matrix(0.4472 -0.8944 0.8944 0.4472 -46.3482 493.9155)" width="16" height="53.7"/>
	</g>
</g>
<g>
	<g>
		<rect x="224.4" y="8.4" width="16" height="40"/>
	</g>
</g>
<g>
	<g>
		<path d="M464.4,384.4v-16c-104.4,0-215.3,25.2-216,72h-32c-0.7-46.8-111.6-72-216-72v16c117.2,0,199,29.4,200,56H0.4v16h464v-16
			h-200C265.4,413.8,347.2,384.4,464.4,384.4z"/>
	</g>
</g>
<g>
	<g>
		
			<rect x="68.4" y="344.3" transform="matrix(5.260082e-02 -0.9986 0.9986 5.260082e-02 -347.4565 474.6573)" width="16" height="152.2"/>
	</g>
</g>
<g>
	<g>
		
			<rect x="312.3" y="412.4" transform="matrix(0.9986 -5.270055e-02 5.270055e-02 0.9986 -21.6178 21.0539)" width="152.2" height="16"/>
	</g>
</g>
<g>
	<g>
		<path d="M476.9-384H107c-22.1,0-40,17.9-40,40s17.9,40,40,40h369.9l80-40L476.9-384z M139-320h-32c-13.2,0-24-10.8-24-24
			s10.8-24,24-24h32V-320z M467-352H187v16h280v16H155v-16h16v-16h-16v-16h312V-352z M483-363.1l38.1,19.1L483-324.9V-363.1z"/>
	</g>
</g>
<g>
	<g>
		<g>
			<path d="M-258.5,155.1h-17.1c-4.7,0-8.5,3.8-8.5,8.5c0,4.7,3.8,8.5,8.5,8.5h17.1c4.7,0,8.5-3.8,8.5-8.5
				C-249.9,159-253.8,155.1-258.5,155.1z"/>
			<path d="M-258.5,189.3h-17.1c-4.7,0-8.5,3.8-8.5,8.5c0,4.7,3.8,8.5,8.5,8.5h17.1c4.7,0,8.5-3.8,8.5-8.5
				C-249.9,193.1-253.8,189.3-258.5,189.3z"/>
			<path d="M-258.5,121h-17.1c-4.7,0-8.5,3.8-8.5,8.5c0,4.7,3.8,8.5,8.5,8.5h17.1c4.7,0,8.5-3.8,8.5-8.5
				C-249.9,124.8-253.8,121-258.5,121z"/>
			<path d="M-258.5,394.1h-17.1c-4.7,0-8.5,3.8-8.5,8.5s3.8,8.5,8.5,8.5h17.1c4.7,0,8.5-3.8,8.5-8.5S-253.8,394.1-258.5,394.1z"/>
			<path d="M-446.2,121h-51.2c-4.7,0-8.5,3.8-8.5,8.5V249c0,4.7,3.8,8.5,8.5,8.5h51.2c4.7,0,8.5-3.8,8.5-8.5V129.5
				C-437.7,124.8-441.5,121-446.2,121z M-454.7,240.5h-34.1V138.1h34.1V240.5z"/>
			<path d="M-446.2,394.1h-51.2c-4.7,0-8.5,3.8-8.5,8.5s3.8,8.5,8.5,8.5h51.2c4.7,0,8.5-3.8,8.5-8.5S-441.5,394.1-446.2,394.1z"/>
			<path d="M-446.2,428.2h-51.2c-4.7,0-8.5,3.8-8.5,8.5s3.8,8.5,8.5,8.5h51.2c4.7,0,8.5-3.8,8.5-8.5S-441.5,428.2-446.2,428.2z"/>
			<path d="M-258.5,428.2h-17.1c-4.7,0-8.5,3.8-8.5,8.5s3.8,8.5,8.5,8.5h17.1c4.7,0,8.5-3.8,8.5-8.5
				C-249.9,432-253.8,428.2-258.5,428.2z"/>
			<path d="M-156.1,428.2h-34.1c-4.7,0-8.5,3.8-8.5,8.5s3.8,8.5,8.5,8.5h34.1c4.7,0,8.5-3.8,8.5-8.5
				C-147.5,432-151.4,428.2-156.1,428.2z"/>
			<path d="M-335.3,129.5c0-4.7-3.8-8.5-8.5-8.5h-34.1c-4.7,0-8.5,3.8-8.5,8.5V249c0,4.7,3.8,8.5,8.5,8.5h34.1
				c4.7,0,8.5-3.8,8.5-8.5V129.5z M-352.3,240.5h-17.1V138.1h17.1V240.5z"/>
			<path d="M-156.1,394.1h-34.1c-4.7,0-8.5,3.8-8.5,8.5s3.8,8.5,8.5,8.5h34.1c4.7,0,8.5-3.8,8.5-8.5S-151.4,394.1-156.1,394.1z"/>
			<path d="M-343.8,428.2h-34.1c-4.7,0-8.5,3.8-8.5,8.5s3.8,8.5,8.5,8.5h34.1c4.7,0,8.5-3.8,8.5-8.5S-339.1,428.2-343.8,428.2z"/>
			<path d="M-190.2,291.7c4.7,0,8.5-3.8,8.5-8.5v-85.3c0-4.7-3.8-8.5-8.5-8.5s-8.5,3.8-8.5,8.5v85.3
				C-198.7,287.8-194.9,291.7-190.2,291.7z"/>
			<path d="M-147.5,197.8c0-4.7-3.8-8.5-8.5-8.5s-8.5,3.8-8.5,8.5v85.3c0,4.7,3.8,8.5,8.5,8.5s8.5-3.8,8.5-8.5V197.8z"/>
			<path d="M-139,52.7h-51.2c-4.7,0-8.5,3.8-8.5,8.5s3.8,8.5,8.5,8.5h51.2c4.7,0,8.5,3.8,8.5,8.5v392.5c0,4.7-3.8,8.5-8.5,8.5h-76.8
				V121h51.2c4.7,0,8.5-3.8,8.5-8.5s-3.8-8.5-8.5-8.5h-51.2V27.1c0-14.4-11.2-25.6-25.6-25.6h-51.2c-14.1,0-25.6,11.5-25.6,25.6
				v452.3h-85.3V35.7h59.7c4.7,0,8.5-3.8,8.5-8.5s-3.8-8.5-8.5-8.5h-59.7v-8.5c0-14.4-11.2-25.6-25.6-25.6h-85.3
				c-14.1,0-25.6,11.5-25.6,25.6v76.8h-42.7c-4.7,0-8.5,3.8-8.5,8.5s3.8,8.5,8.5,8.5h42.7v375.5h-59.7c-4.7,0-8.5-3.8-8.5-8.5V61.3
				c0-4.7,3.8-8.5,8.5-8.5h34.1c4.7,0,8.5-3.8,8.5-8.5s-3.8-8.5-8.5-8.5h-34.1c-14.1,0-25.6,11.5-25.6,25.6v409.6
				c0,14.1,11.5,25.6,25.6,25.6H-139c14.1,0,25.6-11.5,25.6-25.6V78.3C-113.4,64.2-124.9,52.7-139,52.7z M-420.6,479.4H-523V52.7
				h76.8c4.7,0,8.5-3.8,8.5-8.5s-3.8-8.5-8.5-8.5H-523V10.1c0-4.8,3.7-8.5,8.5-8.5h85.3c4.9,0,8.5,3.7,8.5,8.5L-420.6,479.4
				L-420.6,479.4z M-232.9,479.4h-68.3V69.8h42.7c4.7,0,8.5-3.8,8.5-8.5s-3.8-8.5-8.5-8.5h-42.7V27.1c0-4.8,3.7-8.5,8.5-8.5h51.2
				c4.9,0,8.5,3.7,8.5,8.5V479.4z"/>
			<path d="M-565.7,394.1h-17.1c-4.7,0-8.5,3.8-8.5,8.5s3.8,8.5,8.5,8.5h17.1c4.7,0,8.5-3.8,8.5-8.5S-561,394.1-565.7,394.1z"/>
			<path d="M-565.7,428.2h-17.1c-4.7,0-8.5,3.8-8.5,8.5s3.8,8.5,8.5,8.5h17.1c4.7,0,8.5-3.8,8.5-8.5S-561,428.2-565.7,428.2z"/>
			<path d="M-343.8,394.1h-34.1c-4.7,0-8.5,3.8-8.5,8.5s3.8,8.5,8.5,8.5h34.1c4.7,0,8.5-3.8,8.5-8.5S-339.1,394.1-343.8,394.1z"/>
			<path d="M-565.7,189.3h-17.1c-4.7,0-8.5,3.8-8.5,8.5c0,4.7,3.8,8.5,8.5,8.5h17.1c4.7,0,8.5-3.8,8.5-8.5
				C-557.1,193.1-561,189.3-565.7,189.3z"/>
			<path d="M-565.7,223.4h-17.1c-4.7,0-8.5,3.8-8.5,8.5c0,4.7,3.8,8.5,8.5,8.5h17.1c4.7,0,8.5-3.8,8.5-8.5
				C-557.1,227.2-561,223.4-565.7,223.4z"/>
		</g>
	</g>
</g>
<g>
	<g>
		<path d="M227.6,691C156.7,691,95.4,736.6,75,804.6l-5.8,19.2c-6.1,20.3-17.2,39-32.2,54l-7.7,7.7c-1.5,1.5-2.3,3.5-2.3,5.6
			c0,2.1,0.8,4.2,2.3,5.7C53.6,920.9,67,953.2,67,987.6c0,26.2,21.3,47.4,47.4,47.4c12.2,0,24.2-3,34.9-8.8l13.6-7.3v64.1
			c0,4.4,3.6,8,8,8h136c4.4,0,8-3.6,8-8v-58.8c0-27,10.5-52.4,29.6-71.5C371.9,925.4,387,889,387,850.4
			C387,762.5,315.5,691,227.6,691z M267,1075h-88v-64.8l59.8-32.2l-7.6-14.1l-89.4,48.1c-8.4,4.5-17.8,6.9-27.4,6.9
			c-17.3,0-31.4-14.1-31.4-31.4c0-35.9-13-69.9-36.8-96.4l2.2-2.2c16.9-16.9,29.4-37.8,36.2-60.7l5.8-19.2
			C108.6,748.1,163.8,707,227.6,707c13.7,0,26.8,2,39.4,5.6V763h-9.5l-7.4,19.8l-19.2-8.7L206,798.8l8.7,19.2l-19.8,7.4v35.1
			l19.8,7.4l-8.7,19.2l24.8,24.8l19.2-8.7l7.4,19.8h9.5V1075z M268.5,907l-6.6-17.7l-3.4-1.3c-1.2-0.4-2.4-0.9-3.6-1.5l-3.3-1.5
			l-17.2,7.8l-9.1-9.1l7.8-17.2l-1.5-3.3c-0.5-1.2-1-2.4-1.5-3.6l-1.3-3.4l-17.7-6.6v-12.9l17.7-6.6l1.3-3.4
			c0.4-1.2,0.9-2.4,1.5-3.6l1.5-3.3l-7.8-17.2l9.1-9.1l17.2,7.8l3.3-1.5c1.2-0.5,2.4-1,3.6-1.5l3.4-1.3l6.6-17.7h12.9l6.6,17.7
			l3.4,1.3c1.2,0.4,2.4,0.9,3.6,1.5l3.3,1.5l17.2-7.8l9.1,9.1l-7.8,17.2l1.5,3.3c0.5,1.2,1,2.4,1.5,3.6l1.3,3.4l17.7,6.6v12.9
			l-17.7,6.6l-1.3,3.4c-0.4,1.2-0.9,2.4-1.5,3.6l-1.5,3.3l7.8,17.2l-9.1,9.1l-17.2-7.8l-3.3,1.5c-1.2,0.5-2.4,1-3.6,1.5l-3.4,1.3
			l-6.6,17.7H268.5z M333.3,941.4c-22.1,22.1-34.3,51.5-34.3,82.8v50.8h-16V923h9.5l7.4-19.8l19.2,8.7l24.8-24.8l-8.7-19.2l19.8-7.4
			v-35.1l-19.8-7.4l8.7-19.2L319.2,774l-19.2,8.7l-7.4-19.8H283v-44.9c51.6,21.7,88,72.8,88,132.2
			C371,884.8,357.6,917.1,333.3,941.4z"/>
	</g>
</g>
<g>
	<g>
		<path d="M372.9,595H3c-22.1,0-40,17.9-40,40s17.9,40,40,40h369.9l80-40L372.9,595z M35,659H3c-13.2,0-24-10.8-24-24s10.8-24,24-24
			h32V659z M363,627H83v16h280v16H51v-16h16v-16H51v-16h312V627z M379,615.9l38.1,19.1L379,654.1V615.9z"/>
	</g>
</g>
<g>
	<g>
		<path d="M275,811c-17.6,0-32,14.4-32,32s14.4,32,32,32s32-14.4,32-32S292.6,811,275,811z M275,859c-8.8,0-16-7.2-16-16
			s7.2-16,16-16s16,7.2,16,16S283.8,859,275,859z"/>
	</g>
</g>
<g>
	<g>
		<path d="M435,1043c-13.2,0-24,10.8-24,24s10.8,24,24,24s24-10.8,24-24S448.2,1043,435,1043z M435,1075c-4.4,0-8-3.6-8-8s3.6-8,8-8
			s8,3.6,8,8S439.4,1075,435,1075z"/>
	</g>
</g>
<g>
	<g>
		<path d="M-13,899c-13.2,0-24,10.8-24,24s10.8,24,24,24s24-10.8,24-24S0.2,899-13,899z M-13,931c-4.4,0-8-3.6-8-8s3.6-8,8-8
			s8,3.6,8,8S-8.6,931-13,931z"/>
	</g>
</g>
<g>
	<g>
		<rect x="-21" y="979" width="16" height="16"/>
	</g>
</g>
<g>
	<g>
		<rect x="-21" y="1027" width="16" height="16"/>
	</g>
</g>
<g>
	<g>
		<rect x="-21" y="1075" width="16" height="16"/>
	</g>
</g>
<g>
	<g>
		<rect x="427" y="899" width="16" height="16"/>
	</g>
</g>
<g>
	<g>
		<rect x="427" y="947" width="16" height="16"/>
	</g>
</g>
<g>
	<g>
		<rect x="427" y="995" width="16" height="16"/>
	</g>
</g>
<g>
	<g>
		<g>
			<path d="M-295.5,750.1h-17.1c-4.7,0-8.5,3.8-8.5,8.5s3.8,8.5,8.5,8.5h17.1c4.7,0,8.5-3.8,8.5-8.5S-290.8,750.1-295.5,750.1z"/>
			<path d="M-295.5,784.3h-17.1c-4.7,0-8.5,3.8-8.5,8.5s3.8,8.5,8.5,8.5h17.1c4.7,0,8.5-3.8,8.5-8.5
				C-286.9,788.1-290.8,784.3-295.5,784.3z"/>
			<path d="M-295.5,716h-17.1c-4.7,0-8.5,3.8-8.5,8.5c0,4.7,3.8,8.5,8.5,8.5h17.1c4.7,0,8.5-3.8,8.5-8.5
				C-286.9,719.8-290.8,716-295.5,716z"/>
			<path d="M-295.5,989.1h-17.1c-4.7,0-8.5,3.8-8.5,8.5c0,4.7,3.8,8.5,8.5,8.5h17.1c4.7,0,8.5-3.8,8.5-8.5
				C-286.9,992.9-290.8,989.1-295.5,989.1z"/>
			<path d="M-483.2,716h-51.2c-4.7,0-8.5,3.8-8.5,8.5V844c0,4.7,3.8,8.5,8.5,8.5h51.2c4.7,0,8.5-3.8,8.5-8.5V724.5
				C-474.7,719.8-478.5,716-483.2,716z M-491.7,835.5h-34.1V733.1h34.1V835.5z"/>
			<path d="M-483.2,989.1h-51.2c-4.7,0-8.5,3.8-8.5,8.5c0,4.7,3.8,8.5,8.5,8.5h51.2c4.7,0,8.5-3.8,8.5-8.5
				C-474.7,992.9-478.5,989.1-483.2,989.1z"/>
			<path d="M-483.2,1023.2h-51.2c-4.7,0-8.5,3.8-8.5,8.5c0,4.7,3.8,8.5,8.5,8.5h51.2c4.7,0,8.5-3.8,8.5-8.5
				C-474.7,1027-478.5,1023.2-483.2,1023.2z"/>
			<path d="M-295.5,1023.2h-17.1c-4.7,0-8.5,3.8-8.5,8.5c0,4.7,3.8,8.5,8.5,8.5h17.1c4.7,0,8.5-3.8,8.5-8.5
				C-286.9,1027-290.8,1023.2-295.5,1023.2z"/>
			<path d="M-193.1,1023.2h-34.1c-4.7,0-8.5,3.8-8.5,8.5c0,4.7,3.8,8.5,8.5,8.5h34.1c4.7,0,8.5-3.8,8.5-8.5
				C-184.5,1027-188.4,1023.2-193.1,1023.2z"/>
			<path d="M-372.3,724.5c0-4.7-3.8-8.5-8.5-8.5h-34.1c-4.7,0-8.5,3.8-8.5,8.5V844c0,4.7,3.8,8.5,8.5,8.5h34.1
				c4.7,0,8.5-3.8,8.5-8.5V724.5z M-389.3,835.5h-17.1V733.1h17.1V835.5z"/>
			<path d="M-193.1,989.1h-34.1c-4.7,0-8.5,3.8-8.5,8.5c0,4.7,3.8,8.5,8.5,8.5h34.1c4.7,0,8.5-3.8,8.5-8.5
				C-184.5,992.9-188.4,989.1-193.1,989.1z"/>
			<path d="M-380.8,1023.2h-34.1c-4.7,0-8.5,3.8-8.5,8.5c0,4.7,3.8,8.5,8.5,8.5h34.1c4.7,0,8.5-3.8,8.5-8.5
				C-372.3,1027-376.1,1023.2-380.8,1023.2z"/>
			<path d="M-227.2,886.7c4.7,0,8.5-3.8,8.5-8.5v-85.3c0-4.7-3.8-8.5-8.5-8.5s-8.5,3.8-8.5,8.5v85.3
				C-235.7,882.8-231.9,886.7-227.2,886.7z"/>
			<path d="M-184.5,792.8c0-4.7-3.8-8.5-8.5-8.5s-8.5,3.8-8.5,8.5v85.3c0,4.7,3.8,8.5,8.5,8.5s8.5-3.8,8.5-8.5V792.8z"/>
			<path d="M-176,647.7h-51.2c-4.7,0-8.5,3.8-8.5,8.5c0,4.7,3.8,8.5,8.5,8.5h51.2c4.7,0,8.5,3.8,8.5,8.5v392.5
				c0,4.7-3.8,8.5-8.5,8.5h-76.8V716h51.2c4.7,0,8.5-3.8,8.5-8.5s-3.8-8.5-8.5-8.5h-51.2v-76.8c0-14.4-11.2-25.6-25.6-25.6h-51.2
				c-14.1,0-25.6,11.5-25.6,25.6v452.3h-85.3V630.7h59.7c4.7,0,8.5-3.8,8.5-8.5c0-4.7-3.8-8.5-8.5-8.5h-59.7v-8.5
				c0-14.4-11.2-25.6-25.6-25.6h-85.3c-14.1,0-25.6,11.5-25.6,25.6v76.8h-42.7c-4.7,0-8.5,3.8-8.5,8.5c0,4.7,3.8,8.5,8.5,8.5h42.7
				v375.5h-59.7c-4.7,0-8.5-3.8-8.5-8.5V656.3c0-4.7,3.8-8.5,8.5-8.5h34.1c4.7,0,8.5-3.8,8.5-8.5s-3.8-8.5-8.5-8.5h-34.1
				c-14.1,0-25.6,11.5-25.6,25.6v409.6c0,14.1,11.5,25.6,25.6,25.6H-176c14.1,0,25.6-11.5,25.6-25.6V673.3
				C-150.4,659.2-161.9,647.7-176,647.7z M-457.6,1074.4H-560V647.7h76.8c4.7,0,8.5-3.8,8.5-8.5s-3.8-8.5-8.5-8.5H-560v-25.6
				c0-4.8,3.7-8.5,8.5-8.5h85.3c4.9,0,8.5,3.7,8.5,8.5L-457.6,1074.4L-457.6,1074.4z M-269.9,1074.4h-68.3V664.8h42.7
				c4.7,0,8.5-3.8,8.5-8.5c0-4.7-3.8-8.5-8.5-8.5h-42.7v-25.6c0-4.8,3.7-8.5,8.5-8.5h51.2c4.9,0,8.5,3.7,8.5,8.5V1074.4z"/>
			<path d="M-602.7,989.1h-17.1c-4.7,0-8.5,3.8-8.5,8.5c0,4.7,3.8,8.5,8.5,8.5h17.1c4.7,0,8.5-3.8,8.5-8.5
				C-594.1,992.9-598,989.1-602.7,989.1z"/>
			<path d="M-602.7,1023.2h-17.1c-4.7,0-8.5,3.8-8.5,8.5c0,4.7,3.8,8.5,8.5,8.5h17.1c4.7,0,8.5-3.8,8.5-8.5
				C-594.1,1027-598,1023.2-602.7,1023.2z"/>
			<path d="M-380.8,989.1h-34.1c-4.7,0-8.5,3.8-8.5,8.5c0,4.7,3.8,8.5,8.5,8.5h34.1c4.7,0,8.5-3.8,8.5-8.5
				C-372.3,992.9-376.1,989.1-380.8,989.1z"/>
			<path d="M-602.7,784.3h-17.1c-4.7,0-8.5,3.8-8.5,8.5s3.8,8.5,8.5,8.5h17.1c4.7,0,8.5-3.8,8.5-8.5S-598,784.3-602.7,784.3z"/>
			<path d="M-602.7,818.4h-17.1c-4.7,0-8.5,3.8-8.5,8.5s3.8,8.5,8.5,8.5h17.1c4.7,0,8.5-3.8,8.5-8.5
				C-594.1,822.2-598,818.4-602.7,818.4z"/>
		</g>
	</g>
</g>
<g>
	<g>
		<g>
			<path d="M1796.1-164.1l-91-91c-1.9-1.9-4.4-2.9-7.1-2.9h-297c-16.5,0-30,13.5-30,30v19.1c-49.1,19.3-84,67.2-84,123
				c0,5.5,4.5,10,10,10h122.1c5.5,0,10-4.5,10-10V-208c0-5.5-4.5-10-10-10c-9.6,0-19,1-28.1,3v-13c0-5.5,4.5-10,10-10h287v61
				c0,16.5,13.5,30,30,30h61v371c0,5.5-4.5,10-10,10h-368c-5.5,0-10-4.5-10-10v-85.7c0-5.5-4.5-10-10-10s-10,4.5-10,10V224
				c0,16.5,13.5,30,30,30h368c16.5,0,30-13.5,30-30v-381C1799-159.7,1797.9-162.2,1796.1-164.1z M1409.1-197.6v101.6h-101.6
				C1312.2-149.8,1355.2-192.8,1409.1-197.6z M1718-167c-5.5,0-10-4.5-10-10v-46.9l56.9,56.9H1718z"/>
		</g>
	</g>
	<g>
		<g>
			<path d="M1388.1,94.9c-1.9-1.9-4.4-2.9-7.1-2.9s-5.2,1.1-7.1,2.9c-1.9,1.9-2.9,4.4-2.9,7.1s1.1,5.2,2.9,7.1
				c1.9,1.9,4.4,2.9,7.1,2.9s5.2-1.1,7.1-2.9c1.9-1.9,2.9-4.4,2.9-7.1S1389.9,96.8,1388.1,94.9z"/>
		</g>
	</g>
	<g>
		<g>
			<path d="M1454.9-182.2c-5.5,0-10,4.5-10,10v112.1h-112.1c-5.5,0-10,4.5-10,10c0,72.8,59.3,132.1,132.1,132.1
				c72.8,0,132.1-59.3,132.1-132.1S1527.7-182.2,1454.9-182.2z M1464.9-161.7c23.4,2.1,44.8,11.4,61.8,25.7l-61.8,61.8V-161.7z
				 M1454.9,62c-58.4,0-106.6-44.9-111.6-102.1h111.6c2.8,0,5.3-1.1,7.1-2.9c0,0,0,0,0,0l78.9-78.9c16.3,19.5,26.1,44.5,26.1,71.8
				C1567,11.7,1516.7,62,1454.9,62z"/>
		</g>
	</g>
	<g>
		<g>
			<path d="M1725.1,57.6c-16.5,0-30,13.5-30,30c0,4.1,0.8,8.1,2.4,11.7l-57.6,57.6c-4-1.9-8.4-3-13.1-3c-4.6,0-8.9,1-12.8,2.9
				l-38.3-38.3c1.3-3.4,2.1-7.1,2.1-10.9c0-16.5-13.5-30-30-30s-30,13.5-30,30c0,4.5,1,8.7,2.8,12.6l-36.7,36.7
				c-3.9-1.9-8.3-2.9-12.9-2.9c-16.5,0-30,13.5-30,30s13.5,30,30,30s30-13.5,30-30c0-4.6-1.1-9-2.9-13l36.5-36.5
				c4,2,8.5,3.1,13.3,3.1c5.4,0,10.4-1.4,14.8-3.9l37.2,37.2c-1.9,3.9-3,8.4-3,13c0,16.5,13.5,30,30,30s30-13.5,30-30
				c0-4.6-1-8.9-2.9-12.8l57.1-57.1c4.2,2.3,9,3.5,14.1,3.5c16.5,0,30-13.5,30-30S1741.6,57.6,1725.1,57.6z M1470.9,193.9
				c-5.5,0-10-4.5-10-10s4.5-10,10-10c2.7,0,5.1,1.1,6.9,2.8c0,0,0.1,0.1,0.1,0.1c0,0,0.1,0.1,0.1,0.1c1.7,1.8,2.8,4.2,2.8,6.9
				C1480.9,189.5,1476.4,193.9,1470.9,193.9z M1547.7,117.6c-5.5,0-10-4.5-10-10s4.5-10,10-10c5.5,0,10,4.5,10,10
				S1553.2,117.6,1547.7,117.6z M1626.7,193.9c-5.5,0-10-4.5-10-10s4.5-10,10-10s10,4.5,10,10S1632.3,193.9,1626.7,193.9z
				 M1725.1,97.6c-5.5,0-10-4.5-10-10s4.5-10,10-10c5.5,0,10,4.5,10,10S1730.6,97.6,1725.1,97.6z"/>
		</g>
	</g>
	<g>
		<g>
			<path d="M1675.1-23h-52.8c-5.5,0-10,4.5-10,10s4.5,10,10,10h52.8c5.5,0,10-4.5,10-10S1680.6-23,1675.1-23z"/>
		</g>
	</g>
	<g>
		<g>
			<path d="M1727.7-20.1c-1.9-1.9-4.4-2.9-7.1-2.9s-5.2,1.1-7.1,2.9c-1.9,1.9-2.9,4.4-2.9,7.1s1.1,5.2,2.9,7.1
				c1.9,1.9,4.4,2.9,7.1,2.9c2.6,0,5.2-1.1,7.1-2.9c1.9-1.9,2.9-4.4,2.9-7.1S1729.6-18.2,1727.7-20.1z"/>
		</g>
	</g>
	<g>
		<g>
			<path d="M1744.5-119h-122.2c-5.5,0-10,4.5-10,10s4.5,10,10,10h122.2c5.5,0,10-4.5,10-10S1750-119,1744.5-119z"/>
		</g>
	</g>
	<g>
		<g>
			<path d="M1744.5-71h-122.2c-5.5,0-10,4.5-10,10s4.5,10,10,10h122.2c5.5,0,10-4.5,10-10S1750-71,1744.5-71z"/>
		</g>
	</g>
</g>
<g>
	<path d="M-1150.7-914.2c-4.1,0-7.5,3.4-7.5,7.5v13.8c0,3.5-2.2,6.7-5.5,8c-3.9,1.5-5.8,5.8-4.3,9.7c1.1,3,4,4.8,7,4.8
		c0.9,0,1.8-0.2,2.7-0.5c9.1-3.5,15.2-12.3,15.2-22v-13.8C-1143.2-910.8-1146.6-914.2-1150.7-914.2z"/>
	<path d="M-1290.4-884.3h-108.4c-4.7,0-8.5-3.8-8.5-8.5v-274.5c0-4.1-3.4-7.5-7.5-7.5s-7.5,3.4-7.5,7.5v274.5
		c0,13,10.6,23.5,23.5,23.5h108.4c4.1,0,7.5-3.4,7.5-7.5S-1286.3-884.3-1290.4-884.3z"/>
	<path d="M-1414.8-1191.5c4.1,0,7.5-3.4,7.5-7.5v-20.7c0-4.7,3.8-8.5,8.5-8.5h53.9v10.5c0,8.2,6.6,14.8,14.8,14.8h94.6
		c8.2,0,14.8-6.6,14.8-14.8v-10.5h53.9c4.7,0,8.5,3.8,8.5,8.5v41.2c0,4.1,3.4,7.5,7.5,7.5c4.1,0,7.5-3.4,7.5-7.5v-41.2
		c0-13-10.6-23.5-23.5-23.5h-54.1c-1-7.2-7.2-12.7-14.6-12.7h-10.5c-3.5-17.1-18.7-30.1-36.8-30.1s-33.3,12.9-36.8,30.1h-10.5
		c-7.4,0-13.6,5.5-14.6,12.7h-54.1c-13,0-23.5,10.6-23.5,23.5v20.7C-1422.3-1194.9-1419-1191.5-1414.8-1191.5z M-1282.8-1271
		c9.8,0,18.2,6.3,21.3,15.1h-42.6C-1301-1264.7-1292.6-1271-1282.8-1271z M-1329.9-1240.9h17h60.2h17v5.1c0,0,0,0.1,0,0.1
		s0,0.1,0,0.1v17.7h-94.2V-1240.9z"/>
	<path d="M-1143.2-1090.6v-24.6c0-4.1-3.4-7.5-7.5-7.5s-7.5,3.4-7.5,7.5v24.6c0,4.1,3.4,7.5,7.5,7.5S-1143.2-1086.4-1143.2-1090.6z"
		/>
	<path d="M-1150.7-945.4c-30,0-54.3,24.4-54.3,54.3s24.4,54.3,54.3,54.3s54.3-24.4,54.3-54.3S-1120.8-945.4-1150.7-945.4z
		 M-1150.7-851.7c-21.7,0-39.3-17.6-39.3-39.3c0-21.7,17.6-39.3,39.3-39.3s39.3,17.6,39.3,39.3
		C-1111.4-869.4-1129-851.7-1150.7-851.7z"/>
	<path d="M-1040-918.6l-20.9-3.2c-1.3-3.8-2.8-7.5-4.6-11l12.5-17c2.2-3,1.9-7.1-0.7-9.7l-2.7-2.7c-2.9-2.9-7.7-2.9-10.6,0
		c-2.2,2.2-2.8,5.6-1.6,8.3l-11.8,16c-1.7,2.4-1.9,5.5-0.5,8.1c2.9,5.3,5.3,11,7,16.8c0.8,2.8,3.2,4.9,6.1,5.4l19.2,2.9v27.3
		l-19.2,2.9c-2.9,0.4-5.3,2.5-6.1,5.4c-1.7,5.9-4,11.5-7,16.8c-1.4,2.6-1.2,5.7,0.5,8.1l11.5,15.6l-19.3,19.3l-15.6-11.5
		c-2.4-1.7-5.5-1.9-8.1-0.5c-5.3,2.9-11,5.3-16.8,7c-2.8,0.8-4.9,3.2-5.4,6.1l-2.9,19.2h-27.3l-2.9-19.2c-0.4-2.9-2.5-5.3-5.4-6.1
		c-5.9-1.7-11.5-4-16.8-7c-2.6-1.4-5.7-1.2-8.1,0.5l-15.6,11.5l-19.3-19.3l11.5-15.6c1.7-2.4,1.9-5.5,0.5-8.1
		c-2.9-5.3-5.3-11-7-16.8c-0.8-2.8-3.2-4.9-6.1-5.4l-19.2-2.9v-27.3l19.2-2.9c2.9-0.4,5.3-2.5,6.1-5.4c1.7-5.9,4-11.5,7-16.8
		c1.4-2.6,1.2-5.7-0.5-8.1l-11.5-15.6l19.3-19.3l15.6,11.5c2.4,1.7,5.5,1.9,8.1,0.5c5.3-2.9,11-5.3,16.8-7c2.8-0.8,4.9-3.2,5.4-6.1
		l2.9-19.2h27.3l2.9,19.2c0.4,2.9,2.5,5.3,5.4,6.1c5.9,1.7,11.5,4,16.8,7c2.6,1.4,5.7,1.2,8.1-0.5l15.6-11.5
		c2.9,2.8,7.6,2.8,10.5-0.1c2.9-2.9,2.9-7.7,0-10.6l-4.5-4.5c-2.6-2.6-6.8-2.9-9.7-0.7l-17,12.5c-3.6-1.8-7.3-3.3-11-4.6l-3.2-20.9
		c-0.6-3.7-3.7-6.4-7.4-6.4h-12.6v-19.1c0-4.1-3.4-7.5-7.5-7.5c-4.1,0-7.5,3.4-7.5,7.5v19.1h-12.6c-3.7,0-6.9,2.7-7.4,6.4l-3.2,20.9
		c-3.8,1.3-7.5,2.8-11.1,4.6l-17-12.5c-3-2.2-7.1-1.9-9.7,0.7l-28.4,28.4c-2.6,2.6-2.9,6.8-0.7,9.7l12.5,17c-1.8,3.6-3.3,7.3-4.6,11
		l-20.9,3.2c-3.7,0.6-6.4,3.7-6.4,7.4v40.2c0,3.7,2.7,6.9,6.4,7.4l20.9,3.2c1.3,3.8,2.8,7.5,4.6,11l-12.5,17c-2.2,3-1.9,7.1,0.7,9.7
		l28.4,28.4c2.6,2.6,6.8,2.9,9.7,0.7l17-12.5c3.6,1.8,7.3,3.3,11.1,4.6l3.2,20.9c0.6,3.7,3.7,6.4,7.4,6.4h40.2
		c3.7,0,6.9-2.7,7.4-6.4l3.2-20.9c3.8-1.3,7.5-2.8,11-4.6l17,12.5c3,2.2,7.1,1.9,9.7-0.7l28.4-28.4c2.6-2.6,2.9-6.8,0.7-9.7
		l-12.5-17c1.8-3.6,3.3-7.3,4.6-11l20.9-3.2c3.7-0.6,6.4-3.7,6.4-7.4v-40.2C-1033.7-914.9-1036.4-918-1040-918.6z"/>
	<path d="M-1239.1-1136.8c0-0.2,0-0.4-0.1-0.6c-0.1-0.6-0.1-1.2-0.2-1.7c0-0.2-0.1-0.4-0.1-0.6c-0.1-0.6-0.2-1.1-0.3-1.7
		c0-0.2-0.1-0.4-0.1-0.6c-0.1-0.6-0.3-1.1-0.4-1.6c-0.1-0.2-0.1-0.4-0.2-0.6c-0.1-0.5-0.3-1-0.5-1.5c-0.1-0.2-0.2-0.5-0.2-0.7
		c-0.2-0.5-0.3-0.9-0.5-1.4c-0.1-0.3-0.2-0.5-0.3-0.8c-0.2-0.4-0.3-0.8-0.5-1.2c-0.1-0.3-0.3-0.6-0.4-0.9c-0.2-0.4-0.3-0.7-0.5-1.1
		c-0.2-0.3-0.3-0.7-0.5-1c-0.2-0.3-0.3-0.6-0.5-0.8c-0.2-0.4-0.4-0.8-0.7-1.1c-0.1-0.2-0.2-0.4-0.3-0.5c-1.4-2.2-2.9-4.3-4.7-6.2
		c0,0-0.1-0.1-0.1-0.1c-0.4-0.4-0.8-0.8-1.2-1.2c-0.1-0.1-0.2-0.3-0.4-0.4c-0.4-0.4-0.7-0.7-1.1-1.1c-0.2-0.2-0.4-0.3-0.5-0.5
		c-0.2-0.1-0.3-0.3-0.5-0.5c-0.1-0.1-0.1-0.1-0.2-0.2c-0.1-0.1-0.2-0.2-0.2-0.2c-0.3-0.3-0.7-0.6-1-0.8c-0.2-0.1-0.3-0.3-0.5-0.4
		c-0.2-0.1-0.4-0.3-0.6-0.4c0,0,0,0,0,0c-0.1-0.1-0.2-0.2-0.4-0.3c-0.2-0.1-0.4-0.3-0.6-0.4c-0.3-0.2-0.6-0.4-0.9-0.6l-0.7-0.4
		c-0.3-0.2-0.5-0.3-0.8-0.5c0,0-0.1,0-0.1-0.1c0,0-0.1,0-0.1-0.1c0,0,0,0,0,0c-0.2-0.1-0.4-0.2-0.6-0.4c-0.2-0.1-0.5-0.3-0.7-0.4
		c-0.1-0.1-0.3-0.1-0.4-0.2c-0.1,0-0.2-0.1-0.3-0.1c-0.1-0.1-0.2-0.1-0.3-0.2l-0.5-0.2c-0.1-0.1-0.2-0.1-0.3-0.1
		c-0.6-0.3-1.2-0.6-1.8-0.8c-0.1-0.1-0.3-0.1-0.4-0.2c-3.1-1.3-6.3-2.3-9.7-3c-0.1,0-0.2,0-0.3,0c-0.7-0.1-1.4-0.2-2.2-0.3
		c-0.1,0-0.3,0-0.4-0.1c-0.7-0.1-1.4-0.1-2-0.2c-0.2,0-0.3,0-0.5,0c-0.8,0-1.7-0.1-2.5-0.1c-24.2,0-43.9,19.7-43.9,43.9v3.4v14.2
		c0,24.2,19.7,43.9,43.9,43.9c24.2,0,43.9-19.7,43.9-43.9v-10.7v-6.9c0-0.8,0-1.6-0.1-2.3c0-0.2,0-0.3,0-0.5
		C-1239-1135.6-1239-1136.2-1239.1-1136.8z M-1281.2-1161c0.2,0,0.4,0,0.6,0c0.3,0,0.6,0,0.9,0.1c0.3,0,0.5,0.1,0.8,0.1
		c0.3,0,0.5,0.1,0.8,0.1c0.3,0,0.6,0.1,0.8,0.1c0.2,0,0.5,0.1,0.7,0.1c0.3,0.1,0.5,0.1,0.8,0.2c0.3,0.1,0.5,0.1,0.8,0.2
		c0.2,0.1,0.5,0.1,0.7,0.2c0.5,0.2,1,0.3,1.5,0.5c0.1,0,0.1,0.1,0.2,0.1c0.4,0.2,0.9,0.3,1.3,0.5c0.1,0,0.2,0.1,0.3,0.1
		c0.4,0.2,0.9,0.4,1.3,0.6c0.2,0.1,0.4,0.2,0.6,0.3c0.1,0,0.2,0.1,0.3,0.2c0.3,0.2,0.6,0.3,0.9,0.5l0.3,0.2c0,0,0.1,0,0.1,0
		c0.3,0.2,0.6,0.4,0.9,0.6l0,0c0.1,0.1,0.2,0.1,0.3,0.2c0.3,0.2,0.5,0.4,0.8,0.6c0.1,0.1,0.2,0.2,0.3,0.2c0.3,0.2,0.5,0.4,0.8,0.6
		c0.1,0.1,0.2,0.2,0.3,0.3c0.2,0.2,0.4,0.3,0.6,0.5c0.2,0.2,0.4,0.3,0.5,0.5c0.2,0.2,0.4,0.3,0.5,0.5c0.1,0.1,0.3,0.3,0.4,0.4
		c0.2,0.2,0.4,0.4,0.6,0.6c0.1,0.1,0.3,0.3,0.4,0.4c0.2,0.2,0.4,0.4,0.6,0.6c0.1,0.1,0.2,0.3,0.3,0.4c0.2,0.2,0.4,0.4,0.5,0.7
		c0.1,0.1,0.2,0.3,0.3,0.4c0.2,0.2,0.3,0.5,0.5,0.7c0.1,0.2,0.2,0.3,0.3,0.5c0.1,0.2,0.3,0.4,0.4,0.7c0.1,0.2,0.2,0.3,0.3,0.5
		c0.1,0.2,0.2,0.4,0.3,0.6s0.2,0.4,0.3,0.6c0.1,0.2,0.2,0.4,0.3,0.5c0.1,0.2,0.2,0.5,0.4,0.7c0.1,0.1,0.1,0.3,0.2,0.4
		c0.1,0.3,0.3,0.6,0.4,0.8c0,0.1,0.1,0.2,0.1,0.3c0.1,0.3,0.3,0.6,0.4,1c0,0.1,0,0.1,0.1,0.2c0.7,1.9,1.1,3.9,1.4,5.9
		c0,0.2,0,0.4,0.1,0.5c-3.6-1.9-6.8-4.7-9.1-8.3c-1.3-2-3.4-3.2-5.7-3.4c-2.3-0.2-4.6,0.7-6.2,2.5c-6.8,7.6-16.6,11.9-26.7,11.9
		c-3.4,0-6.7-0.5-10-1.4c0-0.2,0-0.4,0-0.6c0-0.2,0-0.5,0.1-0.7c0-0.3,0.1-0.5,0.1-0.8c0-0.2,0.1-0.4,0.1-0.7c0-0.3,0.1-0.5,0.1-0.8
		c0-0.2,0.1-0.4,0.1-0.6c0.1-0.3,0.1-0.5,0.2-0.8c0-0.2,0.1-0.4,0.1-0.6c0.1-0.3,0.2-0.5,0.2-0.8c0.1-0.2,0.1-0.4,0.2-0.5
		c0.1-0.3,0.2-0.7,0.3-1c0-0.1,0.1-0.2,0.1-0.3c0.2-0.4,0.3-0.9,0.5-1.3c0.1-0.1,0.1-0.3,0.2-0.4c0.1-0.3,0.2-0.6,0.4-0.8
		c0.1-0.2,0.2-0.3,0.3-0.5c0.1-0.2,0.2-0.5,0.4-0.7c0.1-0.2,0.2-0.3,0.3-0.5c0.1-0.2,0.3-0.4,0.4-0.7c0.1-0.2,0.2-0.3,0.3-0.5
		c0.1-0.2,0.3-0.4,0.4-0.6c0.1-0.2,0.2-0.3,0.4-0.5c0.1-0.2,0.3-0.4,0.4-0.6c0.1-0.2,0.3-0.3,0.4-0.5c0.2-0.2,0.3-0.4,0.5-0.6
		c0.1-0.2,0.3-0.3,0.4-0.5c0.2-0.2,0.3-0.4,0.5-0.6c0.1-0.2,0.3-0.3,0.4-0.5c0.2-0.2,0.3-0.4,0.5-0.5c0.1-0.2,0.3-0.3,0.5-0.5
		c0.2-0.2,0.3-0.3,0.5-0.5c0.2-0.1,0.3-0.3,0.5-0.4c0.2-0.2,0.4-0.3,0.5-0.5c0.2-0.1,0.3-0.3,0.5-0.4c0.2-0.2,0.4-0.3,0.6-0.4
		c0.2-0.1,0.3-0.3,0.5-0.4c0.2-0.1,0.4-0.3,0.6-0.4c0.2-0.1,0.4-0.2,0.5-0.4c0.2-0.1,0.4-0.3,0.6-0.4c0.2-0.1,0.4-0.2,0.6-0.3
		c0.2-0.1,0.4-0.2,0.6-0.4c0.2-0.1,0.4-0.2,0.6-0.3c0.2-0.1,0.4-0.2,0.7-0.3c0.2-0.1,0.4-0.2,0.6-0.3c0.2-0.1,0.4-0.2,0.7-0.3
		c0.2-0.1,0.4-0.2,0.6-0.3c0.2-0.1,0.5-0.2,0.7-0.3c0.2-0.1,0.4-0.2,0.6-0.2c0.2-0.1,0.5-0.2,0.7-0.2c0.2-0.1,0.4-0.1,0.6-0.2
		c0.2-0.1,0.5-0.1,0.7-0.2c0.2-0.1,0.4-0.1,0.6-0.2c0.3-0.1,0.5-0.1,0.8-0.2c0.2,0,0.4-0.1,0.6-0.1c0.3-0.1,0.5-0.1,0.8-0.1
		c0.2,0,0.4-0.1,0.6-0.1c0.3,0,0.6-0.1,0.9-0.1c0.2,0,0.4-0.1,0.6-0.1c0.3,0,0.6-0.1,1-0.1c0.2,0,0.3,0,0.5,0c0.5,0,1,0,1.5,0
		C-1282.2-1161.1-1281.7-1161.1-1281.2-1161z M-1282.8-1085.7c-15.9,0-28.9-13-28.9-28.9v-4c3.3,0.7,6.6,1,10,1
		c11.5,0,22.6-3.9,31.6-11c4.6,4.4,10.1,7.7,16.2,9.4v4.5C-1253.9-1098.7-1266.8-1085.7-1282.8-1085.7z"/>
	<path d="M-1221.4-1020.8c-2-17.4-14-32.3-30.5-38.1c-0.2-0.1-0.4-0.2-0.6-0.2c-0.5-0.2-1.1-0.3-1.6-0.5c-0.1,0-0.1,0-0.2-0.1
		c-0.1,0-0.2-0.1-0.3-0.1l-1.4-0.4c-0.5-0.1-1.1-0.3-1.6-0.4c-0.1,0-0.2,0-0.3-0.1c-0.6-0.1-1.2-0.2-1.7-0.3
		c-0.5-0.1-1.1-0.2-1.7-0.3l-0.3,0c-0.6-0.1-1.2-0.1-1.8-0.2c-0.5,0-0.9-0.1-1.4-0.1c-0.2,0-0.5,0-0.7,0c-0.5,0-1.1,0-1.6,0h-31.1
		c-0.5,0-1.1,0-1.6,0c-0.2,0-0.5,0-0.8,0c-0.5,0-0.9,0.1-1.4,0.1c-0.6,0-1.2,0.1-1.8,0.2l-0.3,0c-0.6,0.1-1.1,0.2-1.7,0.3
		c-0.6,0.1-1.2,0.2-1.7,0.3c-0.1,0-0.2,0-0.3,0.1c-0.5,0.1-1.1,0.2-1.7,0.4l-1.3,0.3c-0.1,0-0.2,0.1-0.3,0.1c-0.1,0-0.1,0-0.2,0.1
		c-0.5,0.2-1.1,0.3-1.6,0.5c-0.2,0.1-0.4,0.2-0.6,0.2c-16.6,5.8-28.5,20.7-30.6,38.1c-0.3,2.8,0.9,5.5,3.2,7.1
		c17.2,11.7,37.3,17.8,58.1,17.8c20.8,0,40.9-6.2,58.1-17.8C-1222.3-1015.3-1221.1-1018-1221.4-1020.8z M-1282.8-1010.9
		c-16.2,0-31.9-4.3-45.6-12.6c2.7-9.9,10.2-18.1,20.2-21.4c0.2-0.1,0.3-0.1,0.5-0.2c0.2-0.1,0.4-0.1,0.6-0.2c0.1,0,0.1,0,0.2-0.1
		c0,0,0,0,0.1,0l1-0.3c0.4-0.1,0.8-0.2,1.1-0.3c0.1,0,0.2,0,0.2-0.1c0.3-0.1,0.7-0.1,1-0.2c0,0,0.1,0,0.1,0c0.3-0.1,0.7-0.1,1.1-0.2
		l0.1,0c0.4,0,0.8-0.1,1.2-0.1c0.3,0,0.7-0.1,1-0.1l0.2,0c0.1,0,0.2,0,0.3,0c0.3,0,0.7,0,1.1,0h31.1c0.4,0,0.7,0,1.1,0
		c0.1,0,0.2,0,0.3,0l0.2,0c0.3,0,0.7,0,1,0.1c0.4,0,0.8,0.1,1.3,0.1c0,0,0.1,0,0.1,0c0.3,0,0.7,0.1,1,0.2c0,0,0.1,0,0.1,0
		c0.3,0.1,0.7,0.1,1,0.2c0.1,0,0.2,0,0.2,0.1c0.4,0.1,0.8,0.2,1.1,0.2l1.1,0.3c0,0,0,0,0,0c0.1,0,0.1,0,0.2,0.1
		c0.2,0.1,0.4,0.1,0.6,0.2c0.2,0.1,0.3,0.1,0.5,0.2c9.9,3.3,17.5,11.5,20.2,21.4C-1250.9-1015.2-1266.6-1010.9-1282.8-1010.9z"/>
	<path d="M-1196.3-1154.3c-4.1,0-7.5,3.4-7.5,7.5c0,4.1,3.4,7.5,7.5,7.5h79.1c3.3,11.1,13.5,19.3,25.7,19.3
		c14.8,0,26.8-12,26.8-26.8s-12-26.8-26.8-26.8c-12.2,0-22.4,8.1-25.7,19.3H-1196.3z M-1091.6-1158.6c6.5,0,11.8,5.3,11.8,11.8
		c0,6.5-5.3,11.8-11.8,11.8s-11.8-5.3-11.8-11.8C-1103.4-1153.3-1098.1-1158.6-1091.6-1158.6z"/>
	<path d="M-1203.8-1058.9c0,4.1,3.4,7.5,7.5,7.5h79.1c3.3,11.1,13.5,19.3,25.7,19.3c14.8,0,26.8-12,26.8-26.8s-12-26.8-26.8-26.8
		c-12.2,0-22.4,8.1-25.7,19.3h-79.1C-1200.5-1066.4-1203.8-1063.1-1203.8-1058.9z M-1091.6-1070.7c6.5,0,11.8,5.3,11.8,11.8
		c0,6.5-5.3,11.8-11.8,11.8s-11.8-5.3-11.8-11.8C-1103.4-1065.4-1098.1-1070.7-1091.6-1070.7z"/>
</g>
<g>
	<g>
		<g>
			<path d="M-545.4-692.3h-38.8c-5.5,0-10,4.5-10,10c0,5.5,4.5,10,10,10h38.8c6,0,10.9,4.9,10.9,10.9s-4.9,10.9-10.9,10.9h-104.4
				c-15.7,0-30.5-6.9-40.5-19l-25-30c-13.4-16.1-32.9-25.5-53.8-26.1v-59.1h36.8c18.2,0,35.3,6.9,48.4,19.6l53.9,52
				c3.8,3.7,4,9.8,0.4,13.7c-3.7,4-9.9,4.2-13.9,0.6l-42.3-38.8c-4.1-3.7-10.4-3.5-14.1,0.6c-3.7,4.1-3.5,10.4,0.6,14.1l42.3,38.8
				c5.7,5.2,12.9,7.8,20.1,7.8c8,0,16.1-3.2,21.9-9.6c10.9-11.8,10.4-30.5-1.2-41.7l-53.9-52c-16.8-16.2-38.9-25.2-62.3-25.2h-38.8
				c-3.8-8.9-12.6-15.2-22.8-15.2H-841c-5.5,0-10,4.5-10,10v73.1c0,5.5,4.5,10,10,10c5.5,0,10-4.5,10-10V-800h37.1
				c2.6,0,4.8,2.1,4.8,4.8v80.1c0,2.6-2.1,4.8-4.8,4.8h-10.4c-5.5,0-10,4.5-10,10c0,5.5,4.5,10,10,10h10.4c10.4,0,19.3-6.4,23-15.5
				c15.6,0.1,30.2,7,40.2,19l25,30c13.9,16.7,34.2,26.2,55.9,26.2h104.4c17,0,30.9-13.8,30.9-30.9
				C-514.6-678.4-528.4-692.3-545.4-692.3z"/>
		</g>
	</g>
	<g>
		<g>
			<path d="M-349-971.1c-5.5,0-10,4.5-10,10v67h-37.1c-2.6,0-4.8-2.1-4.8-4.8V-979c0-2.6,2.1-4.8,4.8-4.8h9.7c5.5,0,10-4.5,10-10
				c0-5.5-4.5-10-10-10h-9.7c-10.4,0-19.3,6.4-23,15.5c-15.6-0.1-30.2-7-40.2-19l-25-30c-13.9-16.7-34.2-26.2-55.9-26.2h-104.4
				c-17,0-30.9,13.8-30.9,30.9c0,17,13.8,30.9,30.9,30.9h42.7c5.5,0,10-4.5,10-10s-4.5-10-10-10h-42.7c-6,0-10.9-4.9-10.9-10.9
				c0-6,4.9-10.9,10.9-10.9h104.4c15.7,0,30.5,6.9,40.5,19l25,30c13.4,16.1,32.9,25.5,53.8,26.1v59.1h-36.8
				c-18.2,0-35.3-6.9-48.4-19.6l-53.9-52c-3.8-3.7-4-9.8-0.4-13.7c3.7-4,9.9-4.2,13.9-0.6l42.3,38.8c4.1,3.7,10.4,3.5,14.1-0.6
				c3.7-4.1,3.5-10.4-0.6-14.1l-42.3-38.8c-12.1-11.1-30.9-10.3-42.1,1.8c-10.9,11.8-10.4,30.5,1.2,41.7l53.9,52
				c16.8,16.2,38.9,25.2,62.3,25.2h38.8c3.8,8.9,12.6,15.2,22.8,15.2h47.1c5.5,0,10-4.5,10-10v-77C-339-966.6-343.5-971.1-349-971.1
				z"/>
		</g>
	</g>
	<g>
		<g>
			<path d="M-528.2-723.4c-2.3-5-8.2-7.3-13.2-5c-5.1,2.2-7.4,8.1-5.2,13.2c1.6,3.8,5.3,6,9.2,6c1.3,0,2.7-0.3,4-0.8
				c0,0,0.2-0.1,0.2-0.1C-528.1-712.4-525.9-718.3-528.2-723.4z"/>
		</g>
	</g>
	<g>
		<g>
			<path d="M-503.3-740.2c-3.3-4.4-9.6-5.4-14-2.1c-4.5,3.3-5.4,9.5-2.2,14c2,2.7,5,4.1,8.1,4.1c2,0,4.1-0.6,5.9-1.9
				c0,0,0.1-0.1,0.1-0.1C-500.9-729.5-500-735.8-503.3-740.2z"/>
		</g>
	</g>
	<g>
		<g>
			<path d="M-556.1-712.1c-1.1-5.4-6.4-8.8-11.8-7.7c-5.4,1.1-8.9,6.3-7.9,11.7c0.9,4.8,5.1,8.1,9.8,8.1c0.6,0,1.3-0.1,1.9-0.2
				c0.1,0,0.2,0,0.3-0.1C-558.4-701.4-555-706.7-556.1-712.1z"/>
		</g>
	</g>
	<g>
		<g>
			<path d="M-482.4-761.9c-4.1-3.7-10.4-3.4-14.1,0.7c0,0.1-0.2,0.2-0.2,0.2c-3.6,4.2-3.1,10.5,1,14.1c1.9,1.6,4.2,2.4,6.5,2.4
				c2.8,0,5.5-1.1,7.5-3.4C-478-751.9-478.3-758.2-482.4-761.9z M-488-753.5l-1.1-1L-488-753.5L-488-753.5z"/>
		</g>
	</g>
	<g>
		<g>
			<path d="M-457-816.1c-5.3-1.6-10.9,1.4-12.5,6.7c-1.6,5.3,1.3,10.9,6.6,12.5c1,0.3,2,0.4,2.9,0.4c4.3,0,8.2-2.8,9.6-7.1l0-0.1
				C-448.7-809-451.7-814.5-457-816.1z"/>
		</g>
	</g>
	<g>
		<g>
			<path d="M-444.2-867.7c0-0.1,0-0.3-0.1-0.4c-1.1-5.4-6.4-8.9-11.8-7.7c-5.4,1.1-8.8,6.4-7.8,11.8c0.9,4.8,5.1,8.1,9.8,8.1
				c0.6,0,1.2-0.1,1.8-0.2C-446.8-857.1-443.2-862.3-444.2-867.7z"/>
		</g>
	</g>
	<g>
		<g>
			<path d="M-453.3-846c-5.5-0.5-10.4,3.6-10.8,9.1c0,0.1,0,0.3,0,0.4c-0.3,5.5,3.9,10.2,9.4,10.6c0.2,0,0.4,0,0.6,0
				c5.2,0,9.6-4,10-9.3C-443.8-840.7-447.8-845.6-453.3-846z"/>
		</g>
	</g>
	<g>
		<g>
			<path d="M-466.8-787.7c-4.8-2.7-10.9-1-13.6,3.8l-0.1,0.3c-2.6,4.9-0.9,11,4,13.6c1.5,0.8,3.2,1.2,4.8,1.2c3.5,0,6.9-1.9,8.7-5.2
				l-8.7-4.9l8.7,4.9C-460.3-778.9-462-785-466.8-787.7z"/>
		</g>
	</g>
	<g>
		<g>
			<path d="M-648.1-978.1c-2.5-4.9-8.5-6.9-13.4-4.5l-0.1,0c-4.9,2.5-6.9,8.5-4.4,13.4c1.7,3.5,5.3,5.5,9,5.5c1.5,0,3-0.3,4.5-1.1
				C-647.6-967.2-645.6-973.2-648.1-978.1z"/>
		</g>
	</g>
	<g>
		<g>
			<path d="M-619.2-986.4c-1.3-5.4-6.7-8.7-12.1-7.4c0,0-0.2,0-0.2,0.1c-5.3,1.4-8.6,6.8-7.2,12.2c1.2,4.5,5.2,7.5,9.7,7.5
				c0.8,0,1.7-0.1,2.5-0.3C-621.2-975.7-617.9-981.1-619.2-986.4z"/>
		</g>
	</g>
	<g>
		<g>
			<path d="M-674.5-963.7c-3.5-4.3-9.8-5-14.1-1.5l6.2,7.8l-6.2-7.8c-4.3,3.4-5,9.7-1.6,14c2,2.5,4.9,3.8,7.8,3.8
				c2.2,0,4.4-0.7,6.2-2.2l0.1-0.1C-671.8-953.1-671.1-959.4-674.5-963.7z"/>
		</g>
	</g>
	<g>
		<g>
			<path d="M-727.9-892.5c-5.3-1.5-10.8,1.7-12.3,7c0,0.1-0.1,0.3-0.1,0.4c-1.3,5.4,2,10.8,7.4,12.1c0.8,0.2,1.6,0.3,2.4,0.3
				c4.5,0,8.6-3,9.7-7.6C-719.4-885.7-722.6-891.1-727.9-892.5z"/>
		</g>
	</g>
	<g>
		<g>
			<path d="M-734.2-863.2c-5.5-0.3-10.2,3.9-10.6,9.4c0,0.1,0,0.3,0,0.4c-0.2,5.5,4.2,10.1,9.7,10.3c0.1,0,0.2,0,0.3,0
				c5.4,0,9.8-4.3,10-9.6C-724.6-858.2-728.8-862.8-734.2-863.2z"/>
		</g>
	</g>
	<g>
		<g>
			<path d="M-715.3-919.9c-4.9-2.6-10.9-0.7-13.5,4.2l-0.2,0.3c-2.4,5-0.4,10.9,4.6,13.4c1.4,0.7,2.9,1,4.4,1c3.7,0,7.2-2,9-5.5
				C-708.5-911.3-710.4-917.3-715.3-919.9z"/>
		</g>
	</g>
	<g>
		<g>
			<path d="M-697.2-943.9c-4.2-3.5-10.6-2.9-14.1,1.3c0,0.1-0.2,0.2-0.2,0.3c-3.4,4.3-2.7,10.6,1.6,14c1.8,1.5,4,2.2,6.2,2.2
				c2.9,0,5.8-1.3,7.8-3.7C-692.4-934.2-693-940.4-697.2-943.9z"/>
		</g>
	</g>
	<g>
		<g>
			<path d="M-722.9-825c-1-5.4-6.2-9.1-11.6-8.1c-5.4,1-9.1,6.2-8.1,11.6l0,0.1c0.9,4.8,5.1,8.2,9.8,8.2c0.6,0,1.2-0.1,1.8-0.2
				C-725.6-814.3-722-819.5-722.9-825z"/>
		</g>
	</g>
	<g>
		<g>
			<path d="M-560.7-900.9c-13,0-25.1,5.4-33.7,14.4c-8.6-9.1-20.7-14.4-33.7-14.4c-25.6,0-46.4,20.8-46.4,46.4
				c0,13.8,6.1,26.8,16.7,35.7c0.1,0.1,0.1,0.1,0.2,0.2l57,45.1c1.8,1.4,4,2.2,6.2,2.2c2.2,0,4.4-0.7,6.2-2.2l59.4-47.3
				c0.3-0.2,0.6-0.5,0.8-0.7c8.8-8.8,13.6-20.5,13.6-32.9C-514.2-880-535.1-900.9-560.7-900.9z M-541.6-836.1l-52.7,42l-50.7-40.1
				c-6-5-9.4-12.4-9.4-20.2c0-14.6,11.9-26.4,26.4-26.4c10.7,0,20.3,6.4,24.4,16.3c1.5,3.7,5.2,6.2,9.2,6.2s7.7-2.4,9.2-6.2
				c4.1-9.9,13.7-16.3,24.4-16.3c14.6,0,26.4,11.9,26.4,26.4C-534.2-847.5-536.9-841-541.6-836.1z"/>
		</g>
	</g>
	<g>
		<g>
			<circle cx="-841" cy="-700.2" r="10"/>
		</g>
	</g>
	<g>
		<g>
			<circle cx="-349" cy="-993.8" r="10"/>
		</g>
	</g>
</g>
<g>
	<g>
		<g>
			<path d="M178.5-1367.2l-2.9,15.7c45,8.6,85.9,31.7,116.5,65.8l11.9-10.7C271-1333.1,226.9-1358,178.5-1367.2z"/>
		</g>
	</g>
	<g>
		<g>
			<path d="M95.5-1367.2c-47.9,9.1-91.6,33.6-124.5,69.7l11.8,10.8c30.5-33.5,71-56.2,115.5-64.7L95.5-1367.2z"/>
		</g>
	</g>
	<g>
		<g>
			<path d="M-59.2-1216.3l-15.1-5.3c-17,48.3-17,101,0,149.3l15.1-5.3C-74.9-1122.5-74.9-1171.5-59.2-1216.3z"/>
		</g>
	</g>
	<g>
		<g>
			<path d="M-9.4-999.2l-11.3,11.4c31.7,31.5,72.2,52.8,116.2,61l2.9-15.7C57.7-950.2,20.1-969.9-9.4-999.2z"/>
		</g>
	</g>
	<g>
		<g>
			<path d="M284.8-1000.6c-27.8,28.1-63,47.7-101.6,56.5l3.5,15.6c41.5-9.4,79.5-30.5,109.4-60.8L284.8-1000.6z"/>
		</g>
	</g>
	<g>
		<g>
			<path d="M353.4-1205.1l-15.5,4.1c4.7,17.6,7.1,35.7,7.1,53.9c0,23.6-4,47.1-11.8,69.3l15.1,5.3
				C363.3-1115.1,365.1-1161.3,353.4-1205.1z"/>
		</g>
	</g>
	<g>
		<g>
			<path d="M345-1275C345-1275,345-1275,345-1275h-32c-4.4,0-8,3.6-8,8c0,0,0,0,0,0v32c0,4.4,3.6,8,8,8c0,0,0,0,0,0h32
				c4.4,0,8-3.6,8-8c0,0,0,0,0,0v-32C353-1271.4,349.4-1275,345-1275z M337-1243h-16v-16h16V-1243z"/>
		</g>
	</g>
	<g>
		<g>
			<path d="M153-1387C153-1387,153-1387,153-1387h-32c-4.4,0-8,3.6-8,8c0,0,0,0,0,0v32c0,4.4,3.6,8,8,8c0,0,0,0,0,0h32
				c4.4,0,8-3.6,8-8c0,0,0,0,0,0v-32C161-1383.4,157.4-1387,153-1387z M145-1355h-16v-16h16V-1355z"/>
		</g>
	</g>
	<g>
		<g>
			<path d="M-31-1283C-31-1283-31-1283-31-1283h-32c-4.4,0-8,3.6-8,8c0,0,0,0,0,0v32c0,4.4,3.6,8,8,8c0,0,0,0,0,0h32
				c4.4,0,8-3.6,8-8c0,0,0,0,0,0v-32C-23-1279.4-26.6-1283-31-1283z M-39-1251h-16v-16h16V-1251z"/>
		</g>
	</g>
	<g>
		<g>
			<path d="M-31-1059C-31-1059-31-1059-31-1059h-32c-4.4,0-8,3.6-8,8c0,0,0,0,0,0v32c0,4.4,3.6,8,8,8c0,0,0,0,0,0h32
				c4.4,0,8-3.6,8-8c0,0,0,0,0,0v-32C-23-1055.4-26.6-1059-31-1059z M-39-1027h-16v-16h16V-1027z"/>
		</g>
	</g>
	<g>
		<g>
			<path d="M153-955C153-955,153-955,153-955h-32c-4.4,0-8,3.6-8,8c0,0,0,0,0,0v32c0,4.4,3.6,8,8,8c0,0,0,0,0,0h32c4.4,0,8-3.6,8-8
				c0,0,0,0,0,0v-32C161-951.4,157.4-955,153-955z M145-923h-16v-16h16V-923z"/>
		</g>
	</g>
	<g>
		<g>
			<path d="M337-1059C337-1059,337-1059,337-1059h-32c-4.4,0-8,3.6-8,8c0,0,0,0,0,0v32c0,4.4,3.6,8,8,8c0,0,0,0,0,0h32
				c4.4,0,8-3.6,8-8c0,0,0,0,0,0v-32C345-1055.4,341.4-1059,337-1059z M329-1027h-16v-16h16V-1027z"/>
		</g>
	</g>
	<g>
		<g>
			<path d="M137-1307c-88.4,0-160,71.6-160,160s71.6,160,160,160c88.3-0.1,159.9-71.7,160-160C297-1235.4,225.4-1307,137-1307z
				 M90.2-1283.1c-9.3,10.8-16.9,23.1-22.4,36.3c-10.4-1.2-20.4-2.6-30.1-4.3C52.7-1265.4,70.6-1276.3,90.2-1283.1z M24.9-1237.2
				c11.8,2.3,24.1,4.3,37,5.9c-8,24.7-12.3,50.4-12.7,76.3H-6.6C-5-1185,6-1213.8,24.9-1237.2z M-6.6-1139h55.8
				c0.5,25.9,4.7,51.7,12.7,76.3c-12.9,1.5-25.3,3.5-37,5.9C6-1080.2-5-1109-6.6-1139z M37.7-1042.9c9.6-1.7,19.7-3.1,30.1-4.3
				c5.5,13.2,13.1,25.4,22.4,36.3C70.6-1017.7,52.7-1028.6,37.7-1042.9z M129-1004c-17.1-4-32.6-20.6-44.1-44.9
				c14.3-1.2,29-1.9,44.1-2V-1004z M129-1066.9c-17.3,0.2-34.2,1-50.5,2.5c-8.3-24-12.8-49.2-13.3-74.6H129V-1066.9z M129-1155H65.2
				c0.5-25.4,5-50.6,13.3-74.6c16.3,1.5,33.2,2.3,50.5,2.5L129-1155L129-1155z M129-1243.1c-15-0.2-29.8-0.9-44.1-2
				c11.5-24.3,26.9-40.9,44.1-44.9V-1243.1z M280.6-1155h-55.8c-0.5-25.9-4.7-51.7-12.7-76.3c12.9-1.5,25.3-3.5,37-5.9
				C268-1213.8,279-1185,280.6-1155z M236.3-1251.1c-9.6,1.7-19.7,3.1-30.1,4.3c-5.5-13.2-13.1-25.4-22.4-36.3
				C203.4-1276.3,221.3-1265.4,236.3-1251.1z M145-1290c17.1,4,32.6,20.6,44.1,44.9c-14.3,1.2-29,1.9-44.1,2V-1290z M145-1227.1
				c17.3-0.2,34.2-1,50.5-2.5c8.3,24,12.8,49.2,13.3,74.6H145V-1227.1z M145-1139h63.8c-0.5,25.4-5,50.6-13.3,74.6
				c-16.3-1.5-33.2-2.3-50.5-2.5V-1139z M145-1004v-46.9c15,0.2,29.8,0.9,44.1,2C177.6-1024.6,162.1-1008,145-1004z M183.8-1010.9
				c9.3-10.8,16.9-23.1,22.4-36.3c10.4,1.2,20.4,2.6,30.1,4.3C221.3-1028.6,203.4-1017.7,183.8-1010.9z M249.1-1056.8
				c-11.8-2.3-24.1-4.3-37-5.9c8-24.7,12.3-50.4,12.7-76.3h55.8C279-1109,268-1080.2,249.1-1056.8z"/>
		</g>
	</g>
</g>
<g>
	<g>
		<g>
			<path d="M913-747c-13.2,0-24,10.8-24,24s10.8,24,24,24s24-10.8,24-24S926.2-747,913-747z M913-715c-4.4,0-8-3.6-8-8s3.6-8,8-8
				s8,3.6,8,8S917.4-715,913-715z"/>
			<path d="M913-683c-13.2,0-24,10.8-24,24s10.8,24,24,24s24-10.8,24-24S926.2-683,913-683z M913-651c-4.4,0-8-3.6-8-8s3.6-8,8-8
				s8,3.6,8,8S917.4-651,913-651z"/>
			<path d="M1321-731l-8,2.2V-747c0-39.7-32.3-72-72-72h-96.6c-1.9-13-8.2-24.5-17.3-33l62.6-50c3.4,1.9,7.3,3,11.4,3
				c13.2,0,24-10.8,24-24s-10.8-24-24-24s-24,10.8-24,24c0,3.2,0.7,6.3,1.8,9.1l-65.6,52.5c-7.3-3.5-15.5-5.6-24.2-5.6
				s-16.9,2-24.2,5.6l-65.6-52.5c1.2-2.8,1.8-5.9,1.8-9.1c0-13.2-10.8-24-24-24s-24,10.8-24,24s10.8,24,24,24c4.2,0,8-1.2,11.4-3
				l62.6,50c-9.2,8.5-15.5,20-17.3,33H937c-39.7,0-72,32.3-72,72v192c0,34.2,24,62.8,56,70.1v33.9h56v-32h224v32h56v-33.9
				c32-7.3,56-36,56-70.1v-17.9l5.9,1.6l42.1,0.3v-160H1321z M1201-931c4.4,0,8,3.6,8,8s-3.6,8-8,8s-8-3.6-8-8S1196.6-931,1201-931z
				 M977-915c-4.4,0-8-3.6-8-8s3.6-8,8-8s8,3.6,8,8S981.4-915,977-915z M1089-851c19.3,0,35.5,13.8,39.2,32h-78.4
				C1053.5-837.2,1069.7-851,1089-851z M961-467h-24v-16h24V-467z M1241-467h-24v-16h24V-467z M1297-555c0,30.9-25.1,56-56,56H937
				c-30.9,0-56-25.1-56-56v-192c0-30.9,25.1-56,56-56h304c30.9,0,56,25.1,56,56v22.5l-16,4.3V-747c0-22.1-17.9-40-40-40H985
				c-22.1,0-40,17.9-40,40v192c0,22.1,17.9,40,40,40h256c22.1,0,40-17.9,40-40v-26.6l16,4.4V-555z M1161.6-741.5l-13.7,13.7
				c-6-3.4-12.3-6-18.9-7.8V-755h-48v19.3c-6.6,1.9-12.9,4.5-18.9,7.8l-13.7-13.7l-33.9,33.9l13.7,13.7c-3.4,6-6,12.3-7.8,18.9H1001
				v48h19.3c1.9,6.6,4.5,12.9,7.8,18.9l-13.7,13.7l33.9,33.9l13.7-13.7c6,3.4,12.3,6,18.9,7.8v19.3h48v-19.3
				c6.6-1.9,12.9-4.5,18.9-7.8l13.7,13.7l33.9-33.9l-13.7-13.7c0.1-0.1,0.2-0.3,0.2-0.5l83,22.6v31c0,13.2-10.8,24-24,24H985
				c-13.2,0-24-10.8-24-24v-192c0-13.2,10.8-24,24-24h256c13.2,0,24,10.8,24,24v31.2l-82.9,22.5c-0.1-0.2-0.2-0.4-0.3-0.5l13.7-13.7
				L1161.6-741.5z M1165.1-690.7c0.3,0.5,0.7,1.1,1,1.7l-20.2,5.5l-31-15.5H1097v8.8c-18.2,3.7-32,19.9-32,39.2
				c0,19.3,13.8,35.5,32,39.2v8.8h17.9l31-15.5l20.2,5.5c-0.3,0.5-0.6,1.1-1,1.6l-3.6,5.5l11.5,11.5l-11.3,11.3l-11.4-11.4l-5.5,3.6
				c-7.8,5.1-16.2,8.7-25.3,10.5l-6.4,1.3v16.2h-16v-16.2l-6.4-1.3c-9-1.8-17.5-5.4-25.3-10.5l-5.5-3.6l-11.4,11.4l-11.3-11.3
				l11.4-11.4l-3.6-5.5c-5.1-7.8-8.7-16.2-10.5-25.3l-1.3-6.4H1017v-16h16.2l1.3-6.4c1.8-9,5.4-17.5,10.5-25.3l3.6-5.5l-11.4-11.4
				l11.3-11.3l11.4,11.4l5.5-3.6c7.8-5.1,16.2-8.7,25.3-10.5l6.4-1.3V-739h16v16.2l6.4,1.3c9,1.8,17.5,5.4,25.3,10.5l5.5,3.6
				l11.4-11.4l11.3,11.3l-11.5,11.5L1165.1-690.7z M1137-670.1v38.1l-24,12v-62.1L1137-670.1z M1097-673.5v45.1
				c-9.3-3.3-16-12.1-16-22.5S1087.7-670.2,1097-673.5z M1345-587h-16v-16h-16v13.5l-160-43.6v-35.8l160-43.6v93.5h16v-96h16V-587z"
				/>
		</g>
	</g>
</g>
<g>
	<path d="M1040.8-1650.1l41.2,47.3c0,0.1-0.1,0.2-0.3,0.4l-49.1,44.1l-10.8,9.7l5.3,13.5c8.8,22.5,11.3,47,7.4,70.9
		c-3.9,24-14.2,46.4-29.8,64.9c0,0-0.1,0-0.2,0c-0.1,0-0.2,0-0.2,0l-41.3-47.6l-10.7-12.3l-14.6,7.3c-7.8,3.9-16.4,5.9-24.9,5.9
		c-15.7,0-30-6.6-40.3-18.7c-7.9-9.2-12.3-20.6-12.6-32.9c-0.3-11.8,3.2-23.6,10-33.1l9.6-13.5l-10.9-12.5l-41.1-47.3
		c21-12.4,44.8-19,69.1-19c23.7,0,47.3,6.2,68.2,18l12.6,7.1l11.1-9.2L1040.8-1650.1 M1041.6-1671.5c-6.4,0-10.2,1.3-14,5.1
		l-52.3,43.3c-24.3-13.7-51.4-20.7-78.5-20.7c-28.3,0-56.7,7.6-82.1,23.3c-5.1,2.5-7.6,7.7-8.9,14c-1.3,5.1,1.3,11.5,5.1,15.3
		l42.1,48.5c-19.1,26.8-19.1,65,3.8,91.8c14.8,17.2,35.3,26,56.3,26c11.6,0,23.3-2.7,34.3-8.2l42.1,48.4c3.8,3.8,8.9,6.4,15.3,6.4
		s11.5-2.5,15.3-6.4c38.3-44.6,47.2-105.8,26.8-158.1l49.7-44.6c7.7-7.7,8.9-19.1,2.6-28.1l-43.4-49.7
		C1051.8-1668.9,1048-1671.5,1041.6-1671.5L1041.6-1671.5z"/>
</g>
<g>
	<path d="M797.2-1553.2c1.7,0,3.4,0.6,4.2,1.6c1.4,1.7,1,5.6-0.8,7.1c-22,18.4-35.2,44.3-37.3,73c-2.1,28.3,6.9,56.1,25.4,78.1
		c20,23.9,49.5,37.6,80.9,37.6c25.5,0,50.4-9.1,70.1-25.7c0.6-0.5,1.7-0.8,2.9-0.8c1.7,0,3.4,0.6,4.2,1.6c1.4,1.7,1,5.6-0.8,7.1
		l-0.2,0.2l-0.2,0.2c-20.4,18.3-47.4,28.3-76.1,28.3c-34.7,0-67.1-14.9-88.7-40.9l-0.1-0.1l-0.1-0.1c-20.4-23.7-30.3-54-27.7-85.2
		c2.5-31.3,17.2-60.1,41.4-81.1C795-1552.9,796-1553.2,797.2-1553.2 M797.2-1567.2c-4.3,0-8.5,1.3-11.9,4.1
		c-56.1,48.4-62.5,131.3-15.3,186.1c25.5,30.6,62.5,45.9,99.4,45.9c30.6,0,61.2-10.2,85.4-31.9c7.6-6.4,8.9-19.1,2.5-26.8
		c-3.6-4.3-9.3-6.6-14.9-6.6c-4.3,0-8.5,1.3-11.9,4.1c-17.9,15-39.6,22.4-61.2,22.4c-26.1,0-52-10.9-70.2-32.6
		c-33.1-39.5-29.3-98.2,10.2-131.3c7.7-6.4,8.9-19.1,2.5-26.8C808.5-1564.9,802.8-1567.2,797.2-1567.2L797.2-1567.2z"/>
</g>
<g>
	<path d="M751.3-1604.2c1.7,0,3.4,0.6,4.2,1.6c1.4,1.7,1,5.6-0.8,7.1l-0.1,0.1l-0.1,0.1c-72.5,63-80.7,174.2-18.1,247.9
		c32.9,38.8,81.1,61,132.2,61c41.8,0,82.2-15,114-42.4c1.4-0.9,2.9-1.3,4.5-1.3c1.6,0,3.3,0.5,4.8,1.3c0.3,0.7,0.4,1.7,0.3,2.7
		c-0.1,1.5-0.7,2.8-1.6,3.5l-0.2,0.2l-0.2,0.2c-32.3,28.9-75.1,44.9-120.7,44.9c-54.6,0-106.1-23.3-141.1-63.9
		c-15.9-18.9-27.8-40.1-35.3-63.1c-7.5-23-10.4-47.3-8.6-72.1c3.6-49.9,26.2-94.9,63.9-126.7C749-1603.9,750.1-1604.2,751.3-1604.2
		L751.3-1604.2 M751.3-1618.2c-4.3,0-8.5,1.3-11.9,4.1c-40.8,34.4-65,82.9-68.9,136.4c-3.8,53.6,12.8,104.6,47.2,145.4
		c39.5,45.9,95.6,68.8,151.7,68.8c45.9,0,93.1-15.3,130-48.5c7.6-6.4,8.9-19.1,2.5-26.8c-4.2-3.5-9.6-5.5-15-5.5
		c-4.5,0-9,1.3-13,4.2c-30.5,26.5-68.1,39.5-105.5,39.5c-45.2,0-90-19-121.5-56.1c-57.4-67.6-51-169.6,16.6-228.2
		c7.6-6.4,8.9-19.1,2.5-26.8C762.6-1615.9,756.9-1618.2,751.3-1618.2L751.3-1618.2z"/>
</g>
<g>
	<path d="M922-1819.8l83.1,97.5l-38.2,32.6l-81.8-98.6L922-1819.8 M924.3-1842.3c-5.1,0-8.9,1.3-12.8,3.8l-43.3,37
		c-7.7,6.4-7.7,16.6-1.3,24.2l86.7,104.6c3.3,4,7.7,5.9,12.2,5.9c4.1,0,8.4-1.6,12-4.6l43.3-37c3.8-2.6,5.1-7.7,6.4-11.5
		c0-5.1-1.3-8.9-3.8-12.8l-88-103.3C933.2-1839.8,928.1-1841,924.3-1842.3L924.3-1842.3z"/>
</g>
<g>
	<path d="M1147-1557.7l82.4,96.8l-38.2,32.6l-82.4-96.8L1147-1557.7 M1147.9-1580.5c-4.1,0-8.4,1.6-12,4.6l-43.4,37
		c-3.8,2.6-5.1,7.6-6.4,11.5c0,5.1,1.3,8.9,3.8,12.8l88,103.3c3.3,4,7.7,5.9,12.2,5.9c4.1,0,8.4-1.6,12-4.6l43.4-37
		c3.8-2.6,5.1-7.7,6.4-11.5c0-5.1-1.3-8.9-3.8-12.7l-88-103.3C1156.8-1578.6,1152.5-1580.5,1147.9-1580.5L1147.9-1580.5z"/>
</g>
<path d="M790,880.2c4.8-2.8,6.4-8.9,3.7-13.7c-2.8-4.8-8.9-6.4-13.7-3.7c-4.8,2.8-6.4,8.9-3.7,13.7C779.1,881.4,785.2,883,790,880.2
	z"/>
<path d="M749,949.3l50.4,87.2c10.9,18.8,35.3,25.8,54.6,14.6c19.1-11.1,25.7-35.5,14.6-54.6l-30-52l26-15c4.8-2.8,6.4-8.9,3.7-13.7
	l-13-22.5c1.6-0.3,11.7-2.3,191.5-37.6c22.2-1.2,35.5-25.5,24.3-44.9l-33.2-57.6l21.2-32.2c2.1-3.2,2.2-7.2,0.3-10.5l-20-34.6
	c-1.9-3.3-5.5-5.2-9.3-5l-38.5,2.3l-36.9-63.9c-5.3-9.3-14.9-14.9-25.6-15c-0.1,0-0.3,0-0.4,0c-10.3,0-19.7,5.1-25.3,13.8
	L772.9,774.6l-84.9,49c-33.4,19.3-45,62.1-25.6,95.6C680.1,949.9,717.3,961.9,749,949.3z M851.3,1006.5c5.5,9.6,2.3,21.8-7.3,27.3
	c-9.6,5.6-21.9,2.1-27.3-7.3l-50-86.6l34.6-20C859.2,1020.1,850.4,1004.9,851.3,1006.5z M828.6,927.2l-10-17.3l17.3-10l10,17.3
	L828.6,927.2z M1025.2,691.3l13.8,23.9l-12.3,18.7l-23.8-41.3L1025.2,691.3z M920.3,619.2c2.7-4.4,6.9-4.8,8.7-4.8
	c1.7,0,6,0.6,8.5,5l116.3,201.5c3.8,6.6-0.8,14.8-8.4,15c-1.4,0-2,0.3-5.5,0.9l-123-213.1C919.4,620.3,919.8,620,920.3,619.2z
	 M903.6,640.6l115.6,200.2L844.7,875l-53-91.9L903.6,640.6z M679.7,909.3c-4.4-7.6-6.7-16.2-6.7-24.9c0-17.8,9.6-34.4,25-43.4
	l77.9-45l50,86.6l-77.9,45C724.1,941.3,693.5,933.1,679.7,909.3z"/>
<path d="M759,886.6c-2.8-4.8-8.9-6.4-13.7-3.7l-17.3,10c-4.8,2.8-10.9,1.1-13.7-3.7c-2.8-4.8-8.9-6.4-13.7-3.7s-6.4,8.9-3.7,13.7
	c8.2,14.3,26.6,19.3,41,11l17.3-10C760.1,897.5,761.7,891.4,759,886.6z"/>
<path d="M1150.1,615.7l-55.7,31c-4.8,2.7-6.6,8.8-3.9,13.6c2.7,4.8,8.8,6.6,13.6,3.9l55.7-31c4.8-2.7,6.6-8.8,3.9-13.6
	C1161.1,614.8,1155,613.1,1150.1,615.7z"/>
<path d="M1144.3,719.3l-38.6-10.4c-5.3-1.4-10.8,1.7-12.3,7.1s1.7,10.8,7.1,12.2l38.6,10.4c5.4,1.4,10.8-1.8,12.2-7.1
	C1152.8,726.2,1149.6,720.7,1144.3,719.3z"/>
<path d="M1047.2,579.4l-10.4,38.6c-1.4,5.3,1.7,10.8,7.1,12.3c5.3,1.4,10.8-1.7,12.3-7.1l10.4-38.6c1.4-5.3-1.7-10.8-7.1-12.3
	C1054.1,570.9,1048.6,574.1,1047.2,579.4z"/>
</svg>
