<?xml version="1.0" encoding="utf-8"?>
<!-- Generator: Adobe Illustrator 16.0.0, SVG Export Plug-In . SVG Version: 6.00 Build 0)  -->
<!DOCTYPE svg PUBLIC "-//W3C//DTD SVG 1.1//EN" "http://www.w3.org/Graphics/SVG/1.1/DTD/svg11.dtd">
<svg version="1.1" id="Layer_1" xmlns="http://www.w3.org/2000/svg" xmlns:xlink="http://www.w3.org/1999/xlink" x="0px" y="0px"
	 width="256.411px" height="51.282px" viewBox="0 0 256.411 51.282" enable-background="new 0 0 256.411 51.282"
	 xml:space="preserve">
<g>
	<rect x="95.843" y="26.599" fill="#0E1E62" width="2.012" height="11.023"/>
	<rect x="97.111" y="30.079" fill="#0E1E62" width="2.906" height="1.239"/>
	<rect x="198.288" y="26.599" fill="#0E1E62" width="2.012" height="14.996"/>
	<rect x="199.554" y="30.536" fill="#0E1E62" width="2.904" height="1.242"/>
	<rect x="181.307" y="30.038" fill="#0E1E62" width="3.86" height="1.235"/>
	<rect x="174.498" y="26.849" fill="#0E1E62" width="7.539" height="1.24"/>
	<rect x="125.06" y="26.599" fill="#0E1E62" width="2.006" height="8.439"/>
	<rect x="126.317" y="29.474" fill="#0E1E62" width="2.906" height="1.238"/>
	<rect x="117.232" y="29.259" fill="#0E1E62" width="5.155" height="1.238"/>
	<path fill="#0E1E62" d="M102.836,26.688v1.24h7.028v2.158c0,0.916-0.158,1.861-0.4,2.474h1.672
		c0.489-0.729,0.736-1.968,0.736-2.824v-3.048H102.836z"/>
	<rect x="89.203" y="26.23" fill="#0E1E62" width="2.005" height="2.375"/>
	<rect x="86.065" y="28.083" fill="#0E1E62" width="8.28" height="1.239"/>
	<rect x="106.306" y="33.032" fill="#0E1E62" width="2.012" height="3.609"/>
	<rect x="100.78" y="32.442" fill="#0E1E62" width="13.144" height="1.239"/>
	<rect x="135.61" y="32.091" fill="#0E1E62" width="2.008" height="2.74"/>
	<rect x="130.042" y="34.001" fill="#0E1E62" width="13.146" height="1.238"/>
	<polygon fill="#0E1E62" points="102.732,36.056 102.732,37.29 109.965,37.29 109.965,41.595 111.976,41.595 111.976,36.056 	"/>
	<rect x="169.499" y="26.599" fill="#0E1E62" width="2.008" height="11.023"/>
	<path fill="#0E1E62" d="M163.326,41.595h8.302v-1.235h-7.55v-3.517h-2.009v3.465C162.069,41.203,162.466,41.595,163.326,41.595"/>
	<path fill="#0E1E62" d="M89.672,41.595h8.305v-1.235h-7.554v-3.517h-2.005v3.465C88.418,41.203,88.815,41.595,89.672,41.595"/>
	<path fill="#0E1E62" d="M122.988,34.317v-7.261h-2.003v6.022h-3.158v-6.022h-2.012v5.973c0,0.896,0.4,1.288,1.256,1.288H122.988z"
		/>
	<path fill="#0E1E62" d="M146.691,26.726v4.698c0,0.899,0.394,1.29,1.252,1.29h7.783v-1.238h-7.031v-1.137h7.031v-1.24h-7.031
		v-1.133h7.031v-1.24H146.691z"/>
	<path fill="#0E1E62" d="M90.206,28.748c-2.138,0-3.868,1.508-3.868,3.368c0,1.861,1.73,3.365,3.868,3.365
		c2.136,0,3.867-1.504,3.867-3.365C94.073,30.256,92.342,28.748,90.206,28.748 M90.206,34.28c-1.026,0-1.858-0.969-1.858-2.164
		c0-1.197,0.832-2.166,1.858-2.166c1.025,0,1.856,0.969,1.856,2.166C92.062,33.312,91.231,34.28,90.206,34.28"/>
	<path fill="#0E1E62" d="M123.026,35.37c-2.244,0-4.07,1.538-4.07,3.438c0,1.903,1.826,3.44,4.07,3.44
		c2.253,0,4.079-1.537,4.079-3.44C127.105,36.908,125.279,35.37,123.026,35.37 M123.026,40.979c-1.142,0-2.068-0.973-2.068-2.171
		c0-1.195,0.926-2.169,2.068-2.169c1.15,0,2.077,0.974,2.077,2.169C125.103,40.007,124.176,40.979,123.026,40.979"/>
	<path fill="#0E1E62" d="M136.611,35.812c-2.201,0-3.99,1.438-3.99,3.223c0,1.775,1.789,3.215,3.99,3.215
		c2.207,0,3.994-1.439,3.994-3.215C140.605,37.25,138.818,35.812,136.611,35.812 M136.611,40.978c-1.094,0-1.976-0.869-1.976-1.943
		c0-1.078,0.882-1.948,1.976-1.948c1.099,0,1.985,0.87,1.985,1.948C138.597,40.108,137.71,40.978,136.611,40.978"/>
	<rect x="150.224" y="32.188" fill="#0E1E62" width="2.013" height="2.643"/>
	<rect x="144.658" y="34.001" fill="#0E1E62" width="13.142" height="1.238"/>
	<path fill="#0E1E62" d="M151.231,35.812c-2.208,0-3.995,1.44-3.995,3.223c0,1.775,1.787,3.215,3.995,3.215
		c2.204,0,3.991-1.439,3.991-3.215C155.223,37.252,153.436,35.812,151.231,35.812 M151.231,40.978c-1.096,0-1.982-0.869-1.982-1.943
		c0-1.078,0.887-1.948,1.982-1.948c1.098,0,1.98,0.87,1.98,1.948C153.212,40.108,152.329,40.978,151.231,40.978"/>
	<path fill="#0E1E62" d="M137.618,27.101v-0.502h-2.008v0.502c0,1.58-1.301,3.692-4.739,4.489l0.798,1.11
		c1.128-0.163,3.661-1.005,4.944-2.75c1.284,1.745,3.817,2.587,4.946,2.75l0.797-1.11C138.92,30.793,137.618,28.681,137.618,27.101"
		/>
	<rect x="217.755" y="34.358" fill="#0E1E62" width="13.146" height="1.242"/>
	<polygon fill="#0E1E62" points="229.734,27.716 225.332,27.716 225.332,26.23 223.324,26.23 223.324,27.716 219.096,27.716 
		219.096,28.954 229.734,28.954 	"/>
	<path fill="#0E1E62" d="M224.328,36.228c-2.046,0-3.709,1.353-3.709,3.015c0,1.66,1.663,3.007,3.709,3.007
		c2.051,0,3.713-1.347,3.713-3.007C228.041,37.58,226.379,36.228,224.328,36.228 M224.328,40.978c-1,0-1.814-0.776-1.814-1.737
		s0.814-1.738,1.814-1.738c1.004,0,1.818,0.777,1.818,1.738S225.332,40.978,224.328,40.978"/>
	<path fill="#0E1E62" d="M224.328,27.873c-2.028,0-3.676,1.329-3.676,2.962c0,1.635,1.647,2.964,3.676,2.964
		c2.032,0,3.679-1.329,3.679-2.964C228.007,29.202,226.36,27.873,224.328,27.873 M224.328,32.593c-0.986,0-1.79-0.786-1.79-1.758
		c0-0.969,0.804-1.756,1.79-1.756c0.989,0,1.791,0.787,1.791,1.756C226.119,31.807,225.317,32.593,224.328,32.593"/>
	<path fill="#0E1E62" d="M164.451,28.979v-2.252h-2.012v2.252c0,1.582-0.431,3.556-3.496,5.197l0.891,1.011
		c1.136-0.512,2.759-1.448,3.612-2.786c0.854,1.338,2.47,2.274,3.607,2.786l0.897-1.011
		C164.886,32.534,164.451,30.561,164.451,28.979"/>
	<rect x="184.226" y="26.599" fill="#0E1E62" width="2.005" height="11.023"/>
	<rect x="188.813" y="27.093" fill="#0E1E62" width="8.281" height="1.238"/>
	<path fill="#0E1E62" d="M194.636,36.153h-5.823v-1.236h5.823c1.2,0,3.239-0.161,4.085-0.529v1.087
		C197.852,35.892,196.266,36.153,194.636,36.153"/>
	<rect x="190.096" y="28.058" fill="#0E1E62" width="1.963" height="7.247"/>
	<rect x="193.861" y="28.058" fill="#0E1E62" width="1.959" height="7.247"/>
	<path fill="#0E1E62" d="M178.055,41.595h8.301v-1.235h-7.551v-3.517h-2.008v3.465C176.797,41.203,177.192,41.595,178.055,41.595"/>
	<path fill="#0E1E62" d="M179.178,28.979v-1.558h-2.008v1.558c0,1.582-0.432,3.556-3.5,5.197l0.893,1.011
		c1.136-0.512,2.757-1.448,3.613-2.787c0.847,1.339,2.471,2.275,3.611,2.787l0.889-1.011
		C179.611,32.534,179.178,30.561,179.178,28.979"/>
	<rect x="203.744" y="26.849" fill="#0E1E62" width="7.541" height="1.24"/>
	<rect x="213.475" y="26.599" fill="#0E1E62" width="2.004" height="11.023"/>
	<path fill="#0E1E62" d="M207.297,41.595h8.303v-1.235h-7.553v-3.517h-2.004v3.465C206.043,41.203,206.442,41.595,207.297,41.595"/>
	<rect x="235.964" y="34.074" fill="#0E1E62" width="2.01" height="2.685"/>
	<path fill="#0E1E62" d="M236.42,41.595h8.617v-1.235h-7.863v-2.747h-2.012v2.695C235.162,41.203,235.563,41.595,236.42,41.595"/>
	<path fill="#0E1E62" d="M208.424,28.979v-1.558h-2.011v1.558c0,1.582-0.431,3.556-3.499,5.197l0.893,1.011
		c1.138-0.512,2.76-1.448,3.609-2.786c0.854,1.338,2.475,2.274,3.612,2.786l0.892-1.011
		C208.855,32.534,208.424,30.561,208.424,28.979"/>
	<polygon fill="#0E1E62" points="242.909,26.599 242.909,35.398 239.532,35.398 239.532,36.634 242.909,36.634 242.909,37.972 
		244.917,37.972 244.917,26.599 	"/>
	<path fill="#0E1E62" d="M234.487,34.524h-1.932v-1.24h1.932c3.683,0,7.724-0.287,9.138-0.429v1.222
		C242.295,34.231,237.808,34.524,234.487,34.524"/>
	<path fill="#0E1E62" d="M236.972,26.458c-2.021,0-3.663,1.39-3.663,3.104c0,1.713,1.642,3.102,3.663,3.102
		c2.02,0,3.658-1.389,3.658-3.102C240.63,27.848,238.991,26.458,236.972,26.458 M236.972,31.424c-0.913,0-1.659-0.833-1.659-1.862
		c0-1.027,0.746-1.863,1.659-1.863c0.91,0,1.654,0.836,1.654,1.863C238.626,30.591,237.882,31.424,236.972,31.424"/>
	<polygon fill="#0E1E62" points="16.287,33.987 12.029,33.987 19.947,26.602 24.205,26.602 	"/>
	<rect x="47.462" y="35.235" fill="#0E1E62" width="9.913" height="2.576"/>
	<path fill="#0E1E62" d="M16.833,31.885l-4.44,2.103l5.037,5.826c0.881,1.107,1.926,1.78,3.845,1.78h3.714L16.833,31.885z"/>
	<path fill="#0E1E62" d="M9.544,26.603c-1.224,0-1.886,0.424-1.886,1.445v13.547h4.931V26.603H9.544z"/>
	<path fill="#0E1E62" d="M52.38,26.603c-1.219,0-1.895,0.424-2.402,1.437l-6.712,13.556h3.394l5.65-11.418l4.773,9.639
		c0.591,1.188,1.378,1.779,3.296,1.779h2.916l-7.43-14.992H52.38z"/>
	<path fill="#0E1E62" d="M41.823,39.884v-0.85h-6.834c-2.835,0-4.078-2.212-4.078-4.936c0-2.728,1.243-4.93,4.078-4.93h4.716
		c1.034,0,2.118-0.299,2.118-1.711v-0.855h-7.375c-6.579,0-8.778,3.354-8.778,7.496s2.199,7.496,8.778,7.496h5.257
		C40.739,41.595,41.823,41.306,41.823,39.884"/>
	<path fill="#EC1C24" d="M62.583,23.7c3.381,4.71,5.295,9.409,7.057,14.83c0.903,2.787,2.985,3.064,4.847,3.064h4.81
		C75.554,34.293,69.426,28.152,62.583,23.7"/>
	<path fill="#3777BB" d="M41.841,16.133c-2.266-0.327-3.265-0.726-4.034-1.772c-0.512-0.693-0.991-2.332-1.372-4.143
		C31.01,8.947,25.306,8.334,19.48,8.505c0.999,3.993,3.341,8.229,5.6,9.883c1.451,1.067,2.771,1.282,6.414,1.052
		c13.434-0.872,22.172,0.677,31.089,4.26C56.49,19.733,49.978,17.302,41.841,16.133"/>
	<path fill="#50B748" d="M35.632,4.007c0,1.304,0.316,3.903,0.803,6.211c10.08,2.366,19.172,7.049,26.148,13.482
		C56.282,14.695,46.989,7.466,35.632,4.007"/>
	<path fill="#0E1E62" d="M41.841,16.133c8.137,1.169,14.649,3.6,20.742,7.567c-6.976-6.433-16.068-11.116-26.148-13.482
		c0.381,1.811,0.86,3.45,1.372,4.143C38.576,15.407,39.575,15.806,41.841,16.133"/>
</g>
</svg>
